<?xml version="1.0" standalone="no"?>
<!DOCTYPE svg PUBLIC "-//W3C//DTD SVG 1.1//EN" "http://www.w3.org/Graphics/SVG/1.1/DTD/svg11.dtd" >
<svg xmlns="http://www.w3.org/2000/svg" xmlns:xlink="http://www.w3.org/1999/xlink" version="1.1">
<metadata>
Created by FontForge 20170731 at Thu Mar 21 05:50:45 2019
 By Aleksey,,,
</metadata>
<defs>
<font id="icomoon" horiz-adv-x="1024" >
  <font-face 
    font-family="icomoon"
    font-weight="400"
    font-stretch="normal"
    units-per-em="1024"
    panose-1="0 0 0 0 0 0 0 0 0 0"
    ascent="960"
    descent="-64"
    bbox="-0.133333 -66 1320 960.167"
    underline-thickness="0"
    underline-position="0"
    unicode-range="U+0001-FFFD"
  />
<missing-glyph 
 />
    <glyph glyph-name=".notdef" unicode="&#xfffd;" 
 />
    <glyph glyph-name="glyph1" horiz-adv-x="0" 
d="M0 0v0v0v0z" />
    <glyph glyph-name="glyph1" horiz-adv-x="0" 
d="M0 0v0v0v0z" />
    <glyph glyph-name="nonmarkingreturn" horiz-adv-x="341" 
 />
    <glyph glyph-name="uni0001" horiz-adv-x="0" 
d="M0 0v0v0v0z" />
    <glyph glyph-name="space" unicode=" " horiz-adv-x="512" 
d="M0 0v0v0v0z" />
    <glyph glyph-name="uniE603" unicode="&#xe603;" 
d="M669 585q14 0 30 -2q-20 95 -110 157q-91 63 -207 63q-130 0 -222 -78q-92 -77 -92 -189q0 -124 126 -212l-31 -94l109 55q80 -16 110 -16q14 0 30 1q-10 33 -10 66q0 103 77 176q78 73 190 73zM500 670q18 0 28 -11q11 -11 11 -29q0 -17 -10 -28q-11 -11 -29 -11t-32 11
q-15 12 -15 29t14 28q15 11 33 11zM280 591q-18 0 -32 11q-15 12 -15 29t14 28q15 11 33 11t29 -11t11 -29q0 -17 -11 -28t-29 -11zM956 340q0 93 -80 160q-80 68 -187 68q-112 0 -189 -67q-78 -67 -78 -162q0 -94 77 -161q78 -66 190 -66q31 0 94 16l86 -47l-23 78
q110 83 110 181zM602 379q-11 0 -21 10t-10 21q0 12 10 22t21 10q17 0 28 -10q12 -9 12 -22q0 -12 -11 -22q-12 -9 -29 -9zM775 379q-12 0 -21 10q-10 10 -10 21q0 12 9 22q10 10 22 10q17 0 28 -10q11 -9 11 -22q0 -12 -11 -22q-11 -9 -28 -9z" />
    <glyph glyph-name="uniE60A" unicode="&#xe60a;" 
d="M967 936q10 -11 12 -25q2 -13 -6 -21l-455 -455q-9 -9 -22 -7q-14 2 -24 13q-11 11 -13 24q-2 14 6 22l456 455q8 8 21 6q14 -1 25 -12v0zM861 565v-493q0 -8 -5 -14q-6 -5 -13 -5h-726q-7 0 -12 5q-6 6 -6 14v733q0 8 5 13q6 6 13 6h490v54h-490q-30 0 -51 -22
q-21 -21 -21 -51v-733q0 -30 21 -52q21 -21 51 -21h726q30 0 51 21q21 22 21 52v493h-54z" />
    <glyph glyph-name="uniE65B" unicode="&#xe65b;" 
d="M149 498l-85 -83l325 -352q9 16 26 45t74 117t119 174t158 202q96 117 194 217l-34 67q-11 -7 -31 -21q-21 -14 -85 -65q-65 -50 -130 -109q-65 -58 -156 -156q-92 -98 -175 -205z" />
    <glyph glyph-name="uniE723" unicode="&#xe723;" 
d="M557 473l266 264q9 9 9 22t-9 22q-10 10 -23 10t-23 -9l-265 -264l-263 264q-9 9 -22 9q-14 0 -23 -9q-10 -9 -10 -23q0 -13 10 -22l263 -264l-265 -264q-10 -9 -10 -23q0 -13 9 -22q10 -9 23 -9t23 9l265 264l265 -267q10 -9 23 -9t22 9q10 10 10 23t-9 23z" />
    <glyph glyph-name="uniE727" unicode="&#xe727;" 
d="M922 346h-308v-308q0 -42 -30 -72t-72 -30t-72 30t-30 72v0v308h-308q-42 0 -72 30t-30 72t30 72t72 30v0h308v308q0 42 30 72t72 30t72 -30t30 -72v0v-308h308q42 0 72 -30t30 -72t-30 -72t-72 -30v0v0z" />
    <glyph glyph-name="uniE729" unicode="&#xe729;" 
d="M922 346h-820q-42 0 -72 30t-30 72t30 72t72 30v0h820q42 0 72 -30t30 -72t-30 -72t-72 -30v0z" />
    <glyph glyph-name="uniE72F" unicode="&#xe72f;" 
d="M512 26q-185 0 -316 131q-132 132 -132 317t131 316q132 132 317 132t316 -132q132 -131 132 -316t-131 -317q-132 -131 -317 -131zM512 858q-159 0 -271 -113q-113 -112 -113 -271t112 -272q113 -112 272 -112t271 112q113 113 113 272t-112 271q-113 113 -272 113z" />
    <glyph glyph-name="uniE730" unicode="&#xe730;" 
d="M512 920q-91 0 -173 -36q-83 -35 -142 -95q-60 -59 -95 -142q-36 -82 -36 -173t35 -174q36 -82 95 -142q60 -59 142 -95q83 -35 174 -35t173 35q83 36 142 95q60 60 95 142q36 83 36 174t-35 173q-36 83 -95 142q-60 60 -142 95q-83 36 -174 36zM727 548l-256 -259v-1
q-2 -1 -7 -4l-2 -2q-1 0 -2 -1q-6 -2 -12 -2t-12 2q-1 1 -2 1q-1 1 -1 2q-6 3 -7 4v1h-1l-126 129q-9 10 -9 23t9 22q10 10 23 9q14 0 23 -9l103 -106l234 236q9 9 22 9q14 0 23 -9t9 -23q1 -13 -9 -22z" />
    <glyph glyph-name="uniE733" unicode="&#xe733;" 
d="M767 26q-8 0 -15 4l-242 134l-242 -133q-17 -10 -33 1q-17 12 -14 32l47 285l-196 202q-14 14 -7 32q5 18 24 22l155 26q14 3 24 -5q11 -8 13 -21q3 -13 -5 -24q-8 -10 -21 -13l-95 -16l165 -170q12 -12 9 -28l-39 -235l200 109q15 9 31 0l199 -110l-38 236q-3 16 9 27
l164 169l-225 34q-17 3 -24 18l-100 213l-100 -212q-5 -12 -17 -17q-13 -4 -25 1q-12 6 -16 18q-5 13 0 25l129 274q9 18 29 18v0q21 0 29 -18l121 -259l270 -41q20 -3 26 -22q6 -18 -8 -32l-197 -202l46 -285q3 -19 -13 -31q-7 -6 -18 -6z" />
    <glyph glyph-name="uniE736" unicode="&#xe736;" 
d="M953 633v2q-1 2 -2 5l-75 187q-10 29 -35 45q-26 17 -59 17h-527q-33 0 -57 -16t-34 -44l-80 -191l-1 -4q-9 -28 -9 -56q0 -48 25 -90t68 -65v0v0v0v0q36 -19 83 -19q82 1 134 63q52 -62 134 -62q81 0 133 62q52 -62 134 -62q49 0 85 20q42 23 66 64q25 42 25 90
q0 28 -8 54zM839 481q-22 -12 -54 -12q-29 0 -54 14t-41 39q-4 9 -8 13q-12 13 -31 13q-20 0 -31 -13q-4 -5 -8 -13q-16 -25 -41 -39t-53 -15q-29 1 -54 15t-41 39q-4 8 -7 12q-11 13 -32 13t-30 -12q-6 -6 -9 -14q-16 -25 -41 -39t-54 -14q-31 0 -53 11v0v0q-27 15 -43 41
q-16 27 -16 58q0 19 6 37q0 1 1 3l79 188q7 19 32 19h526q28 -2 34 -21l75 -185q0 -2 1 -4q6 -18 6 -36q-1 -31 -16 -58q-16 -26 -43 -40zM863 378q-13 0 -22 -10q-10 -9 -10 -22v-174q0 -8 -5 -14q-6 -5 -13 -5h-602q-8 0 -13 5q-5 6 -5 13v171q0 14 -9 23q-10 9 -23 9v0
q-14 0 -23 -9t-9 -23v-171q0 -34 24 -58t58 -24h602q34 1 58 25t24 58v174q0 13 -9 22q-10 10 -23 10zM768 602h-512q-13 0 -22 9q-10 10 -10 23t9 22q10 10 23 10h512q13 0 22 -10q10 -9 10 -22t-9 -23q-10 -9 -23 -9z" />
    <glyph glyph-name="uniE73F" unicode="&#xe73f;" 
d="M384 506h-192q-40 0 -68 28t-28 68v192q0 40 28 68t68 28h192q40 0 68 -28t28 -68v-192q0 -40 -28 -68t-68 -28zM192 826q-13 0 -22 -10q-10 -9 -10 -22v-192q0 -13 9 -23q10 -9 23 -9h192q13 0 22 9q10 10 10 23v192q0 13 -9 22q-10 10 -23 10h-192zM384 58h-192
q-40 0 -68 28t-28 68v192q0 40 28 68t68 28h192q40 0 68 -28t28 -68v-192q0 -40 -28 -68t-68 -28zM192 378q-13 0 -22 -10q-10 -9 -10 -22v-192q0 -13 9 -23q10 -9 23 -9h192q13 0 22 9q10 10 10 23v192q0 13 -9 22q-10 10 -23 10h-192zM832 58h-192q-40 0 -68 28t-28 68v64
q0 40 28 68t68 28h192q40 0 68 -28t28 -68v-64q0 -40 -28 -68t-68 -28zM640 250q-13 0 -22 -10q-10 -9 -10 -22v-64q0 -13 9 -23q10 -9 23 -9h192q13 0 22 9q10 10 10 23v64q0 13 -9 22q-10 10 -23 10h-192zM832 378h-192q-40 0 -68 28t-28 68v320q0 40 28 68t68 28h192
q40 0 68 -28t28 -68v-320q0 -40 -28 -68t-68 -28zM640 826q-13 0 -22 -10q-10 -9 -10 -22v-320q0 -13 9 -23q10 -9 23 -9h192q13 0 22 9q10 10 10 23v320q0 13 -9 22q-10 10 -23 10h-192z" />
    <glyph glyph-name="uniE742" unicode="&#xe742;" 
d="M896 730h-288q-13 0 -22 9q-10 10 -10 23t9 22q10 10 23 10h288q13 0 22 -10q10 -9 10 -22t-9 -23q-10 -9 -23 -9zM896 570h-288q-13 0 -22 9q-10 10 -10 23t9 22q10 10 23 10h288q13 0 22 -10q10 -9 10 -22t-9 -23q-10 -9 -23 -9zM896 314h-288q-13 0 -22 9
q-10 10 -10 23t9 22q10 10 23 10h288q13 0 22 -10q10 -9 10 -22t-9 -23q-10 -9 -23 -9zM896 154h-288q-13 0 -22 9q-10 10 -10 23t9 22q10 10 23 10h288q13 0 22 -10q10 -9 10 -22t-9 -23q-10 -9 -23 -9zM384 506h-192q-40 0 -68 28t-28 68v192q0 40 28 68t68 28h192
q40 0 68 -28t28 -68v-192q0 -40 -28 -68t-68 -28zM192 826q-13 0 -22 -10q-10 -9 -10 -22v-192q0 -13 9 -23q10 -9 23 -9h192q13 0 22 9q10 10 10 23v192q0 13 -9 22q-10 10 -23 10h-192zM384 58h-192q-40 0 -68 28t-28 68v192q0 40 28 68t68 28h192q40 0 68 -28t28 -68
v-192q0 -40 -28 -68t-68 -28zM192 378q-13 0 -22 -10q-10 -9 -10 -22v-192q0 -13 9 -23q10 -9 23 -9h192q13 0 22 9q10 10 10 23v192q0 13 -9 22q-10 10 -23 10h-192z" />
    <glyph glyph-name="uniE749" unicode="&#xe749;" 
d="M928 442h-832q-13 0 -22 9q-10 10 -10 23t9 22q10 10 23 10h832q13 0 22 -10q10 -9 10 -22t-9 -23q-10 -9 -23 -9zM832 58h-192q-13 0 -22 9q-10 10 -10 23t9 22q10 10 23 10h192q13 0 22 9q10 10 10 23v160q0 13 9 22q10 10 23 10t22 -10q10 -9 10 -22v-160
q0 -40 -28 -68t-68 -28zM352 58h-160q-40 0 -68 28t-28 68v160q0 13 9 22q10 10 23 10t22 -10q10 -9 10 -22v-160q0 -13 9 -23q10 -9 23 -9h160q13 0 22 -10q10 -9 10 -22t-9 -23q-10 -9 -23 -9zM128 602q-13 0 -22 9q-10 10 -10 23v160q0 40 28 68t68 28h160q13 0 22 -10
q10 -9 10 -22t-9 -23q-10 -9 -23 -9h-160q-13 0 -22 -10q-10 -9 -10 -22v-160q0 -13 -9 -23q-10 -9 -23 -9zM896 602q-13 0 -22 9q-10 10 -10 23v160q0 13 -9 22q-10 10 -23 10h-192q-13 0 -22 9q-10 10 -10 23t9 22q10 10 23 10h192q40 0 68 -28t28 -68v-160q0 -13 -9 -23
q-10 -9 -23 -9z" />
    <glyph glyph-name="uniE74F" unicode="&#xe74f;" 
d="M985 930h-911v-412h911v412zM880 610h-697v66h697v-66zM880 773h-697v61h697v-61zM153 453l-40 22l-70 -145l92 -53l41 79h147l-267 -276l97 -39l306 315h180l-259 -271l97 -44l298 315h105l-13 -219h-114v-96h223l13 412h-836z" />
    <glyph glyph-name="uniE752" unicode="&#xe752;" 
d="M953 78l-152 163q96 115 96 265q0 113 -56 209t-152 151q-96 56 -208 56q-113 0 -209 -56q-96 -55 -151 -151q-56 -96 -56 -209t55 -209q56 -95 152 -151t209 -56q90 0 172 37q12 6 16 18q5 13 0 25q-6 12 -18 16q-13 5 -25 0q-69 -32 -145 -32q-96 0 -177 47t-128 128
q-47 82 -47 177q0 96 47 177t128 128t176 47q96 0 177 -47t128 -128q48 -81 48 -177q0 -141 -98 -244q-10 -9 -10 -23q1 -13 10 -22q1 0 2 -1l1 -1q1 0 1 -2l2 -2l166 -177q9 -10 23 -10q12 0 22 9t10 22q1 13 -9 23z" />
    <glyph glyph-name="uniE765" unicode="&#xe765;" 
d="M104 382q42 9 82 24q40 16 83 38l43 22q15 7 31 7q16 1 26 -1q10 -1 44 -10q35 -9 57 -14q42 -9 75 -15q34 -6 47 -7l13 -1q10 -18 -1 -41t-34 -30q-34 -6 -88 -3q-55 4 -88 9q-12 2 -11 -11q0 -10 12 -22q20 -21 99 -45q27 -6 54 -5q28 2 48 7l21 5q99 56 164 71
q19 4 31 1q12 -2 17 -9q6 -7 8 -15q3 -7 2 -12v-6q-120 -80 -158 -100q-9 -5 -40 -27q-31 -21 -57 -34q-26 -12 -49 -10q-19 2 -136 26t-140 21q-10 -1 -25 -5q-15 -3 -35 -8t-31 -7q11 -17 22 -29q45 -45 135 -70q91 -24 187 -24q97 0 188 24q91 25 135 70q44 46 68 138
q25 93 25 191q0 99 -24 192q-25 93 -69 138t-135 69q-91 25 -187 25q-97 0 -187 -25q-91 -24 -136 -69q-54 -56 -77 -177q-23 -120 -9 -246zM400 571q0 15 10 25q11 11 26 11h303q15 0 25 -11q11 -10 11 -25v-4q0 -15 -10 -26q-11 -10 -26 -10h-303q-15 0 -25 10
q-11 11 -11 26v4zM400 724q0 15 10 25q11 11 26 11h303q15 0 25 -11q11 -10 11 -25v-4q0 -15 -10 -26q-11 -10 -26 -10h-303q-15 0 -25 10q-11 11 -11 26v4z" />
    <glyph glyph-name="uniE766" unicode="&#xe766;" 
d="M825 924h-626q-57 0 -97 -40t-40 -97v-626q0 -57 40 -97t97 -40h626q57 0 97 40t40 97v626q0 57 -40 97t-97 40zM335 754q31 -61 45 -127h-101q-18 66 -48 127h104zM332 194h-109q24 48 44 120t25 126h93q-1 -53 -16 -125q-16 -72 -37 -121v0zM284 470q-18 67 -48 129
h101q33 -61 48 -129h-101zM801 212h-299q-99 -5 -94 89v432h385v-73h-266v-339q-2 -43 38 -41h236v-68z" />
    <glyph glyph-name="uniE768" unicode="&#xe768;" 
d="M511 922q-95 0 -176 -47t-128 -129q-47 -81 -47 -176q0 -52 34 -127t76 -137q43 -62 98 -131q56 -69 80 -95t41 -44q9 -10 23 -10h1q14 0 23 11l109 125q219 268 219 408q0 95 -47 176q-47 82 -128 129q-82 47 -178 47zM512 410q-66 0 -113 47t-47 113t47 113t113 47
t113 -47t47 -113t-47 -113t-113 -47z" />
    <glyph glyph-name="uniE76E" unicode="&#xe76e;" 
d="M887 369l-353 350l-2 1v1q-10 9 -23 9t-22 -10l-350 -353q-10 -9 -10 -23q0 -13 9 -22q10 -9 23 -9q14 0 23 9l328 331l332 -330q10 -9 23 -9t22 9q10 10 10 23q0 14 -10 23z" />
    <glyph glyph-name="uniE771" unicode="&#xe771;" 
d="M163 697q-31 0 -44 -31q-14 -31 9 -54l349 -350q15 -15 35 -15t35 15l349 350q23 22 10 53q-13 32 -45 32h-698z" />
    <glyph glyph-name="uniE772" unicode="&#xe772;" 
d="M890 655q-9 9 -22 9q-14 0 -23 -9l-328 -331l-332 329q-10 10 -23 10t-22 -10q-10 -9 -10 -23q0 -13 10 -22l353 -350l2 -1v-1q10 -9 23 -9t22 9l350 354q10 9 10 22q0 14 -10 23z" />
    <glyph glyph-name="uniE775" unicode="&#xe775;" 
d="M761 454l1 1v0l1 2q7 13 5 28q-3 16 -15 27l-353 334q-15 14 -34 13q-20 0 -34 -15q-14 -14 -13 -34t15 -34l317 -299l-316 -305q-14 -13 -14 -33q-1 -20 13 -35q14 -14 35 -14q19 0 33 13l350 338v1v0l1 1q1 1 1 0l1 1q1 2 6 10z" />
    <glyph glyph-name="uniE778" unicode="&#xe778;" 
d="M512 26q-185 0 -316 131q-132 132 -132 317t131 316q132 132 317 132t316 -132q132 -131 132 -316t-131 -317q-132 -131 -317 -131zM512 858q-159 0 -271 -113q-113 -112 -113 -271t112 -272q113 -112 272 -112t271 112q113 113 113 272t-112 271q-113 113 -272 113z
M669 485v0q-3 6 -7 10v0v0l-159 160q-9 9 -22 9q-14 0 -23 -9q-10 -9 -10 -23q0 -13 10 -22l136 -137l-138 -136q-9 -9 -9 -23q0 -13 9 -23q10 -9 23 -9t22 10l161 158q15 15 7 35z" />
    <glyph glyph-name="uniE779" unicode="&#xe779;" 
d="M672 74q-20 0 -34 14l-352 352q-14 14 -14 34t14 34l352 352q14 14 34 14t34 -14t14 -34t-14 -34l-318 -318l318 -318q14 -14 14 -34t-14 -34t-34 -14z" />
    <glyph glyph-name="uniE7DA" unicode="&#xe7da;" 
d="M312 231q-46 0 -78 13q-33 13 -46 32q-14 20 -19 38q-5 19 -2 34q6 30 37 54q31 25 81 25q114 0 248 -65q-48 -63 -105 -97t-116 -34zM959 310v440q0 72 -50 122q-51 50 -122 50h-551q-71 0 -121 -50q-51 -50 -51 -122v-550q0 -71 50 -122q51 -50 122 -50h551
q63 0 110 40q48 41 59 101q-237 103 -346 155q-63 -76 -129 -114q-67 -38 -156 -38q-91 0 -147 49q-57 50 -49 120q2 21 8 40q7 20 23 42q17 22 41 37q25 15 66 22q41 8 93 3q23 -2 45 -6q23 -3 35 -5q13 -2 37 -9t30 -9q6 -1 36 -12q31 -10 36 -11q31 57 49 121h-347v35
h172v62h-210v37h210v90q2 14 17 14h86v-104h224v-37h-224v-62h182q-24 -101 -74 -186q24 -9 97 -32q74 -23 136 -42z" />
    <glyph glyph-name="uniE900" unicode="&#xe900;" 
d="M941 -64h-858q-34 0 -58.5 24.5t-24.5 58.5v0v858q0 34 24.5 58.5t58.5 24.5v0h858q34 0 58.5 -24.5t24.5 -58.5v0v-858q0 -34 -24.5 -58.5t-58.5 -24.5v0zM83 936q-24 0 -41.5 -17.5t-17.5 -41.5v0v-858q0 -24 17.5 -41.5t41.5 -17.5v0h858q24 0 41.5 17.5t17.5 41.5v0
v858q0 24 -17.5 41.5t-41.5 17.5v0h-858zM520 591h109v-353q1 -2 1 -4.5v-5.5q0 -7 -1 -14l-2 -14v1q-2 -2 -4.5 -4t-5.5 -4v0q-4 -1 -8.5 -2t-10.5 -1h-3t-4 1h1l-48 2q6 -11 12 -25t11 -28l1 -3q5 -17 9 -30h1.5h1.5q21 0 41 2.5t39 7.5l-2 -1q12 1 23.5 6.5t19.5 14.5v0
q3 7 4 15t1 17v3.5v2.5v0v416h22l81 -2v76l-81 -3h-208l-77 3v-76zM390 538l-48 -1h-91l-46 1v-75l46 1h60v-195v-3v-4q0 -8 -0.5 -15.5t-2.5 -15.5v1q-3 -6 -6.5 -11.5t-8.5 -9.5v0l13 -24q4 -7 31 -66q9 8 52 51q25 25 51 48t53 45l3 2l-7 28q-3 12 -10 55l-19 -19
q-16 -16 -34 -30t-37 -27l-3 -1v193zM321 620q18 -21 45 -56l14 13l30 31l16 15l-19 19l-50 54l-21 22q-13 -14 -28 -26t-31 -23l-1 -1q27 -27 45 -48v0z" />
    <glyph glyph-name="uniE901" unicode="&#xe901;" horiz-adv-x="811" 
d="M747 235q16 -16 40 -59t24 -91q0 -16 -13.5 -29t-29.5 -13h-235q-2 -23 -13 -38t-26 -31q-17 -18 -40 -28t-49 -10t-48.5 10t-40.5 28q-14 16 -25 31t-14 38h-234q-26 0 -34.5 21l-8.5 21q0 48 34.5 91t50.5 59q32 32 48 80t16 112q0 32 -1 70q-1 39 7 79t30 79
q23 38 71 70q19 12 44.5 25t40.5 18l-21 18.5t-21 66.5q0 32 21 69.5t85 37.5t85.5 -37.5t21.5 -69.5q0 -48 -20.5 -65.5t-22.5 -19.5l28 -12t58 -31q48 -32 70 -70q23 -39 31 -79t7 -79q-2 -38 -2 -70q0 -64 27 -112t59 -80v0zM451 899v0q-9 8 -20.5 13t-24.5 5t-25 -5
t-21 -13q-9 -9 -13.5 -20.5t-4.5 -24.5t4.5 -25t13.5 -21q9 -8 21 -13.5t25 -5.5t24.5 5.5t20.5 13.5q8 9 13 21t5 25t-5 24.5t-13 20.5v0zM491 683q-23 13 -42 17t-44 4t-44 -4t-41 -17q-40 -24 -62 -61q-21 -37 -31 -75t-12 -71t-2 -49q0 -32 -2.5 -75t-18.5 -75
t-61.5 -77t-45.5 -93h640q0 48 -45 93t-61 77t-19 75t-3 75q0 16 -1 49q-2 33 -12 71t-32 75q-21 37 -61 61v0zM448 43v0h-86q2 -8 5 -14.5t7 -11.5q6 -8 14 -12.5t17 -4.5t17 4.5t14 12.5q4 5 7 11.5t5 14.5v0v0z" />
    <glyph glyph-name="uniE902" unicode="&#xe902;" 
d="M941 -64h-858q-34 0 -58.5 24.5t-24.5 58.5v0v858q0 34 24.5 58.5t58.5 24.5v0h858q34 0 58.5 -24.5t24.5 -58.5v0v-858q0 -34 -24.5 -58.5t-58.5 -24.5v0zM83 936q-24 0 -41.5 -17.5t-17.5 -41.5v0v-858q0 -24 17.5 -41.5t41.5 -17.5v0h858q24 0 41.5 17.5t17.5 41.5v0
v858q0 24 -17.5 41.5t-41.5 17.5v0h-858zM393 716q-12 9 -24 19l-12 -18q-7 -9 -15 -17.5t-16 -15.5h-1q-11 -11 -23.5 -21t-25.5 -19l-2 -1q-14 -10 -30.5 -18.5t-34.5 -15.5h-2q22 -33 27 -44q5 -10 11 -23q45 25 53 30q9 6 22 15v-88l-2 -39h77l-1 39v86l1 44h-19l63 60
q-13 7 -24.5 13.5t-22.5 13.5h1v0zM431 609l15 -26q5 -9 9.5 -19t7.5 -21l1 -3l50 13v-28q0 -6 1 -12.5t2 -12.5v1q2 -6 5.5 -11t7.5 -9v0q8 -5 17.5 -8t19.5 -4v0q18 -1 38.5 -2t40.5 -1h13h12h-1q77 0 87 2q6 2 11.5 4.5t10.5 6.5v0q6 6 11 13t9 15v1q9 20 24 52
q-21 8 -39.5 16.5t-35.5 19.5l2 -2l-7 -25q-1 -6 -3 -10.5t-6 -8.5v0q-2 -3 -5 -6t-7 -5v0q-3 -1 -6.5 -1.5t-7.5 -0.5h-0.5h-1.5v0q-10 -1 -21.5 -1h-23.5h-24t-24 1h2q-6 0 -11 1.5t-10 4.5v0q-1 2 -2 4.5t-1 5.5v0v0v0v22q85 28 111 38q26 9 71 28l-18 18
q-9 11 -17.5 22.5t-16.5 24.5v1l-25 -15q-8 -4 -45 -22q-12 -6 -27 -11.5t-30 -10.5l-4 -1v34l2 38h-80l2 -38v-54q-18 -6 -39 -10.5t-43 -6.5h-1v-1zM509 350q-10 2 -24 7l-3 -27q-3 -24 -10.5 -45.5t-19.5 -39.5v1q-16 -23 -40.5 -37.5t-53.5 -17.5h-1q-25 -5 -54.5 -7.5
t-59.5 -3.5h-1l17 -30q4 -10 7.5 -21t5.5 -23v-2q58 7 98 16q23 5 43.5 13t39.5 18l-2 -1q20 11 36 24.5t29 30.5h1q11 14 19.5 30.5t13.5 34.5v2q9 33 17 72q-49 5 -58 7v-1zM307 396v-139l-2 -44h82l-2 44v117h265v-107l-2 -41h80l-1 43v126l1 48l-71 -3h-275l-77 3z
M684 211q-71 23 -112 38q-6 -12 -12 -22.5t-13 -19.5l1 1q-8 -10 -19 -22q70 -21 130.5 -44.5t117.5 -50.5l-9 4q4 14 9 25l10 22l-1 -3q7 13 17 30q-47 18 -119 42v0z" />
    <glyph glyph-name="uniE903" unicode="&#xe903;" horiz-adv-x="809" 
d="M72 -25v-1.5v-1.5q0 -15 -10.5 -25.5t-25.5 -10.5t-25.5 10.5t-10.5 25.5v1.5v1.5v0v2.5v2.5q0 46 17 87.5t47 72.5v0q32 33 74 54t90 28h1q6 0 11.5 3t10.5 7v0q2 3 3.5 6.5t2.5 6.5v1q-25 22 -38.5 51.5t-23.5 55.5q-4 11 -7.5 20t-8.5 18l1 -2h-1q-15 16 -27 35
t-20 40v1q-4 11 -6.5 23t-2.5 25q0 14 3 27.5t9 25.5v0q-7 21 -10.5 44.5t-3.5 49.5v0.5v0.5v0v2.5v3.5q0 32 5 63t14 60l-1 -3l2 3q10 38 32 69.5t51 54.5h1q30 22 66.5 34t76.5 12h1.5h1.5v0h6.5h7.5q17 0 33 -1.5t32 -4.5l-2 1q24 -4 45 -16.5t34 -31.5h1q28 3 52 -12.5
t44 -40.5q21 -28 36 -61.5t22 -69.5l1 -3q1 -9 1.5 -19t0.5 -21t-0.5 -21.5t-2.5 -20.5l1 2q-3 -20 -6.5 -38t-8.5 -35l1 3q7 -12 11 -27t4 -31q0 -12 -2.5 -24t-6.5 -22v1q-8 -23 -20 -42t-28 -35h1q-5 -7 -9 -16t-7 -18v-1q-10 -27 -22.5 -55.5t-37.5 -51.5q0 -4 1.5 -8
t4.5 -8v1q4 -5 9.5 -7.5t12.5 -3.5v0q49 -6 91 -27.5t74 -54.5v0q29 -31 46 -72.5t17 -87.5v-3v-2v0v-1.5v-1.5q0 -15 -10 -25.5t-25 -10.5t-25.5 10.5t-10.5 25.5v1.5v1.5v0v1.5v1.5q0 30 -11 57t-31 48v0q-23 24 -54 40t-67 20h-1q-20 2 -36.5 11t-29.5 23v0
q-15 15 -26.5 60t15.5 63q19 13 30 36.5t19 45.5q7 20 14.5 37t19.5 29v0v0q9 9 16.5 20.5t12.5 24.5v1q2 3 3 7.5t1 9.5q0 6 -2 11.5t-5 10.5v0q-5 6 -7.5 14.5t-2.5 17.5q0 4 0.5 7.5t1.5 7.5v-1q5 15 9 33t6 36v2q1 7 1.5 14.5t0.5 14.5q0 36 -12 68t-33 57v0
q-9 12 -18.5 19t-17.5 6q-2 0 -4.5 -0.5t-4.5 -0.5q-8 0 -14.5 2t-12.5 5v0q-8 4 -14 10t-11 13v0l-2 3q-7 7 -16 12t-19 6v0q-10 1 -22 2t-24 1h-8.5h-9.5h1h-2.5h-3.5q-29 0 -55 -8.5t-47 -23.5v0q-20 -16 -34.5 -37.5t-21.5 -46.5v-1l-1 -3q-7 -21 -11 -45.5t-4 -50.5
v-1.5v-1.5v0v0v-1q0 -22 4 -43t10 -40v1q2 -3 3 -8t1 -10v-4v-3v0q-3 -20 -11.5 -28t-0.5 -33q5 -13 12 -24.5t17 -21.5h-1l2 -2q11 -13 19 -29t14 -34v-1q8 -23 19 -46.5t30 -36.5q9 -5 14 -14t5 -19v-1v-1v0q0 -25 -5.5 -47t-22.5 -40q-13 -14 -30 -23t-36 -11h-1
q-36 -4 -66.5 -20t-54.5 -40v0q-19 -21 -30.5 -47.5t-11.5 -57.5l0.5 -1t0.5 -2v0v0z" />
    <glyph glyph-name="uniE904" unicode="&#xe904;" 
d="M583 822l-28 28l-52 -51l29 -29zM546 830l10 -6q-5 -11 -10 -20.5t-11 -18.5l1 2l-10 5q5 8 10 17t10 19v2v0zM572 730l51 52l-29 28l-51 -51zM597 786l6 -10q-8 -6 -17 -11.5t-19 -10.5l-1 -1l-6 11q11 5 20 10.5t17 12.5v-1v0zM574 960h-574l1024 -1024v587zM792 648
q2 -12 3 -25t1 -27v-9.5t-1 -8.5v1h-21q1 4 1 9v10q0 13 -1 26t-4 26l1 -2h21zM428 752q8 -8 19 -18t24 -22l18 18l-38 38l12 13l38 -39l17 18l-39 39l75 75l93 -93l-75 -75l-40 40l-17 -17l38 -39l-12 -12l-39 38l-17 -17q29 -26 44 -39l-12 -12q-38 30 -101 90zM366 695
q14 6 25.5 13.5t22.5 16.5h-1l12 -14q-11 -10 -23.5 -18t-25.5 -14h-1zM400 659q9 9 17 19t16 21l1 1l13 -11q-8 -11 -16 -21.5t-17 -19.5v0zM432 632q7 11 13.5 21.5t12.5 22.5l15 -8q-7 -13 -13 -24.5t-13 -21.5l1 1zM546 508q6 37 19.5 69.5t33.5 60.5l-1 -1
q-26 -19 -57 -33t-65 -22h-3l1 20h2l-14 7q6 9 11.5 20t10.5 22l1 3l14 -8q-6 -13 -11 -24t-11 -21l1 2q42 11 77.5 30.5t65.5 46.5v0l-28 27l15 14l27 -27q38 37 58 56l14 -15q-6 -6 -20.5 -20t-36.5 -36l37 -38l-14 -14l-37 36q-62 -82 -68 -154zM718 711
q-2 -15 -4.5 -28.5t-6.5 -26.5l1 2l-18 3q3 12 6 25t5 27v2zM624 478q1 -1 1.5 -1h1.5q3 0 6 1.5t5 3.5l83 83l-31 31l14 14l46 -45l-93 -93q25 -2 47 -3l-12 -19q-20 0 -39.5 2.5t-38.5 6.5l3 -1zM856 487q-65 -98 -71 -187l-24 -2q6 44 20.5 84t35.5 76l-2 -2l-20 -14
q-25 -17 -56.5 -27t-65.5 -10q-5 0 -11 0.5t-12 0.5h1l2 23q5 0 9.5 -0.5t10.5 -0.5q30 0 57.5 8t51.5 23l-1 -1q31 21 58.5 44t51.5 48v1l16 -16q-27 -27 -52 -48h1z" />
    <glyph glyph-name="uniE905" unicode="&#xe905;" 
d="M512 960q106 0 199 -40q94 -40 163.5 -109.5t109.5 -163.5q40 -93 40 -199t-40 -199q-40 -94 -109.5 -163.5t-163.5 -109.5q-93 -40 -199 -40t-199 40q-94 40 -163.5 109.5t-109.5 163.5q-40 93 -40 199v0q0 106 40 199q40 94 109.5 163.5t163.5 109.5q93 40 199 40v0z
M240 458l-35 -40l191 -200h12l411 400l-29 35l-382 -315h-12z" />
    <glyph glyph-name="uniE906" unicode="&#xe906;" 
d="M512 -64q-106 0 -199 40q-94 40 -163.5 109.5t-109.5 163.5q-40 93 -40 199t40 199q40 94 109.5 163.5t163.5 109.5q93 40 199 40t199 -40q94 -40 163.5 -109.5t109.5 -163.5q40 -93 40 -199v0q0 -106 -40 -199q-40 -94 -109.5 -163.5t-163.5 -109.5q-93 -40 -199 -40v0z
M512 896q-93 0 -174 -35q-82 -35 -143 -96t-96 -143q-35 -81 -35 -174t35 -174q35 -82 96 -143t143 -96q81 -35 174 -35t174 35q82 35 143 96t96 143q35 81 35 174v0q0 93 -35 174q-35 82 -96 143t-143 96q-81 35 -174 35v0zM837 595l-405 -403l-229 243l90 90l147 -146
l307 306z" />
    <glyph glyph-name="uniE907" unicode="&#xe907;" 
d="M512 768v0v0q53 0 91 -37.5t38 -90.5t-38 -90.5t-91 -37.5t-90.5 37.5t-37.5 90.5v0v0v0q0 53 37.5 90.5t90.5 37.5v0zM241 507v0q-12 28 -19 60t-7 65v0v0.5v0.5q0 63 23.5 118.5t63.5 97.5v0q40 41 94 65.5t116 24.5t116 -24.5t94 -65.5v0q40 -42 63.5 -97.5
t23.5 -118.5v0v-1v0v0v0q0 -34 -7 -66t-19 -61v2h104q9 0 15.5 -6t7.5 -15v0l92 -501q0 -1 0.5 -2t0.5 -2q0 -9 -5.5 -15.5t-13.5 -8.5v0h-2h-2h-935q-10 0 -17 7t-7 17v0v0v0q0 2 0.5 4t0.5 3v0l92 500q2 8 8.5 13.5t14.5 5.5v0h104v0zM267 459h-111l-71 -438h854l-71 438
h-111l-5 -8q-25 -35 -59.5 -62.5t-75.5 -43.5h-2l-72 -97q-5 -8 -13 -12.5t-18 -4.5q-9 0 -17.5 4.5t-12.5 11.5l-1 1l-71 97q-43 16 -77.5 43t-59.5 62l-1 1l-5 8v0zM678 804v0q-31 32 -74 51.5t-92 19.5t-91.5 -19.5t-74.5 -51.5v0q-32 -33 -50.5 -77t-18.5 -94
q0 -40 12 -76t34 -66v0q21 -30 50.5 -52.5t64.5 -34.5h2q6 -2 11.5 -6t9.5 -9v0l51 -69l52 69v0q4 5 9 8.5t11 5.5v0q37 13 66.5 35.5t51.5 52.5v0q21 30 33 66t12 76q0 50 -18.5 93.5t-50.5 77.5h1h-1zM512 720v0v0v0q-34 0 -57.5 -23.5t-23.5 -56.5t23.5 -56.5t57.5 -23.5
q33 0 56.5 23.5t23.5 56.5v0v0v0q0 33 -23.5 56.5t-56.5 24.5v0v-1z" />
    <glyph glyph-name="uniE908" unicode="&#xe908;" 
d="M512 960q-106 0 -199 -40q-94 -40 -163.5 -109.5t-109.5 -163.5q-40 -93 -40 -199t40 -199q40 -94 109.5 -163.5t163.5 -109.5q93 -40 199 -40t199 40q94 40 163.5 109.5t109.5 163.5q40 93 40 199v0q0 106 -40 199q-40 94 -109.5 163.5t-163.5 109.5q-93 40 -199 40v0z
M739 272q5 -5 8 -11.5t3 -14.5q0 -16 -11 -26.5t-26 -10.5q-8 0 -14.5 2.5t-11.5 7.5v0l-176 176l-175 -175q-5 -6 -11.5 -8.5t-14.5 -2.5q-16 0 -26.5 10.5t-10.5 26.5q0 8 2.5 14.5t8.5 11.5v0l175 176l-175 176q-5 5 -8 11.5t-3 14.5q0 15 11 26t26 11q8 0 14.5 -3
t11.5 -7v0l175 -176l176 176q5 5 11.5 8t14.5 3q15 0 26 -11t11 -27q0 -7 -3 -14t-8 -12v0l-175 -176z" />
    <glyph glyph-name="uniE909" unicode="&#xe909;" 
d="M512 -64q-106 0 -199 40q-94 40 -163.5 109.5t-109.5 163.5q-40 93 -40 199t40 199q40 94 109.5 163.5t163.5 109.5q93 40 199 40t199 -40q94 -40 163.5 -109.5t109.5 -163.5q40 -93 40 -199v0q0 -106 -40 -199q-40 -94 -109.5 -163.5t-163.5 -109.5q-93 -40 -199 -40v0z
M512 896q-93 0 -174 -35q-82 -35 -143 -96t-96 -143q-35 -81 -35 -174t35 -174q35 -82 96 -143t143 -96q81 -35 174 -35t174 35q82 35 143 96t96 143q35 81 35 174v0q0 93 -35 174q-35 82 -96 143t-143 96q-81 35 -174 35v0zM781 269l-90 -90l-179 178l-179 -178l-90 90
l178 179l-178 179l90 90l179 -178l179 178l90 -90l-178 -179z" />
    <glyph glyph-name="uniE90A" unicode="&#xe90a;" 
d="M448 752h128v-432h-128v432zM512 264q27 0 45.5 -18.5t18.5 -45.5t-18.5 -45.5t-45.5 -18.5t-45.5 18.5t-18.5 45.5v0q0 27 18.5 45.5t45.5 18.5v0zM512 -64q-106 0 -199 40q-94 40 -163.5 109.5t-109.5 163.5q-40 93 -40 199t40 199q40 94 109.5 163.5t163.5 109.5
q93 40 199 40t199 -40q94 -40 163.5 -109.5t109.5 -163.5q40 -93 40 -199v0q0 -106 -40 -199q-40 -94 -109.5 -163.5t-163.5 -109.5q-93 -40 -199 -40v0zM512 896q-93 0 -174 -35q-82 -35 -143 -96t-96 -143q-35 -81 -35 -174t35 -174q35 -82 96 -143t143 -96
q81 -35 174 -35t174 35q82 35 143 96t96 143q35 81 35 174v0q0 93 -35 174q-35 82 -96 143t-143 96q-81 35 -174 35v0z" />
    <glyph glyph-name="uniE90B" unicode="&#xe90b;" 
d="M512 -64q-106 0 -199 40q-94 40 -163.5 109.5t-109.5 163.5q-40 93 -40 199t40 199q40 94 109.5 163.5t163.5 109.5q93 40 199 40t199 -40q94 -40 163.5 -109.5t109.5 -163.5q40 -93 40 -199v0q0 -106 -40 -199q-40 -94 -109.5 -163.5t-163.5 -109.5q-93 -40 -199 -40v0z
M512 911q-96 0 -180 -36q-85 -37 -147.5 -99.5t-99.5 -147.5q-36 -84 -36 -180t36 -180q37 -85 99.5 -147.5t147.5 -99.5q84 -36 180 -36t180 36q85 37 147.5 99.5t99.5 147.5q36 84 36 180v0q0 96 -36 180q-37 85 -99.5 147.5t-147.5 99.5q-84 36 -180 36v0z" />
    <glyph glyph-name="uniE90C" unicode="&#xe90c;" horiz-adv-x="1010" 
d="M58 57q-12 13 -19.5 30.5t-7.5 37.5q0 19 7.5 36.5t20.5 30.5v0l118 120q28 28 69 23.5t69 -32.5l73 -74q25 -26 45 -17.5t85 60.5q0 1 28 28t61 60.5t61 60.5q28 28 28 29q30 37 35 57.5t-22 47.5l-81 82q-12 13 -19.5 30.5t-7.5 36.5q0 20 7.5 37.5t20.5 30.5v0
l118 120q13 13 30 20.5t36 7.5q20 0 37 -7.5t30 -19.5v0q11 -12 34.5 -36t45.5 -47q19 -22 38 -72q20 -51 9.5 -128t-66.5 -180t-188 -232q-138 -134 -245 -191t-185.5 -68t-128.5 10t-72 44l-20 19q-6 7 -19.5 20.5l-24.5 24.5v0v0zM500 765q0 -1 0.5 -2.5t0.5 -3.5
q0 -8 -5 -14t-12 -7v0q-33 -8 -74.5 -16t-101.5 -70q-46 -46 -60.5 -95t-21.5 -82q-1 -8 -7 -13t-14 -5h-3.5t-2.5 1v0q-8 1 -13 7.5t-5 15.5v2v2v0q8 39 23.5 92t69.5 108q60 61 109.5 74.5t88.5 22.5q1 0 2 0.5t3 0.5q8 0 14.5 -5t8.5 -13v0v0zM19 446q-8 2 -13.5 8.5
t-5.5 14.5v2v2v0q12 59 32.5 135.5t127.5 185.5q49 50 93 79q45 30 83.5 46.5t72.5 24.5t62 15q1 1 2.5 1h3.5q8 0 14 -5t9 -12v0q0 -2 0.5 -3.5t0.5 -3.5q0 -7 -5 -13t-12 -8v0q-26 -6 -59 -15t-70.5 -26t-78.5 -44q-41 -26 -82 -68q-42 -43 -68 -85q-27 -42 -43 -81
t-24 -73t-13 -60q-1 -3 -2.5 -6t-3.5 -5v0q-3 -3 -7 -5t-9 -2q-1 0 -2.5 0.5t-2.5 0.5v0v0z" />
    <glyph glyph-name="uniE90D" unicode="&#xe90d;" horiz-adv-x="1320" 
d="M376 960h944v-130h-944v130zM0 960h214v-130h-214v130zM0 513h214v-130h-214v130zM0 66h214v-130h-214v130zM376 513h944v-130h-944v130zM376 66h944v-130h-944v130z" />
    <glyph glyph-name="uniE90E" unicode="&#xe90e;" horiz-adv-x="955" 
d="M633 -64v0v0q-10 0 -18 4.5t-13 12.5v0l-216 338q-3 5 -4.5 10t-1.5 10q0 15 10.5 26t26.5 11q9 0 17 -4.5t13 -12.5v0l217 -339q3 -4 4.5 -9t1.5 -11q0 -15 -11 -25.5t-26 -10.5v0v0zM417 274v0v0q-3 0 -5.5 0.5t-5.5 1.5v0l-379 110q-12 4 -19 13.5t-7 22.5
q0 15 10.5 25.5t25.5 10.5q3 0 5.5 -0.5t5.5 -0.5v0l379 -111q11 -3 18.5 -12.5t7.5 -22.5q0 -15 -10.5 -26t-25.5 -11v0v0zM37 386q-16 0 -26.5 10.5t-10.5 25.5q0 11 5 19t13 13v0l883 501q3 2 8 3.5t10 1.5q15 0 25.5 -11t10.5 -26q0 -10 -5 -18.5t-13 -13.5v0l-882 -500
q-4 -3 -8.5 -4t-9.5 -1v0v0zM730 274v0v0q-15 0 -26 10.5t-11 25.5q0 3 0.5 6t1.5 5v0l187 608q4 11 13.5 18.5t21.5 7.5q15 0 26 -11t11 -26q0 -3 -0.5 -5.5t-1.5 -5.5v1l-187 -608q-3 -11 -13 -18.5t-22 -7.5v0v0z" />
    <glyph glyph-name="uniE90F" unicode="&#xe90f;" horiz-adv-x="1072" 
d="M841 -64v0h-1q-5 0 -10.5 1.5t-9.5 3.5v0l-284 149l-283 -149q-5 -2 -10 -3.5t-11 -1.5q-18 0 -30.5 13t-12.5 31v3.5v3.5v0l54 316l-230 224q-6 6 -9.5 14t-3.5 18q0 16 10.5 28t26.5 15v0l318 46l142 288q5 11 15.5 17.5t23.5 6.5v0v0v0v0v0q13 0 23.5 -6.5t15.5 -17.5
v0l142 -288l318 -46q16 -2 26.5 -14.5t10.5 -28.5q0 -9 -3.5 -17t-9.5 -14v0l-230 -224l54 -317q1 -1 1 -3v-4q0 -18 -12.5 -31t-30.5 -13v0v0zM536 163v0v0q6 0 11 -1.5t10 -4.5v1l250 -132l-48 279q0 1 -0.5 3t-0.5 4q0 9 4 17t10 14v0l202 198l-280 40q-10 2 -19 8
t-13 15h-1l-125 255l-125 -253q-5 -10 -13.5 -16t-19.5 -7v0l-280 -42l203 -197q6 -6 9.5 -14.5t3.5 -17.5q0 -2 -0.5 -3.5t-0.5 -3.5v0l-48 -279l251 130q4 3 9 4.5t11 2.5v0v0z" />
    <glyph glyph-name="uniE910" unicode="&#xe910;" horiz-adv-x="1072" 
d="M544 921l148 -300q1 -2 3 -3.5t4 -1.5v0l331 -48q3 -1 5.5 -3.5t2.5 -5.5q0 -2 -1 -4t-2 -3v0l-239 -233q-2 -2 -2.5 -3.5t-0.5 -3.5v-0.5v-1.5v0l57 -329v-0.5v-0.5q0 -4 -3 -6.5t-7 -2.5h-2t-2 1v0l-296 155q0 1 -1.5 1h-2.5h-2t-2 -1v0l-296 -155q-1 -1 -2 -1h-2
q-4 0 -6.5 2.5t-2.5 6.5v0.5v0.5v0l56 329v1.5v0.5q0 2 -0.5 3.5t-2.5 3.5v0l-239 233q-1 1 -2 3t-1 4q0 3 2.5 5.5t5.5 3.5v0l331 48q2 0 4 1.5t3 3.5v0l148 300q1 2 3.5 3t4.5 1q3 0 5 -1t3 -3v0v0zM841 -64v0h-1q-5 0 -10.5 1.5t-9.5 3.5v0l-284 149l-283 -149
q-5 -2 -10 -3.5t-11 -1.5q-18 0 -30.5 13t-12.5 31v3.5v3.5v0l54 316l-230 224q-6 6 -9.5 14t-3.5 18q0 16 10.5 28t26.5 15v0l318 46l142 288q5 11 15.5 17.5t23.5 6.5v0v0v0v0v0q13 0 23.5 -6.5t15.5 -17.5v0l142 -288l318 -46q16 -2 26.5 -14.5t10.5 -28.5q0 -9 -3.5 -17
t-9.5 -14v0l-230 -224l54 -317q1 -1 1 -3v-4q0 -18 -12.5 -31t-30.5 -13v0v0zM536 163v0v0q6 0 11 -1.5t10 -4.5v1l250 -132l-48 279q0 1 -0.5 3t-0.5 4q0 9 4 17t10 14v0l202 198l-280 40q-10 2 -19 8t-13 15h-1l-125 255l-125 -253q-5 -10 -13.5 -16t-19.5 -7v0l-280 -42
l203 -197q6 -6 9.5 -14.5t3.5 -17.5q0 -2 -0.5 -3.5t-0.5 -3.5v0l-48 -279l251 130q4 3 9 4.5t11 2.5v0v0z" />
    <glyph glyph-name="uniE912" unicode="&#xe912;" 
d="M512 960q-106 0 -199 -40q-94 -40 -163.5 -109.5t-109.5 -163.5q-40 -93 -40 -199t40 -199q40 -94 109.5 -163.5t163.5 -109.5q93 -40 199 -40t199 40q94 40 163.5 109.5t109.5 163.5q40 93 40 199v0q0 106 -40 199q-40 94 -109.5 163.5t-163.5 109.5q-93 40 -199 40v0z
M512 9q-91 0 -171 35q-80 34 -139.5 93.5t-93.5 139.5q-35 80 -35 171t35 171q34 80 93.5 139.5t139.5 93.5q80 35 171 35t171 -35q80 -34 139.5 -93.5t93.5 -139.5q35 -80 35 -171v0q0 -91 -35 -171q-34 -80 -93.5 -139.5t-139.5 -93.5q-80 -35 -171 -35v0zM475 741h74
v-439h-74v439v0zM475 229h74v-74h-74v74v0z" />
    <glyph glyph-name="uniE913" unicode="&#xe913;" 
d="M939 571l-219 218q-5 6 -12 9t-15 3t-15 -3t-13 -9v0l-77 -77l273 -273l78 77q5 5 8 12t3 15t-3 15t-8 13v0v0zM411 792q-5 5 -12 8t-15 3t-15.5 -3t-12.5 -8v0l-273 -274q-5 -5 -8.5 -12t-3.5 -15t3.5 -15t8.5 -12l383 -383q5 -5 12 -8.5t15 -3.5t15 3.5t12 8.5l28 27
l-192 192l42 41l192 -191l40 40l-192 192l42 41l191 -191l41 40l-192 192l42 42l192 -192l40 40q5 6 8 13t3 15t-3 15t-8 12v0l-383 383v0zM543 20q-10 -10 -23.5 -16t-29.5 -6q-15 0 -28.5 6t-23.5 16l-416 416q-10 10 -16 23.5t-6 28.5q0 16 6 29t16 23l312 313
q10 10 23.5 16t28.5 6q16 0 29 -6t23 -16l100 -100l100 100q10 10 23.5 16t28.5 6t28.5 -6t23.5 -16l260 -260q10 -10 16 -23.5t6 -29.5q0 -15 -6 -28.5t-16 -23.5v0l-459 -468v0z" />
    <glyph glyph-name="uniE914" unicode="&#xe914;" 
d="M789 768v0q-1 17 -13 29t-29 14v0h-107q-1 23 -8.5 44.5t-20.5 38.5v0q-18 20 -44 32t-55 12q-30 0 -55.5 -12t-43.5 -32v0q-13 -17 -20.5 -38.5t-8.5 -44.5v0h-107q-17 -2 -29 -14t-13 -29v0h-43q-34 -2 -58.5 -26.5t-26.5 -58.5v0v-640q2 -35 26.5 -59t58.5 -27v0h640
q34 3 58.5 27t26.5 58v1v640q-2 34 -26.5 58.5t-58.5 26.5v0h-43v0zM443 861v0q12 15 30 24.5t39 10.5v0q21 -1 38.5 -10.5t29.5 -24.5v0q8 -9 12.5 -21t4.5 -26v-2v-2v1h-170v1.5v2.5q0 13 4 25t12 21v0v0zM298 768h428q15 0 18 -2.5t3 -18.5v-22q0 -16 -3 -18.5t-19 -2.5
h-428q-12 0 -16 2.5t-4 18.5v22q0 16 3 18.5t18 2.5v0zM810 21h-597q-17 2 -29 14t-13 29v0v143v186.5v171.5v96q1 18 13 30t29 13v0h22q1 -17 13 -29t29 -14v0h470q17 2 29 14t13 29v0h22q17 -1 29 -13.5t13 -29.5v0v-596q0 -17 -12.5 -30t-30.5 -14v0v0zM309 299v0
q-13 -1 -22.5 -10t-9.5 -22q0 -14 9.5 -23t22.5 -9t22.5 9t9.5 23v0v0v0q0 13 -9 22.5t-23 9.5v0v0v0v0zM725 469h-320q-9 -4 -15 -12.5t-6 -19.5q0 -10 6 -19t15 -13v0h320q10 4 16 13t6 19q0 11 -6 19.5t-15 12.5h-1v0zM309 469v0q-13 0 -22 -9.5t-9 -22.5t9 -22t22 -9
q14 0 23 9t9 22v0.5v0.5v0q0 13 -9.5 22t-22.5 9v0v0v0v0zM683 299h-278q-9 0 -15 -9t-6 -23q0 -2 -0.5 -3t-0.5 -3q0 -9 6.5 -16.5t15.5 -9.5v0h278q9 2 15 9.5t6 17.5v2.5v2.5v0q0 1 0.5 2.5t0.5 2.5q0 10 -6.5 17.5t-15.5 9.5v0v0z" />
    <glyph glyph-name="uniE915" unicode="&#xe915;" 
d="M939 885h-854q-34 -2 -58.5 -26.5t-26.5 -58.5v0v-704q2 -34 26.5 -58.5t58.5 -26.5v0h854q34 2 58.5 26.5t26.5 58.5v0v704q-2 34 -26.5 58.5t-58.5 26.5v0zM960 267v0h-47h-108h-116h-73v0q-14 0 -16.5 2.5t-2.5 18.5v213q0 16 3 29.5t19 13.5h341v-277v0zM960 587
h-363v0h-1q-17 0 -29 -12.5t-12 -29.5v-0.5v-0.5v0v-277v-1v0q0 -18 12 -30t29 -12h1v0v0h363v-107q-1 -17 -13 -29t-30 -13v0h-810q-18 1 -30 13t-13 29v0v662q1 17 13 29t30 13v0h810q18 -1 30 -13t13 -29v0v-192v0zM778 309v0h1v0q20 0 37.5 7.5t30.5 20.5v0
q13 13 20.5 30.5t7.5 37.5t-7.5 37t-19.5 30v0l-1 2q-13 13 -30.5 20.5t-37.5 7.5h-0.5h-0.5v0v0v0q-19 0 -36 -7.5t-29 -19.5v0l-2 -1q-13 -13 -20.5 -30.5t-7.5 -37.5v-0.5v-0.5v0v0v0q0 -20 7.5 -37.5t20.5 -30.5v0q13 -13 30.5 -20.5t36.5 -7.5v0v0zM743 441v0l1 1
q7 7 16 10.5t19 3.5t19.5 -4t16.5 -11v0v-1q7 -6 10.5 -15t3.5 -20v0v0v0q0 -10 -4 -19t-10 -17v0q-7 -6 -16.5 -10t-20.5 -4v0q-10 0 -19 4t-16 10v0q-7 7 -11 16.5t-4 19.5v0v0.5v0.5q0 10 4 19.5t11 15.5v0v0z" />
    <glyph glyph-name="uniE916" unicode="&#xe916;" 
d="M523 939l362 -192q7 -5 12 -10t9 -11l1 -1l106 -213q-1 -13 -6.5 -23.5t-14.5 -19.5v0l-85 -42v-235l-22 -21l-362 -214h-43l-341 214l-22 21v235l-85 42q-10 5 -16 14.5t-6 21.5v4t1 3v0l106 213q4 7 9.5 12.5t11.5 9.5h1l341 192h43v0zM480 405l-43 -106q-6 -12 -24 -6
l-18 6l-214 106v-192l299 -170v362v0zM480 875l-299 -171l299 -171v342v0zM523 875v-342l320 171zM523 405v-362l320 170v192l-214 -106l-18 -6t-24 6zM864 661l-341 -170l85 -150l341 171zM416 341l64 150l-320 170l-85 -149z" />
    <glyph glyph-name="uniE917" unicode="&#xe917;" 
d="M792 209q16 0 28 -12t12 -28q0 -17 -12 -29t-29 -12q-16 0 -28 12t-12 28v0q0 17 12 29t29 12v0v0zM661 395h278l-86 128h-192v-128zM916 352h-255v-149q16 0 34.5 -9.5t18.5 -24.5v-1v0q0 -16 6 -29.5t17 -24.5v0v0v0q10 -10 24 -16t30 -6h0.5h0.5v0v0v0q16 0 29.5 5.5
t24.5 15.5v0l1 1q10 11 16.5 24.5t6.5 28.5v2q0 16 15 25t32 9h43v106q0 32 -5.5 37.5t-38.5 5.5v0zM960 139v0q-10 -24 -23.5 -44.5t-31.5 -37.5v0l-2 -2q-22 -21 -50.5 -32.5t-60.5 -11.5v0v0v0h-1v0q-33 0 -61.5 12t-50.5 34v0v0q-15 14 -37.5 40t-22.5 42h-171
q0 -16 -18 -42t-33 -40q-21 -22 -50 -34t-61 -12h-1v0v0h-1.5h-1.5q-57 0 -100.5 36.5t-53.5 90.5v1h-43q-34 2 -58.5 26.5t-26.5 58.5v0v576q2 34 26.5 58.5t58.5 26.5v0h491q34 -2 58.5 -26.5t26.5 -58.5v0v-213h192q16 0 21.5 -3t21.5 -19l30.5 -45t54.5 -83
q7 -9 25 -36.5l18 -27.5v-192q-1 -17 -13 -29t-30 -13v0h-21v0zM555 821h-449q-17 -1 -29 -13t-13 -29v0v-533q1 -17 13 -29.5t29 -13.5v0h65h2h2q13 0 22.5 -9.5t9.5 -22.5v-1.5v-1.5v1v-0.5v-0.5q0 -16 6 -29.5t16 -24.5v0q11 -10 25 -16t30 -6t30.5 6t24.5 16v0
q11 11 17 24.5t6 28.5v0v2q2 14 12.5 24t25.5 10h3h3h-1h150q17 1 29.5 13.5t12.5 30.5v0v89v102.5v85.5v35v2v26v60.5v72.5v58q-1 18 -13 30t-29 13v0v0zM285 209v0q16 0 28 -12t12 -28q0 -17 -12 -29t-29 -12t-28.5 12t-11.5 28v0q0 17 12 29t29 12v0v0v0v0z" />
    <glyph glyph-name="uniE918" unicode="&#xe918;" 
d="M96 939q-34 -3 -58.5 -27t-26.5 -58v-1v-106q2 -17 13.5 -29t28.5 -14v0v-661q3 -35 27 -59t58 -27h1h746q35 3 59 27t27 58v1v661q16 2 28 14t14 28v1v106q-2 35 -26.5 59t-58.5 27v0h-832v0zM861 21h-700q-17 2 -29.5 14t-14.5 29v0v640h790v-639q-1 -18 -14.5 -30.5
t-31.5 -13.5v0v0zM949 768h-874v67q2 16 13.5 27t28.5 13v0h788q17 -1 29.5 -12t14.5 -27v0v-68v0zM675 501v0q5 5 11.5 8t13.5 3q8 0 14.5 -3t11.5 -8v0q4 -6 7 -13t3 -15t-3 -15t-7 -13v0l-238 -262q-5 -5 -11.5 -8.5t-13.5 -3.5q-8 0 -14 3.5t-11 8.5v0h-1l-118 131
q-5 6 -7.5 13t-2.5 15t2.5 15t7.5 13v0q5 5 11.5 8t13.5 3q8 0 14.5 -3t10.5 -8v0l94 -104l212 235v0z" />
    <glyph glyph-name="uniE919" unicode="&#xe919;" 
d="M696 545q9 -3 16 -7.5t12 -10.5v-1v1q10 -10 15.5 -23.5t5.5 -29.5v0v0v0q0 -15 -5.5 -28.5t-15.5 -23.5v0q-9 -10 -22 -16t-28 -6t-27.5 6t-22.5 16v0l-1 2q-9 9 -14 22t-5 27v1v0v0v0.5v0.5q0 15 5.5 28.5t14.5 23.5v0l2 1q5 6 12 10t14 7h1l8 74h-298l8 -74
q9 -3 16 -7.5t12 -10.5v-1v1q10 -10 15.5 -23.5t5.5 -28.5v-0.5v-0.5v0v-0.5v-0.5q0 -15 -5.5 -28t-15.5 -23v0q-9 -10 -22 -16t-28 -6q-14 0 -27 6t-22 16v0l-2 2q-9 10 -14 23t-5 28t5.5 28.5t15.5 23.5v0l1 1q6 6 12.5 10t13.5 7h1l-8 74h-108q-16 -2 -27.5 -13
t-13.5 -27v0v-515q1 -16 11.5 -28t26.5 -15v0h600q19 1 31.5 14t12.5 32v0v509q-1 17 -13.5 29.5t-30.5 13.5v0h-105l-8 -74v0zM661 683q0 48 -16 94t-36 67l-1 2q-21 21 -43 35.5t-53 14.5t-53.5 -14.5t-42.5 -35.5v0q-21 -22 -37 -68.5t-16 -94.5h298zM320 683
q0 64 19 115.5t46 79.5q23 28 55.5 44.5t71.5 16.5q38 0 71 -16.5t55 -44.5h1l1 -1q26 -28 45 -79t19 -115h128q34 -3 58.5 -27t26.5 -58v-1v-554q-2 -35 -26.5 -59t-58.5 -27v0h-640q-34 3 -58.5 27t-26.5 58v1v554q2 35 26.5 59t58.5 27v0h128v0zM351 503h-2
q-5 -1 -9.5 -3t-8.5 -5h1l-1 -1q-4 -4 -6 -9t-2 -11v0v0v0q0 -6 1.5 -10.5t5.5 -7.5v0l1 -2q3 -3 8 -5.5t11 -2.5v0q5 1 10 3t9 5v0q3 4 5.5 9t2.5 11v0v0v0v0.5v0.5q0 5 -2.5 10.5t-5.5 8.5v0v1q-4 3 -8.5 5t-9.5 3v0v0zM675 503h-1q-5 -1 -9.5 -2.5t-8.5 -5.5v0l-1 -1
q-3 -3 -5.5 -8.5t-2.5 -10.5v-0.5v-0.5v0v0v0q0 -5 2 -10t6 -8v0v-2q4 -3 9 -5.5t10 -2.5v0v0v0q6 0 11 2.5t8 5.5v0q4 4 6 9t2 11v0v0v0q0 6 -2 11.5t-6 8.5v0v1q-3 3 -7.5 5.5t-10.5 2.5v0v0zM529 444v0l36 -123l117 1q8 -2 14 -8t6 -15q0 -6 -2.5 -10.5t-6.5 -7.5v0
l-94 -76l36 -123q1 -1 1 -3v-4q0 -9 -6 -15t-14 -6q-4 0 -7 1t-6 3v0l-93 76l-94 -76q-2 -2 -5 -3t-7 -1q-8 0 -14.5 6t-6.5 15q0 2 0.5 4t1.5 4v-1l36 123l-94 76q-4 3 -6.5 7.5t-2.5 10.5q0 9 6.5 15.5t14.5 7.5v0l116 -1l36 123q2 7 7 11.5t12 4.5t12 -4.5t7 -10.5v-1v0z
M531 292v0l-21 73l-21 -73q-2 -6 -7.5 -10.5t-12.5 -4.5h-69l56 -44q4 -4 6.5 -9t2.5 -10q0 -2 -0.5 -3.5t-0.5 -3.5v0l-22 -73l56 45q2 2 5 3t7 1q3 0 6 -1t6 -3v0l56 -45l-22 73q0 2 -0.5 3.5t-0.5 3.5q0 5 2.5 10t5.5 8v0l56 45h-68v0v0q-7 0 -12.5 4.5t-7.5 10.5v0v0z
" />
    <glyph glyph-name="uniE91A" unicode="&#xe91a;" 
d="M800 309v-234q-1 -18 -13 -30t-30 -13v0h-490q-18 1 -30 13t-13 30v0v234q0 14 -32 14t-32 -14v-256q0 -27 26 -56t56 -29h537q34 2 58.5 26.5t26.5 58.5v0v256q0 14 -32 14t-32 -14v0zM1013 587q-5 17 -24 65q-18 48 -38 98.5t-36 89.5l-16 39q-7 22 -26 35.5t-42 13.5
h-2h-1v0h-625q-25 0 -41 -21t-23 -43l-18 -37q-18 -36 -40.5 -83.5t-43.5 -93.5q-21 -45 -26 -63v-64q0 -45 22 -74q23 -29 54 -45.5t64 -23.5q32 -7 52 -7q30 0 82 29t71 52q19 -23 69 -52t98 -29q29 1 77.5 29.5t67.5 51.5q19 -23 71 -52t82 -29q20 0 52 7q32 6 63.5 23
t54.5 46q22 29 22 74q0 27 -2.5 53.5t2.5 10.5v0zM821 437q-22 0 -69.5 19t-59.5 39q-1 2 -3 4.5t-3 5.5v0q-13 14 -25 14t-22 -14q-2 -2 -3.5 -4.5t-2.5 -5.5v0q-12 -20 -55.5 -39.5t-65.5 -19.5t-65.5 19.5t-55.5 39.5q-1 2 -2.5 4.5t-3.5 4.5v0q-4 5 -10.5 7.5t-13.5 2.5
q-6 0 -12 -2t-11 -7v0q-2 -2 -3.5 -5t-2.5 -6v0q-12 -19 -59 -37t-70 -20q-39 2 -83.5 25t-44.5 61v16.5v25.5q8 16 25 58q18 42 36 86t32 78l13 34l13.5 21.5t29.5 21.5h576q1 0 3 0.5t4 0.5q11 0 20.5 -6t15.5 -16v0l15 -38t34 -86t36 -93q17 -46 21 -61q8 -17 4 -37
t-4 -27q0 -38 -44.5 -50.5t-83.5 -13.5v0zM273 715h499v0v0q12 0 20 -8t8 -20v-9q0 -11 -8 -19t-20 -8v0v0h-499v0v0q-12 0 -20 8t-8 19v9q0 12 8 20t20 8v0v0v0z" />
    <glyph glyph-name="uniE91B" unicode="&#xe91b;" horiz-adv-x="945" 
d="M827 -64h-709q-49 0 -84 34q-34 35 -34 84v788q0 49 34 84q35 34 84 34h709q49 0 84 -34q34 -35 34 -84v-788q0 -49 -34 -84q-35 -34 -84 -34zM118 881v0v0q-8 0 -15 -3t-13 -8v0q-5 -6 -8 -13t-3 -15v0v0v0v-788v0v0q0 -8 3 -15t8 -13v0q6 -5 13 -8t15 -3v0v0h709
q16 0 27.5 11.5t11.5 27.5v788v0v0q0 8 -3 15t-8 13v0q-5 5 -12.5 8t-15.5 3v0v0h-709v0zM631 407h-434q-17 0 -28 12q-6 5 -8.5 12.5t-2.5 15.5v0v0v0q0 17 11 28t28 11h434h0.5h0.5q8 0 15 -3t12 -8v0q5 -5 8.5 -12t3.5 -15v0v-1v0v0v0q0 -8 -3.5 -15.5t-8.5 -12.5v0
q-5 -5 -12 -8.5t-15 -3.5h-0.5h-0.5v0zM747 172h-550q-17 0 -28 12q-6 5 -8.5 12t-2.5 16v0v0v0q0 17 11 28t28 11h550v0h1q8 0 15 -3t12 -8v0q5 -5 8 -12t3 -15v-0.5v-0.5v0v0v0q0 -8 -3 -15.5t-8 -12.5v0q-5 -5 -12.5 -8.5t-15.5 -3.5v0v0v0zM158 703v0v0q0 -25 17 -42
t41 -17h0.5h0.5v0v0v0q24 0 41.5 17t17.5 42v0v0v0v0v0q0 24 -17.5 41.5t-41.5 17.5v0v0v0h-0.5h-0.5q-24 0 -41 -17.5t-17 -41.5v0v0v0v0zM412 703q0 -25 17.5 -42t41.5 -17q25 0 42 17t17 42q0 12 -4.5 23t-12.5 19v0q-8 8 -18.5 12.5t-23.5 4.5q-24 0 -41.5 -17.5
t-17.5 -41.5v0v0v0v0zM668 703q0 -25 17.5 -42t41.5 -17q25 0 42 17t17 42q0 12 -4.5 23t-12.5 19v0q-8 8 -18.5 12.5t-23.5 4.5q-24 0 -41.5 -17.5t-17.5 -41.5v0v0v0v0z" />
    <glyph glyph-name="uniE91C" unicode="&#xe91c;" 
d="M800 939h-661q-35 -3 -59 -27t-27 -58v-1v-810q3 -35 27 -59t58 -27h1h704q-1 3 -2 5.5t-1 5.5t1 5.5t2 5.5v0h42q2 -1 4.5 -1h5.5q11 0 21 4t18 11v0v0q8 8 12 18.5t4 21.5v5.5t-1 4.5v0v469q8 3 13.5 8.5t8.5 12.5v0v320q-3 35 -27 59t-58 27h-1h-85v0zM804 532v0
q-12 -11 -19 -25.5t-7 -31.5q0 -1 0.5 -2.5t0.5 -3.5v0v-406q-2 -17 -14.5 -29t-29.5 -13v0q-40 0 -121 1q-81 0 -170 0.5t-169 -0.5h-118q-16 2 -27.5 13.5t-11.5 28.5v0v155v231.5t-1 230.5v154q2 16 14 27.5t29 12.5v0h705q17 -2 29 -14t13 -29v0v-277h-43h-4h-5
q-15 0 -28 -6t-23 -17v0v0zM907 43v21q0 -8 2.5 -23t-2.5 -20v0q-5 -6 -9.5 -3t-12.5 3h-42v128h64v-106v0zM907 213v22q0 -8 2.5 -20.5t-2.5 -18.5q-3 -2 -6.5 -3.5t-8.5 -1.5h-3.5t-3.5 1v0h-42v107l36 1q11 0 15 -3.5t13 2.5v-86v0zM907 384v-21q0 -9 2.5 -8t-2.5 -4
q-5 -6 -12.5 -9t-15.5 -3v0l-36 2v107q-1 2 -1 4v4q0 8 2 16t6 15v-1q5 6 12.5 9t16.5 3v0l28 -7v-107v0zM576 430v0q-7 7 -16 13.5t-19 10.5h-1l-5 2l4 3q17 18 27 42t10 51t-10 51t-27 42v0q-17 18 -40.5 28t-50.5 10t-50.5 -10t-40.5 -28v0q-17 -18 -27 -42t-10 -51
t10 -51t27 -42v0l3 -3q-12 -5 -22 -11.5t-18 -14.5v0q-8 -8 -14 -17t-10 -19v-1q-4 -9 -6 -19.5t-2 -21.5v-0.5v-0.5v0v-31v-0.5v-0.5q0 -8 5.5 -14t14.5 -7v0h280q8 1 14 7t6 15v0v0v0v31q0 11 -2 22t-6 21v-1q-4 11 -10 20t-14 17v0v0zM386 615v0q12 12 28 19t34 7t34 -7
t28 -19v0q12 -12 18.5 -28t6.5 -34v-1v0v0v0v0q0 -19 -6.5 -35t-18.5 -28v0q-12 -12 -28 -19t-34 -7t-34 7t-28 19v0q-12 12 -19 28t-7 35v0q0 18 7 34.5t19 28.5v0v0zM567 341h-238v10q0 7 1 14t4 13v-1q3 7 6.5 12.5t8.5 10.5v0q9 10 21.5 15.5t26.5 5.5v0v0h101h0.5h0.5
q7 0 13.5 -1.5t12.5 -4.5v0q6 -2 11.5 -6t10.5 -9v0q5 -5 8.5 -10.5t6.5 -11.5v-1q3 -5 4 -12t1 -14v-10v0z" />
    <glyph glyph-name="uniE91D" unicode="&#xe91d;" 
d="M903 593v0l1.5 -1.5l1.5 -1.5v0v-1l2 -1v0v0v0l1 -1v-1h1v-1h1v0v-1l1 -1v-1v0v0v-1v0v0h1v-1v-1v0l1 -2v-1v0l1 -1v0v0v-1l1 -1v-1v-1v-2h1v-4v-1v-3v-508q-2 -34 -26.5 -58.5t-58.5 -26.5v0h-640q-32 0 -58.5 35t-26.5 50v-42l-1 551v1v0q0 9 4 17t10 13h1l50 58
q-1 2 -2 4.5t-1 5.5t1 6t2 5v0v128q0 9 6 15t15 6v0l175 2q1 2 2.5 3.5t3.5 2.5v0l118 99h42l118 -99q2 -1 3 -2.5t3 -3.5v0l175 -2q9 0 15 -6t6 -15v0v-149l50 -58v0zM213 587v-64l296 -278h5l297 278v256h-598v-192v0zM171 459v-381q0 -18 12 -31t30 -15v0h599
q17 2 28.5 14t12.5 29v0q0 43 -1 115q0 73 -0.5 142t-0.5 120v50q-158 -149 -317 -298q6 6 -11 2.5t-34 -1.5l-80 74q-39 37 -79 74l-80 74t-79 74v-42v0zM469 823v0l86 -2q-2 13 -7.5 24t-14.5 19v0h-42z" />
    <glyph glyph-name="uniE91E" unicode="&#xe91e;" 
d="M331 525v0v0q15 0 27.5 -5t23.5 -13h-1q10 -9 15.5 -20.5t6.5 -25.5v0q-1 -13 -6.5 -24.5t-14.5 -20.5h-1q-10 -8 -23 -13.5t-27 -5.5v0v0v0q-15 0 -28 5t-23 14v0q-9 9 -15 20.5t-6 24.5v0q0 14 6 25.5t15 20.5v0q10 8 23 13t27 5v0h1v0v0zM512 843v0h4.5h4.5
q47 0 93 -8q45 -7 87.5 -21.5t81.5 -35.5q40 -20 75 -46l-1 1q33 -26 60 -57t46 -66t30 -73q10 -38 10 -78q0 -80 -39.5 -148.5t-106.5 -120.5q-35 -26 -74 -46t-81.5 -34.5t-87.5 -21.5q-45 -8 -93 -8h-4.5h-4.5v0q-31 0 -61.5 3t-59.5 9l4 -1q-27 5 -51 12t-46 15l3 -1
l-118 -57q-7 -3 -15 -5t-17 -2h-2h-2v0q-10 1 -18.5 4t-16.5 8v0q-7 5 -12.5 12t-9.5 15v0q-2 5 -3 10t-1 10q0 4 0.5 7t1.5 6v0l28 111q-20 21 -36.5 45t-28.5 51l-1 2q-14 28 -21.5 60.5t-7.5 66.5v0q0 40 10 78q11 38 29.5 72t45.5 65q28 31 61 57q35 25 74 46
q39 20 81.5 34.5t88.5 21.5q45 8 92 8h5h5h-1v0zM816 683v0q-31 22 -67 40q-35 18 -73.5 30.5t-79.5 18.5q-41 7 -84 7q-42 0 -83 -7q-41 -6 -79.5 -18.5t-74.5 -30.5t-68 -41l1 1q-56 -43 -89.5 -101.5t-33.5 -123.5q0 -28 6.5 -54.5t17.5 -50.5v1q12 -27 28.5 -49.5
t36.5 -42.5v0q6 -4 9.5 -10.5t3.5 -14.5q0 -2 -0.5 -4t-0.5 -4v0l-29 -111l119 57q4 2 8.5 3t9.5 1q4 0 8.5 -1t7.5 -2v0q22 -7 47 -12t51 -7h2q23 -7 48.5 -12t52.5 -8h2h3.5h4.5q83 0 158.5 25.5t138.5 71.5l-2 -1q57 43 90 101t33 124t-33 124t-90 101v0v0zM349 478v0
q-3 3 -8 5t-10 2v0v0v0v0v0q-6 0 -10.5 -2t-8.5 -5v0q-3 -3 -5.5 -7.5t-2.5 -9.5v0q0 -5 2.5 -9t5.5 -7v0q4 -3 8.5 -5t9.5 -2h0.5h0.5v0v0v0q5 0 10 2t8 5v0q4 3 6 7t2 9v0v0v0v0.5v0.5q0 5 -2 9t-6 7v0v0zM512 525v0h0.5h0.5q14 0 27 -5t23 -13v0q9 -9 14.5 -20.5
t5.5 -25.5v0q0 -13 -5.5 -24.5t-14.5 -20.5v0q-10 -8 -23 -13.5t-28 -5.5t-28 5.5t-23 13.5v0q-9 9 -15 20.5t-6 24.5v0q1 14 6.5 25.5t14.5 20.5v0q10 8 23 13t27 5h1v0v0v0zM530 478v0q-3 3 -8 5t-10 2v0v0v0q-5 0 -10 -2t-9 -5v0q-3 -3 -5 -7.5t-2 -8.5v-1v0v0v0v0
q0 -5 2 -9t5 -7v0q4 -3 8.5 -5t10.5 -2v0v0v0v0v0q6 0 10.5 2t7.5 5v0q4 3 6 7t2 9v0q0 5 -2 9.5t-6 7.5v0v0zM693 525v0v0h1q14 0 27 -5t23 -13v0q10 -9 15.5 -20.5t5.5 -25.5v0q0 -13 -5.5 -24.5t-15.5 -20.5v0q-10 -8 -23 -13.5t-28 -5.5q-14 0 -27.5 5.5t-23.5 13.5v0
q-9 9 -14.5 20.5t-6.5 24.5v0q1 14 6.5 25.5t14.5 20.5v0q11 8 23.5 13t27.5 5v0v0v0v0zM712 478v0q-4 3 -8.5 5t-10.5 2q-5 0 -10 -2t-8 -5v0q-4 -3 -6 -7t-2 -9v-0.5v-0.5v0v0v0q0 -5 2 -9t6 -7v0q3 -3 8 -5t10 -2q6 0 10.5 2t8.5 5v0q3 3 5 7t2 9v0v0v0v0.5v0.5q0 5 -2 9
t-5 7v0v0z" />
    <glyph glyph-name="uniE91F" unicode="&#xe91f;" 
d="M917 555h-64q-1 6 -4.5 14t-5.5 14l-1 2q-3 7 -5 17t-5 17l64 64q5 4 7.5 9.5t2.5 12.5t-3 13t-8 11v0l-103 102v0q-4 5 -10 8t-13 3t-12.5 -2.5t-9.5 -7.5v0l-64 -64q-7 3 -17.5 5.5t-16.5 5.5q-7 2 -15 5t-15 5v86v1v2q0 15 -10 26t-25 13v0h-144q-15 -2 -25 -13
t-10 -26v-2v-1v0v-86q-7 -2 -15.5 -5t-14.5 -5q-7 -3 -17 -5.5t-17 -5.5l-64 64q-4 5 -9.5 7.5t-12.5 2.5q-8 0 -14 -3t-10 -8v0l-101 -102h-1q-5 -4 -8.5 -10.5t-3.5 -13.5t3 -12.5t8 -9.5v0l64 -64q-3 -6 -5 -16t-5 -16l-1 -2q-3 -7 -5.5 -15.5t-4.5 -14.5h-86h-1h-2
q-15 0 -26 -10t-13 -25v0v-144q1 -15 12 -25t26 -10h2h3h-1h86q2 -6 4.5 -14.5t5.5 -14.5v-1q3 -7 5.5 -17.5t5.5 -16.5l-64 -64q-5 -4 -8 -10t-3 -12q0 -8 3.5 -14t8.5 -10v0l101 -102h1q5 -5 11 -8.5t13 -3.5t12.5 3t9.5 8v0l64 64q6 -3 16 -5.5t16 -4.5l2 -1
q6 -3 14.5 -5.5t15.5 -4.5v-86v-1v-2q0 -15 10 -26.5t24 -13.5h1h144q15 2 25 13.5t10 26.5v2v1v0v86q9 2 17 5t15 6l-2 -1q6 2 16.5 5t17.5 6l64 -64q4 -5 9.5 -8t12.5 -3t13 3.5t10 8.5v0l102 101l1 1q5 4 8.5 10.5t3.5 13.5t-3 12.5t-8 9.5v0l-64 64q3 7 5 17t5 17
q3 6 6 13.5t5 14.5v2h86q17 2 29 14t13 29v0v128q-1 17 -13 29t-29 14v0h-22v0zM917 405v0l-83 8q-15 0 -26 -9.5t-13 -23.5v0q-4 -13 -7.5 -24t-7.5 -21l1 2q-6 -13 -11.5 -23.5t-11.5 -20.5l1 1q-3 -4 -4.5 -9.5t-1.5 -11.5q0 -8 3 -15t8 -12v0v0l68 -54l-64 -64l-54 68
q-5 5 -12.5 8t-15.5 3q-6 0 -12 -1.5t-11 -5.5v0q-8 -5 -18 -10l-20 -10h-2q-10 -5 -21 -8.5t-23 -6.5h-2q-10 -3 -16.5 -11.5t-6.5 -19.5v-3.5t1 -2.5v0v-85h-86v85q1 1 1 2.5v3.5q0 11 -7.5 20t-18.5 11v0q-13 3 -24 7t-21 8l1 -1l-1 1q-12 5 -22.5 10.5t-19.5 11.5l1 -1
q-4 3 -9.5 4.5t-11.5 1.5q-8 0 -15 -3t-12 -8v0l-54 -68l-64 64l68 54q5 5 8 12.5t3 15.5q0 5 -1.5 10.5t-4.5 9.5v0q-6 9 -11.5 19.5t-9.5 21.5l-1 2v1q-4 9 -7.5 19.5t-6.5 21.5l-1 3q-2 10 -10.5 17t-19.5 7h-3t-3 -1v0h-85v86h85q1 -1 2.5 -1h3.5q11 0 20 7.5t11 18.5v0
q3 12 6.5 23t8.5 22l-1 -2l1 2q5 12 10.5 22.5t11.5 19.5l-1 -1q3 4 4.5 9.5t1.5 11.5q0 8 -3 15t-9 12v0l1 1l-68 53l64 64l54 -68q5 -5 12 -8t15 -3q6 0 11.5 1.5t9.5 4.5v0q9 6 19.5 11.5t20.5 9.5l2 1q10 4 21.5 8t23.5 6l1 1q11 2 17.5 10.5t6.5 19.5v3t-1 3v0v85h86
v-85q-1 -1 -1 -2.5v-3.5q0 -12 7.5 -20.5t18.5 -10.5v0q13 -3 23.5 -6.5t20.5 -8.5l-1 1q13 -5 24 -11t21 -12l-2 1q5 -3 10 -4.5t11 -1.5q9 0 16 3.5t12 9.5h1l52 66l64 -64l-68 -53q-5 -5 -8.5 -12.5t-3.5 -15.5q0 -6 2 -12t6 -11h-1q6 -9 11.5 -19t9.5 -20l1 -2v-2
q4 -9 7.5 -19.5t6.5 -22.5v-1q3 -10 11.5 -17t19.5 -7h3.5t2.5 1v0h85v-86v0zM512 609v0q-67 -1 -114 -48t-47 -113v0v0v0q0 -67 47 -114t113 -47h0.5h0.5v0q66 0 113 47t47 114t-47 114t-113 47v0v0zM593 366v0q-16 -15 -36.5 -24t-44.5 -9t-45 9t-36 24v0q-16 16 -25 37
t-9 45v0q0 47 33.5 80.5t81.5 33.5q47 0 81 -33.5t34 -81.5q0 -23 -9 -44t-25 -37v0v0z" />
    <glyph glyph-name="uniE920" unicode="&#xe920;" 
d="M510 210q-80 0 -136 56t-56 135q0 80 56 136t136 56q79 0 135 -56t56 -136q0 -79 -56 -135t-135 -56zM510 529q-53 0 -90.5 -37.5t-37.5 -90.5q0 -52 37.5 -89.5t90.5 -37.5q52 0 89.5 37.5t37.5 89.5q0 53 -37.5 90.5t-89.5 37.5zM861 50h-703q-39 0 -67 28.5t-28 67.5
v511q0 39 28 67.5t67 28.5h96q13 0 22.5 -9.5t9.5 -22.5q0 -14 -9 -23t-23 -9h-96q-13 0 -22.5 -9.5t-9.5 -22.5v-511q0 -13 9.5 -22.5t22.5 -9.5h702q14 0 23 9.5t9 22.5v511q0 13 -9 22.5t-23 9.5h-350q-14 0 -23 9t-9 23q0 13 9 22.5t23 9.5h351q39 0 67 -28t28 -68v-511
q0 -39 -28 -67.5t-67 -28.5zM765 609q0 -20 14 -34t34 -14q19 0 33 14t14 34q0 19 -14 33.5t-33 14.5q-20 0 -34 -14t-14 -34zM478 816q0 -13 -9.5 -22.5t-22.5 -9.5h-128q-13 0 -22.5 9.5t-9.5 22.5v0q0 13 9.5 22.5t22.5 9.5h128q13 0 22.5 -9.5t9.5 -22.5v0z" />
    <glyph glyph-name="uniE92B" unicode="&#xe92b;" horiz-adv-x="1060" 
d="M541 949q9 -10 9 -23.5t-9 -22.5l-485 -485q-10 -10 -23.5 -10t-22.5 10q-10 10 -10 23.5t10 22.5l484 485q10 10 23.5 10t23.5 -10zM519 949q9 10 22.5 10t23.5 -10l485 -485q9 -9 9 -22.5t-9 -23.5q-10 -9 -23.5 -9t-22.5 9l-485 485q-10 10 -10 23.5t10 22.5zM530 960
q13 0 22.5 -9.5t9.5 -23.5v-958q0 -14 -9.5 -23.5t-22.5 -9.5q-14 0 -23.5 9.5t-9.5 23.5v958q0 14 9.5 23.5t23.5 9.5v0z" />
    <glyph glyph-name="uniE92C" unicode="&#xe92c;" 
d="M657 515q11 0 19 8t8 19v0.5v0.5q0 11 -8 19t-20 8q-11 0 -19 -8.5t-8 -19.5t8.5 -19t19.5 -8v0zM593 442v0.5v0.5q0 45 -32 77t-78 31q-45 0 -77 -32t-31 -78q0 -45 32 -77t78 -32q45 1 77 33t31 77v0zM512 960q-106 0 -199 -40q-94 -40 -163.5 -109.5t-109.5 -163.5
q-40 -93 -40 -199t40 -199q40 -94 109.5 -163.5t163.5 -109.5q93 -40 199 -40t199 40q94 40 163.5 109.5t109.5 163.5q40 93 40 199t-40 199q-40 94 -109.5 163.5t-163.5 109.5q-93 40 -199 40zM540 241h-236q-23 0 -39 16t-16 39v292q0 23 16 39t39 16h54q0 22 16 38t38 16
h37q22 0 38 -16t16 -38h181q23 0 38.5 -16t15.5 -39v-171q0 -4 -1.5 -8t-5.5 -6q-3 -3 -7 -3.5t-8 0.5q-8 2 -16.5 3t-16.5 1q-53 -1 -89.5 -38.5t-36.5 -89.5q0 -4 0.5 -7.5t0.5 -6.5v-1.5v-1.5q0 -7 -5 -12.5t-13 -5.5v0zM775 276q-1 -38 -28 -64.5t-64 -26.5
q-38 1 -64.5 28t-26.5 64q0 38 27 64.5t65 26.5v0v0q38 0 64.5 -27t26.5 -64v-1v0v0zM720 296h-18v18v0.5v0.5q0 8 -5.5 13t-12.5 5q-8 0 -13 -5.5t-5 -13.5v-18h-18q-8 0 -13 -5.5t-5 -12.5q0 -8 5 -13t13 -5h18v-19v0v-1q0 -7 5.5 -12t12.5 -5q8 0 13 5.5t5 12.5v19h18
q8 0 13 5t5 13q0 7 -5 12.5t-13 5.5z" />
    <glyph glyph-name="uniE92D" unicode="&#xe92d;" 
d="M512 960q-106 0 -199 -40q-94 -40 -163.5 -109.5t-109.5 -163.5q-40 -93 -40 -199t40 -199q40 -94 109.5 -163.5t163.5 -109.5q93 -40 199 -40t199 40q94 40 163.5 109.5t109.5 163.5q40 93 40 199t-40 199q-40 94 -109.5 163.5t-163.5 109.5q-93 40 -199 40zM703 172
h-413q-8 1 -14.5 7t-6.5 15q0 34 42.5 58t105.5 33v7q-47 36 -55.5 93t-8.5 97q0 66 37.5 103.5t103.5 39.5h12q66 -2 104.5 -39t38.5 -103v-25t-1 -28q-16 -7 -50 -10t-69 1q-17 2 -30.5 -9t-15.5 -28t8.5 -31t28.5 -16q8 -1 21 -1h29q14 0 28.5 0.5t28.5 1.5
q-7 -14 -17.5 -26t-24.5 -20v-6q63 -10 103.5 -34t40.5 -58q0 -8 -9 -15t-17 -7v0zM671 428q4 7 12 10t16 -1q8 -3 11 -11t-1 -15v-0.5v-0.5q-17 -34 -62 -43.5t-82 -9.5v0q-11 0 -22.5 0.5t-22.5 1.5q-8 1 -13.5 7.5t-4.5 15.5q1 8 7.5 13.5t14.5 4.5h0.5h0.5q39 -4 87.5 1
t58.5 27v0zM775 398q-1 -9 -7 -14.5t-15 -5.5v0q-8 0 -14 6t-7 14v0v0v71l-28 10q-6 2 -10 7t-4 12q-2 78 -58.5 132t-134.5 52q-76 -2 -129.5 -55.5t-55.5 -128.5q0 -5 -2 -9.5t-6 -7.5l-13 -8v-75q0 -9 -6.5 -14.5t-14.5 -5.5q-9 0 -14.5 6t-6.5 14v85q0 5 2.5 9.5
t6.5 7.5l13 9q3 47 24 88t55 70t77 44t91 12q43 -3 80 -21q37 -17 65.5 -45t46.5 -65t22 -80l29 -9q6 -3 10 -8t4 -12v-85v0z" />
    <glyph glyph-name="uniE92E" unicode="&#xe92e;" 
d="M512 960q-106 0 -199 -40q-94 -40 -163.5 -109.5t-109.5 -163.5q-40 -93 -40 -199t40 -199q40 -94 109.5 -163.5t163.5 -109.5q93 -40 199 -40t199 40q94 40 163.5 109.5t109.5 163.5q40 93 40 199t-40 199q-40 94 -109.5 163.5t-163.5 109.5q-93 40 -199 40zM456 223
q0 -16 -11 -27t-27 -11t-26.5 11t-10.5 27t11 26.5t26 10.5v0v0q16 0 27 -11t11 -26v0v0v0zM718 223q0 -16 -11 -27t-27 -11q-15 0 -26 11t-11 27t11 26.5t27 10.5v0v0q15 0 26 -11t11 -26v0v0v0zM774 590l-30 -169q-2 -20 -17.5 -34t-35.5 -14l-298 -18l3 -22q1 -7 6 -11.5
t11 -4.5h305q7 0 12.5 -5.5t5.5 -13.5q0 -7 -5 -13t-13 -6h-305q-20 1 -35.5 14.5t-18.5 34.5l-32 224l-18 105q-1 6 -5.5 11t-11.5 5h-24q-7 0 -12.5 5.5t-5.5 12.5q0 8 5 13.5t13 6.5h24q21 -1 36.5 -14.5t17.5 -34.5l2 -8h375q11 0 20.5 -4t16.5 -12v0q9 -10 12.5 -22.5
t1.5 -25.5v0z" />
    <glyph glyph-name="uniE931" unicode="&#xe931;" horiz-adv-x="920" 
d="M125 554q0 94 29 165t76 119t107 72q61 24 123 24v0h0.5h0.5q67 0 126 -25.5t103 -70.5q51 -52 77.5 -123.5t26.5 -158.5h-69q0 73 -21.5 132.5t-62.5 101.5q-35 35 -81 55t-99 20h-0.5h-0.5v0q-48 0 -96 -18q-47 -19 -85 -57t-61 -97q-24 -59 -24 -139h-69zM771 13h-621
q-43 0 -73.5 30t-30.5 73v449h828v-449q0 -43 -30 -73t-73 -30zM115 496v-380q0 -14 10 -24t25 -10h621q14 0 24 10t10 24v380h-690zM460 175q-19 0 -32.5 13.5t-13.5 32.5v115q0 19 13.5 32.5t32.5 13.5t32.5 -13.5t13.5 -32.5v-115q0 -19 -13.5 -32.5t-32.5 -13.5z" />
    <glyph glyph-name="uniE932" unicode="&#xe932;" horiz-adv-x="948" 
d="M474 371q-58 0 -108 21q-51 22 -88.5 60t-59.5 88q-22 51 -22 108q0 58 22 109q22 50 59.5 88t88.5 60q50 21 108 21t108 -21q51 -22 88.5 -60t59.5 -88q22 -51 22 -109q0 -57 -22 -108q-22 -50 -59.5 -88t-88.5 -60q-50 -21 -108 -21v0zM474 857q-43 0 -81 -16
q-38 -17 -66.5 -45t-44.5 -66t-16 -82q0 -43 16 -81t44.5 -66t66.5 -45q38 -16 81 -16t81 16q38 17 66.5 45t44.5 66t16 81q0 44 -16 82t-44.5 66t-66.5 45q-38 16 -81 16v0zM55 21q0 94 36 166q36 71 95 119t134 73q76 24 154 24v0h4h4q80 0 151.5 -25.5t130.5 -71.5
q59 -49 94 -120.5t35 -154.5v-4v-4h-86v5v5q0 68 -28.5 126.5t-76.5 99.5q-46 35 -102.5 55.5t-118.5 20.5h-3.5h-3.5v0q-60 0 -119 -19q-60 -19 -107.5 -57.5t-76.5 -97.5t-29 -139z" />
    <glyph glyph-name="uniE933" unicode="&#xe933;" 
d="M769 256q-54 0 -91 -38l-310 172q15 28 15 58q0 16 -6 36l305 189q37 -33 85 -33q53 0 90 38q38 37 38 90t-38 90q-37 38 -90 38t-91 -38q-37 -37 -37 -90q0 -20 8 -41l-302 -188q-38 37 -90 37q-53 0 -91 -38q-37 -37 -37 -90t37 -90q38 -38 91 -38q38 0 69 21l322 -178
q-6 -19 -6 -34q0 -53 37 -91q38 -37 91 -37t90 37q38 38 38 91t-37 90t-90 37v0zM767 832q27 0 45 -19q19 -19 19 -45t-19 -45q-18 -19 -45 -19q-26 0 -45 19t-19 45t19 45t45 19zM191 449q0 26 19 45q19 18 46 18q26 0 45 -18q18 -19 18 -45q0 -27 -18 -46q-19 -19 -45 -19
q-27 0 -46 19t-19 46v0zM769 64q-27 0 -45 19q-19 19 -19 46q0 26 19 45q18 18 45 18q26 0 45 -18q19 -19 19 -45q0 -27 -19 -46t-45 -19z" />
    <glyph glyph-name="uniE934" unicode="&#xe934;" 
d="M608 192q-13 0 -22 10q-10 9 -10 22v352q0 13 10 22q9 10 22 10t22 -10q10 -9 10 -22v-352q0 -13 -10 -22q-9 -10 -22 -10zM416 192q-13 0 -22 10q-10 9 -10 22v352q0 13 10 22q9 10 22 10t22 -10q10 -9 10 -22v-352q0 -13 -10 -22q-9 -10 -22 -10zM928 736h-160v64
q0 40 -28 68t-67 28h-321q-40 0 -68 -28t-28 -68v-64h-160q-13 0 -22 -10q-10 -9 -10 -22t10 -22q9 -10 22 -10h832q13 0 22 10q10 9 10 22t-10 22q-9 10 -22 10zM320 800q0 13 10 22q9 10 22 10h321q13 0 22 -10q9 -9 9 -22v-64h-384v64v0zM736 0h-448q-40 0 -68 28t-28 68
v480q0 14 10 23q9 9 22 9t22 -9q10 -9 10 -23v-480q0 -13 10 -22q9 -10 22 -10h448q14 0 23 10q9 9 9 22v479q0 13 10 23q9 9 22 9t22 -9q10 -10 10 -23v-479q0 -40 -28 -68t-68 -28z" />
    <glyph glyph-name="uniE935" unicode="&#xe935;" 
d="M544 0q-6 0 -12 2q-20 8 -20 30v287q-67 -3 -133 -20q-65 -18 -108 -37t-83 -43q-39 -25 -52 -35l-18 -15q-18 -16 -38 -5t-15 34q2 14 7 36q6 22 28 79q23 56 53 104q69 109 168 166q100 57 223 57q13 0 22 -9q10 -10 10 -23t-10 -22q-9 -10 -22 -10q-68 0 -128 -21
t-101 -52q-40 -31 -74 -74q-34 -44 -53 -80q-19 -37 -35 -76q182 111 391 111q13 0 22 -9q10 -10 10 -23v-238l308 330l-308 335v-43q0 -13 -10 -22q-9 -10 -22 -10t-23 10q-9 9 -9 22v125q0 21 20 29q21 8 36 -8l384 -416q8 -9 8 -21q0 -13 -9 -22l-384 -413
q-9 -10 -23 -10v0z" />
    <glyph glyph-name="uniE936" unicode="&#xe936;" 
d="M640 544h-256q-13 0 -22.5 9.5t-9.5 22.5t9.5 22.5t22.5 9.5h256q13 0 22.5 -9.5t9.5 -22.5t-9.5 -22.5t-22.5 -9.5zM579 416h-195q-13 0 -22.5 9.5t-9.5 22.5t9.5 22.5t22.5 9.5h195q13 0 22.5 -9.5t9.5 -22.5t-9.5 -22.5t-22.5 -9.5zM962 512q0 79 -35 149t-96 122.5
t-142 82.5q-82 30 -175 30q-92 0 -174 -30q-81 -30 -142 -82.5t-96 -122.5q-36 -70 -36 -149q0 -44 12 -86q11 -41 33.5 -79.5t54.5 -73.5q32 -34 73 -62q11 -7 24 -4.5t20 13.5q8 11 5.5 24t-13.5 20q-69 47 -107 112t-38 136q0 66 30 124q31 59 83 102.5t122 68.5t149 25
q80 0 149 -25q70 -26 122.5 -69t82.5 -102q30 -58 30 -124t-30 -124q-30 -59 -82.5 -102.5t-122.5 -68.5q-69 -25 -149 -25q-1 0 -2.5 -0.5t-2.5 -0.5q-12 2 -22 -3.5t-14 -16.5q-5 -13 -31.5 -33.5t-62.5 -40.5q13 43 10 58t-7 21q-5 7 -13 11.5t-17 4.5q-13 0 -22.5 -9.5
t-9.5 -22.5q0 -5 1.5 -9t3.5 -7q-3 -14 -12.5 -42.5t-20.5 -57.5q-4 -9 -2 -18.5t9 -16.5q4 -4 10 -6.5t12 -2.5q3 0 6.5 0.5t6.5 2.5q28 12 93 47.5t95 77.5q91 2 171 32q81 31 140.5 83t94.5 121q34 69 34 148v0z" />
    <glyph glyph-name="uniE937" unicode="&#xe937;" 
d="M526 36q-15 0 -32.5 9.5t-36.5 27.5l-182 183h-83q-40 0 -68 28t-28 68v192q0 40 28 68t68 28h83l182 183q19 18 36 27.5t33 9.5q17 0 33.5 -13.5t16.5 -46.5v-704q0 -33 -16 -46.5t-34 -13.5v0zM688 230q-5 0 -10 1.5t-9 4.5q-11 7 -13 20.5t6 23.5l12 18
q25 33 43.5 66.5t18.5 83.5q0 52 -16.5 82.5t-40.5 62.5q-5 6 -9 11.5t-8 11.5q-8 10 -6 23.5t13 20.5q11 8 24 6t21 -13q4 -5 8 -10.5t8 -10.5q26 -35 48 -75.5t22 -108.5q0 -66 -24 -109.5t-50 -78.5l-12 -17q-5 -7 -12 -10t-14 -3v0zM796 121q-5 0 -10.5 2t-10.5 6
q-10 9 -10.5 22t7.5 23q49 55 86.5 120.5t37.5 153.5t-37.5 153.5t-86.5 120.5q-8 10 -7.5 23t10.5 22t23.5 8t22.5 -11q25 -29 50 -63t45 -72.5t32 -83.5t12 -97t-12 -97t-32 -83.5t-45 -72.5t-50 -63q-5 -6 -11.5 -8.5t-13.5 -2.5z" />
    <glyph glyph-name="uniE938" unicode="&#xe938;" 
d="M511 0q-93 0 -174 35q-82 36 -143 96.5t-96 142.5q-35 81 -35 174t35 174q35 82 96 142.5t143 96.5q81 35 174 35t174 -35q82 -36 142.5 -96.5t96.5 -142.5q35 -81 35 -174t-35 -174q-36 -82 -96.5 -142.5t-142.5 -96.5q-81 -35 -174 -35v0zM511 832q-79 0 -149 -30
t-122.5 -82.5t-82.5 -122.5t-30 -149t30 -149t82.5 -122.5t122.5 -82.5t149 -30t149 30t122 82.5t83 122.5q30 70 30 149t-30 149q-31 70 -83 122.5t-122 82.5t-149 30v0zM512 187q-67 0 -126.5 29t-100.5 81q-8 11 -6.5 24t12.5 21q10 8 23 6.5t21 -11.5q33 -41 79 -63.5
t98 -22.5q53 0 99.5 22.5t78.5 64.5q8 11 21 12.5t24 -6.5q10 -8 12 -21t-7 -24q-41 -53 -100.5 -82.5t-127.5 -29.5zM368 445q-20 0 -34 14t-14 34v64q0 20 14 34t34 14t34 -14t14 -34v-64q0 -20 -14 -34t-34 -14zM656 445q-20 0 -34 14t-14 34v64q0 20 14 34t34 14t34 -14
t14 -34v-64q0 -20 -14 -34t-34 -14z" />
    <glyph glyph-name="uniE939" unicode="&#xe939;" 
d="M512 2q-45 0 -88 9q-43 8 -83.5 24.5t-76.5 41.5q-37 24 -69 56q-31 31 -56 68q-24 36 -41 76t-25 83q-9 43 -9 88t9 88q8 43 25 83t41 76q25 37 56 68q32 32 69 56q36 25 76.5 41.5t83.5 24.5q43 9 88 9t88 -9q43 -8 83.5 -24.5t76.5 -41.5q37 -24 69 -56q31 -31 56 -68
q24 -36 41 -76t25 -83q9 -43 9 -88t-9 -88q-8 -43 -25 -83t-41 -76q-25 -37 -56 -68q-32 -32 -69 -56q-36 -25 -76.5 -41.5t-83.5 -24.5q-43 -9 -88 -9zM512 830q-77 0 -147 -29t-125 -83q-54 -54 -83 -123.5t-29 -146.5t29 -146.5t83 -123.5q55 -54 125 -83t147 -29t147 29
t125 83q54 54 83 124t29 146q0 77 -29 146.5t-83 123.5q-55 54 -125 83t-147 29v0zM736 480h-192v192q0 13 -9.5 22.5t-22.5 9.5t-22.5 -9.5t-9.5 -22.5v-192h-192q-13 0 -22.5 -9.5t-9.5 -22.5t9.5 -22.5t22.5 -9.5h192v-192q0 -13 9.5 -22.5t22.5 -9.5t22.5 9.5t9.5 22.5
v192h192q13 0 22.5 9.5t9.5 22.5t-9.5 22.5t-22.5 9.5z" />
    <glyph glyph-name="uniE93A" unicode="&#xe93a;" 
d="M184 38h-0.5h-0.5q-12 0 -21 9t-9 22v0q0 49 57.5 83.5t162.5 48.5v9q-36 27 -55 63q-20 36 -28.5 75t-10.5 77q-1 38 -1 68q0 99 56.5 155t156.5 56h8q100 0 156.5 -56t56.5 -155v-14.5v-14.5q-1 -13 -9.5 -21.5t-21.5 -8.5t-22 9t-9 22v0v0v0v14v14q0 75 -38 113
t-113 38h-7q-76 0 -114 -38t-38 -113q0 -72 12.5 -139.5t68.5 -101.5q6 -4 10 -11t4 -15v-52q0 -11 -8 -20t-20 -10v0q-93 -9 -142.5 -32t-49.5 -43q0 -13 -9 -22t-22 -9v0v0v0v0zM809 38v0v0q-13 0 -22 9t-9 22v0q0 20 -49 43t-143 32q-12 1 -20 9.5t-8 20.5v52q0 13 9 22
t22 9t22 -9t9 -22v0v-25q106 -14 163 -48.5t57 -83.5q0 -13 -9 -22t-21 -9h-0.5h-0.5v0v0zM594 310h-1.5h-1.5q-19 0 -38 1.5t-38 3.5h3q-9 3 -15.5 11t-6.5 18q0 1 0.5 3t0.5 3v0q2 10 10.5 17t19.5 7h2h2v0q58 -6 129.5 1.5t87.5 39.5q4 8 11.5 12.5t16.5 4.5q3 0 6.5 -1
t6.5 -2v0q8 -4 13 -11t5 -16q0 -4 -1 -7.5t-2 -6.5v1q-25 -50 -90 -64.5t-120 -14.5v0v0zM870 342v0v0q-13 0 -22 9t-9 21v106l-42 15q-9 3 -14.5 10.5t-5.5 17.5v0q-1 57 -24 108q-22 50 -60 87t-89 59q-50 22 -108 22q-57 0 -108 -22q-50 -22 -88 -59t-60 -87
q-23 -50 -24 -108v0q0 -8 -3.5 -14t-9.5 -10v0l-18 -13v-112q0 -12 -9 -21t-22 -9t-22 9t-9 21v0v128q0 7 3.5 13.5t9.5 10.5v0l18 13q5 67 33 126q29 58 75 101.5t106 68.5t128 25t127 -25q60 -24 106 -66.5t75 -99.5q28 -57 34 -123v-1l42 -15q9 -3 15 -10.5t6 -17.5v-128
q0 -12 -9 -21t-22 -9v0v0v0v0z" />
    <glyph glyph-name="uniE93C" unicode="&#xe93c;" 
d="M873 164q-11 0 -19.5 8t-8.5 20v0v0v0v285q0 1 0.5 1.5t0.5 1.5q0 15 -6.5 27.5t-17.5 20.5v0l-183 93l-1.5 1.5l-1.5 1.5v0l-2 2t-3 2v0l-1 1.5t-1 2.5h-1q0 1 -0.5 2t-1.5 2v1q0 1 -0.5 2.5t-0.5 2.5v1l-0.5 1t-0.5 2v1v99v0v0q0 6 -4 10t-10 4h-404q-11 0 -19 -8.5
t-8 -19.5v-1v0v0v-537q0 -12 -8.5 -20t-19.5 -8q-12 0 -20 8t-8 20v0v537v0.5v0.5q0 35 24.5 59.5t58.5 25.5v0h404q29 -1 49.5 -21.5t20.5 -48.5v-1v0v0v-82l169 -86q1 -1 2 -1.5l1 -0.5v0q23 -17 36 -41.5t13 -54.5v-1.5v-1.5v0v-285v0v0q0 -12 -8 -20t-20 -8v0v0z
M763 392h-111q-12 0 -20 8t-8 20v0v0v0v114q0 11 8 19t20 8q11 0 19.5 -8t8.5 -19v0v-85h83q12 -1 20 -9t8 -20q0 -11 -8 -19.5t-20 -8.5v0v0zM347 311q41 0 71.5 -25t39.5 -63v-1h108q9 39 40.5 65t72.5 26q49 0 83 -34.5t34 -82.5t-34 -82.5t-83 -34.5q-40 0 -71 24.5
t-41 60.5v1h-110q-11 -36 -41 -59t-69 -23q-47 0 -80.5 33.5t-33.5 80.5q0 48 33.5 81t80.5 33v0v0zM676 136h1v0q25 0 42.5 17.5t17.5 42.5q0 24 -17.5 41.5t-42.5 17.5q-24 0 -41.5 -17.5t-17.5 -41.5v0v-0.5v-0.5q0 -24 17 -41.5t41 -17.5v0v0zM347 136h0.5h0.5
q25 0 42.5 17.5t17.5 42.5q0 24 -17.5 41.5t-42.5 17.5q-24 0 -41.5 -17.5t-17.5 -41.5v0v-0.5v-0.5q0 -24 17 -41t41 -18v0v0z" />
    <glyph glyph-name="uniE93D" unicode="&#xe93d;" 
d="M708 387q-16 0 -31 -2.5t-29 -7.5q-20 17 -43 31t-48 23q47 28 76 76.5t29 107.5q0 44 -16 83q-17 39 -46 67.5t-68 45.5q-38 17 -82 17q-45 0 -83 -17q-39 -17 -68 -45.5t-46 -67.5q-16 -39 -16 -83q0 -59 29 -107.5t76 -76.5q-41 -15 -75 -41q-35 -27 -61 -61t-41 -76
q-16 -41 -19 -86v-2v-1q0 -10 7 -17.5t17 -7.5t17.5 7.5t7.5 17.5v0q3 50 24 93q21 44 55.5 76t79.5 51q45 18 95 18q44 0 83 -13.5t71 -37.5q-30 -23 -47.5 -58t-17.5 -76q0 -70 49.5 -120t120.5 -50q70 0 120 50t50 120q0 71 -50 120.5t-120 49.5v0zM285 615q0 68 48 116
t116 48q69 0 117 -48t48 -116t-48 -116t-117 -48q-68 0 -116 48t-48 116zM708 95q-51 0 -86.5 36t-35.5 86t35.5 86t86.5 36q50 0 85.5 -36t35.5 -86t-35.5 -86t-85.5 -36zM763 268q-7 0 -12 -3t-7 -9v0l-33 -77l-34 77q-3 6 -8 9.5t-11 3.5v0q-11 0 -17 -9.5t-2 -20.5
l40 -89q4 -9 12.5 -15t19.5 -6q10 0 18.5 6t12.5 15v0l39 90q5 10 -1 19t-17 9v0z" />
    <glyph glyph-name="uniE93E" unicode="&#xe93e;" horiz-adv-x="1044" 
d="M247 765h509v-63h-509v63zM246 637h508v-63h-508v63v0zM120 893h763v-508h63v508q0 27 -18.5 45.5t-44.5 18.5h-763q-26 0 -44.5 -18.5t-18.5 -45.5v-889q0 -26 18.5 -44.5t44.5 -18.5h445v63h-445v889v0zM247 383v-63h154q0 17 2.5 33t7.5 30h-164v0zM506 510h-260v-63
h193q13 19 30 35t37 28zM988 -1l-146 144q25 29 39 66t14 79q0 46 -17 86q-17 41 -47.5 71t-70.5 48q-41 17 -87 17t-86 -17q-41 -18 -71 -48t-47 -71q-18 -40 -18 -86t18 -87q17 -40 47 -70.5t71 -47.5q40 -17 86 -17q34 0 64.5 9t56.5 26l149 -147q9 -9 22.5 -9t22.5 9
q9 10 9 23t-9 22v0zM515 288q0 66 46.5 112.5t111.5 46.5q66 0 112.5 -46.5t46.5 -112.5q0 -65 -46.5 -111.5t-112.5 -46.5q-65 -1 -111.5 45.5t-46.5 112.5z" />
    <glyph glyph-name="uniE93F" unicode="&#xe93f;" horiz-adv-x="913" 
d="M461 960h0.5h0.5q72 0 136 -27q64 -28 111.5 -75.5t75.5 -110.5q28 -64 28 -136v0q0 -25 -3 -48.5t-9 -46.5v3q27 -16 53 -55.5t44 -91.5q22 -74 13.5 -135t-43.5 -72q-18 -6 -38.5 4t-38.5 32q-12 -22 -24.5 -41.5t-26.5 -36.5l1 1q41 -11 67 -34.5t26 -52.5
q0 -41 -50 -71t-121 -30q-52 0 -95 17.5t-61 45.5q-10 -2 -22 -3.5t-24 -1.5v0q-13 0 -24.5 1.5t-23.5 3.5h2q-18 -28 -61 -45.5t-96 -17.5q-70 0 -120 30t-50 71q0 29 26.5 52.5t67.5 34.5q-15 18 -28 38.5t-24 43.5l-1 2q-20 -25 -42 -37t-42 -6q-35 11 -43 72t14 135
q18 56 47.5 96.5t58.5 55.5q-6 19 -9 41t-3 45v1q0 72 28 136q28 63 75.5 110.5t111.5 75.5q64 27 136 27v0v0v0v0z" />
    <glyph glyph-name="uniE940" unicode="&#xe940;" horiz-adv-x="1077" 
d="M314 269q9 11 64 45t117 70t112 64l50 29l-415 56l555 6q4 -4 6.5 -9t2.5 -11t-2.5 -11t-6.5 -9v0q-7 -8 -57 -45q-50 -36 -107.5 -76l-103.5 -72l-46 -32l335 -27l-10 59l269 262l-372 55l-167 337l-166 -337l-372 -54l269 -263l-63 -370l332 176l333 -176l-52 304
l-505 -22q-5 5 -8 11.5t-3 14.5q0 7 3 13.5t8 11.5v0v0zM818 247l1 -7l54 3z" />
    <glyph glyph-name="uniE941" unicode="&#xe941;" 
d="M370 940l337 -414l9 392q-45 20 -97 31t-107 11q-38 0 -74.5 -5.5t-71.5 -15.5l4 1v0zM64 695l529 -54l-269 283q-42 -17 -80 -40t-70.5 -52t-59.5 -63q-28 -33 -49 -71l-1 -3v0zM20 306l414 337l-392 8q-20 -45 -31 -96.5t-11 -106.5q0 -38 5.5 -74.5t15.5 -71.5l-1 4v0
zM265 -1l54 531l-283 -270q17 -42 40 -80t52 -70.5t62 -60.5q34 -27 72 -48l3 -2v0zM654 -44l-337 414l-8 -392q44 -20 96 -31t107 -11q38 0 74.5 5.5t71.5 15.5l-4 -1v0zM960 201l-530 54l270 -283q42 17 80 40t70.5 52t59.5 62q28 34 49 72zM1004 590l-414 -337l392 -9
q20 45 31 96.5t11 106.5q0 38 -5.5 75t-15.5 71l1 -3v0zM759 896l-54 -529l283 270q-17 42 -40 80q-23 37 -52 69.5t-62 60.5q-34 27 -72 48l-3 1v0z" />
    <glyph glyph-name="uniE942" unicode="&#xe942;" horiz-adv-x="1192" 
d="M898 433q-36 7 -30.5 20l5.5 13l16 45t-25 87q-26 25 -66 27q-39 2 -77 -6t-65 -19l-27 -11q-47 -15 -45.5 3t8.5 55q0 43 -31 92t-158 7q-64 -21 -121 -65q-57 -43 -100 -86.5t-68 -76.5l-26 -33q-76 -101 -82 -170l-6 -69q10 -87 56 -143q46 -57 112 -92t144 -51
q77 -16 149 -22q75 -6 159 7t161 43.5t139 78.5t92 114q31 65 24 111q-8 46 -32.5 76.5t-56.5 45.5q-32 16 -49 19v0zM475 3q-74 -4 -140 12q-65 16 -114 46t-77 73q-28 42 -28 91q0 50 28 94q28 43 77 76.5t114 53.5q65 21 140 24q74 4 140 -9q65 -13 114 -40t77 -67
q28 -39 28 -88q0 -50 -28 -96q-28 -47 -77 -83.5t-114 -59.5q-66 -24 -140 -27v0zM435 386q-74 -4 -126 -58t-52 -129q0 -6 0.5 -12t1.5 -12v1q0 -29 14.5 -52.5t38.5 -36.5v-1q26 -15 55.5 -23.5t62.5 -8.5q54 0 100.5 23.5t77.5 61.5l1 1q23 29 27 75q4 45 -15.5 86
t-65.5 68q-45 26 -120 17v0zM385 123q-3 -1 -6 -1.5t-6 -0.5q-21 0 -36.5 14.5t-17.5 35.5v0q2 26 20 44.5t44 21.5v0q32 3 51.5 -13t19.5 -39q-4 -25 -23.5 -42.5t-45.5 -18.5v0v-1zM502 221q-3 -3 -7 -4.5t-9 -1.5t-10 2.5t-8 7.5v0q-2 3 -3 6.5t-1 7.5q0 7 3 13.5t9 10.5
v0q3 3 7.5 5t9.5 2q6 0 11.5 -3t8.5 -7v0q1 -3 1.5 -5.5t0.5 -5.5q0 -8 -3.5 -14.5t-8.5 -10.5v0zM1185 538q1 1 1 2.5v3.5q0 1 -0.5 2.5t-0.5 3.5v-1q2 13 3.5 27t1.5 29q0 73 -28 138t-76 113t-113 76q-64 28 -138 28v0q-20 0 -34.5 -14.5t-14.5 -34.5q0 -21 14.5 -35.5
t34.5 -14.5v0q54 0 101 -20q47 -21 82 -56t55 -82q21 -47 21 -101q0 -12 -1.5 -24t-3.5 -24v1v-1v-1v-2v-1v0q0 -21 14.5 -35t35.5 -14q17 0 30 10t17 26v1h-1zM1032 584v9.5v9.5q0 41 -16 77q-15 36 -42 62.5t-63 42.5q-36 15 -77 15v0q-17 0 -29 -12t-12 -29t12 -29
t29 -12v0q48 0 82 -34t34 -82v0v-3v-4v-4v-4v1v-1.5v-1.5v-1.5v-0.5v0q0 -17 12 -29t29 -12v0q15 0 26.5 10t13.5 25v0v1v2v1v2q0 1 0.5 1h0.5v0z" />
    <glyph glyph-name="uniE943" unicode="&#xe943;" horiz-adv-x="931" 
d="M917 946q-6 7 -14.5 10.5t-17.5 3.5h-0.5h-0.5h-837h-1v0q-9 0 -17.5 -3.5t-14.5 -10.5v0q-7 -6 -10.5 -14.5t-3.5 -17.5v0v-1v0v-930v-1v0q0 -9 3.5 -17.5t10.5 -14.5v0q6 -7 14.5 -10.5t17.5 -3.5v0h1h837q20 0 33.5 13.5t13.5 33.5v930v1v0q0 9 -4 17.5t-10 14.5v0v0z
M717 798q9 10 22 15.5t27 5.5q29 0 49.5 -20.5t20.5 -49.5v0v0v0q0 -29 -20.5 -49.5t-49.5 -20.5t-49.5 20.5t-20.5 49.5v0v0.5v0.5q0 14 5.5 26.5t15.5 21.5v0v0zM686 480q6 -6 10 -14t4 -18v-0.5v-0.5v0v0v0q0 -10 -4 -18.5t-10 -14.5v0q-6 -7 -14.5 -10.5t-18.5 -3.5v0v0
h-513q-21 0 -34 14q-6 6 -9.5 14.5t-3.5 17.5v1v0v0q0 20 13 33t34 13h513h0.5h0.5q9 0 17.5 -3.5t14.5 -9.5v0v0zM414 798q10 10 22.5 15.5t27.5 5.5q29 0 49 -20.5t20 -49.5v0v0v0q0 -29 -20.5 -49.5t-49.5 -20.5q-14 0 -26.5 5.5t-22.5 14.5v0q-9 10 -14.5 22.5
t-5.5 26.5v0.5v0.5v0v0.5v0.5q0 14 5.5 26.5t14.5 21.5v0v0zM113 798q9 10 21.5 15.5t26.5 5.5h1h1v0v0v0q29 0 49 -20.5t20 -49.5v0v0v0v0v0q0 -29 -20 -49.5t-49 -20.5v0h-1h1h-1v0q-29 0 -49 20.5t-20 49.5v0v0v0v0.5v0.5q0 14 5.5 26.5t14.5 21.5v0v0zM823 136
q-7 -6 -15 -10t-18 -4v0v0h-650q-21 0 -34 14q-6 6 -9.5 14.5t-3.5 18.5v0v1v-1q0 20 13 33t34 13h650v0v0q10 0 18 -3.5t15 -9.5v0q6 -6 9.5 -14t3.5 -18v0v-1v0v0v0q0 -10 -3.5 -18.5t-9.5 -14.5v0v0z" />
    <glyph glyph-name="uniE944" unicode="&#xe944;" 
d="M512 960q-106 0 -199 -40q-93 -41 -162.5 -110.5t-110.5 -162.5q-40 -93 -40 -199t40 -199q41 -93 110.5 -162.5t162.5 -110.5q93 -40 199 -40t199 40q93 41 162.5 110.5t110.5 162.5q40 93 40 199t-40 199q-41 93 -110.5 162.5t-162.5 110.5q-93 40 -199 40v0zM257 91
q3 0 6 0.5t5 1.5q54 19 103 31.5t78 14.5q14 2 24 12.5t10 24.5v67q0 8 -3.5 15.5t-9.5 12.5q-46 39 -64.5 113.5t-18.5 141.5q0 77 36 116t108 39q67 0 100.5 -38.5t33.5 -116.5q0 -38 -8 -77q-8 -40 -21.5 -75.5t-32.5 -63.5q-19 -29 -40 -46q-7 -6 -10.5 -13.5
t-3.5 -15.5v-63q0 -14 9.5 -24.5t22.5 -11.5q32 -4 80.5 -19.5t89.5 -31.5q1 -1 2.5 -1h3.5q-53 -36 -115 -55.5t-130 -19.5q-71 0 -136 22t-119 60v0v0zM801 118q0 11 -6 21t-17 14q-18 7 -64.5 23.5t-91.5 26.5v15q29 27 50 64q22 38 36.5 79.5t22.5 83.5q7 43 7 81
q0 55 -14 97q-14 43 -40.5 72t-64.5 44q-39 15 -88 15q-51 0 -91 -15q-41 -16 -68.5 -45t-42.5 -72q-15 -42 -15 -96q0 -18 3 -55q2 -36 11.5 -79t28.5 -87t52 -78v-19q-38 -7 -83 -20t-82 -26q-13 -5 -19.5 -16.5t-3.5 -24.5q-34 30 -61 66q-28 37 -47 78.5t-29 87.5
q-11 46 -11 95q0 91 35 171q34 80 93.5 139.5t139.5 93.5q80 35 171 35t171 -35q80 -34 139.5 -93.5t93.5 -139.5q35 -80 35 -171q0 -49 -11 -96q-10 -46 -29.5 -88t-47.5 -79t-62 -67v0v0z" />
    <glyph glyph-name="uniE945" unicode="&#xe945;" 
d="M512 960q-106 0 -199 -40q-93 -41 -162.5 -110.5t-110.5 -162.5q-40 -93 -40 -199t40 -199q41 -93 110.5 -162.5t162.5 -110.5q93 -40 199 -40t199 40q93 41 162.5 110.5t110.5 162.5q40 93 40 199t-40 199q-41 93 -110.5 162.5t-162.5 110.5q-93 40 -199 40v0zM801 118
q0 11 -6.5 21t-16.5 14q-18 7 -59.5 23.5t-96.5 26.5v15q27 27 49 64q21 38 36 79.5t23 83.5q8 43 8 81q0 55 -14 97q-14 43 -40.5 72t-64.5 44q-39 15 -89 15t-91 -15q-41 -16 -69.5 -45.5t-43.5 -71.5t-15 -96q0 -18 4 -55q4 -36 14 -79t28 -87t45 -78v-19
q-27 -7 -75.5 -20t-86.5 -26q-13 -5 -18 -16.5t-3 -24.5q-34 30 -61 66q-27 37 -46 78.5t-30 87.5q-10 46 -10 95q0 91 35 171q34 80 94 139.5t140 93.5q80 35 171 35q90 0 170 -35q80 -34 139.5 -93.5t94.5 -139.5t35 -171q0 -49 -11 -96q-10 -46 -29.5 -88t-47.5 -79
q-28 -36 -62 -67v0v0z" />
    <glyph glyph-name="uniE946" unicode="&#xe946;" 
d="M1023 726l-58 -331q-4 -39 -34 -65.5t-69 -26.5l-495 -37h-1h-1q-14 0 -24 9.5t-11 23.5q0 7 2 13.5t6 11.5q5 5 11 8t13 4l497 37q14 0 25 9.5t12 22.5l58 331q1 10 -1.5 19.5t-8.5 15.5q-3 5 -8 7t-11 2h-634q-14 0 -24.5 10.5t-10.5 24.5t10.5 24.5t24.5 10.5h634
q21 0 39.5 -8.5t32.5 -23.5q15 -18 22 -42t4 -50v0zM319 189h595q14 0 24.5 -10t10.5 -25q0 -14 -10.5 -24t-24.5 -10h-595q-39 0 -69 27t-35 66l-62 438l-35 205q-2 14 -13 24t-24 10h-46q-15 0 -25 10.5t-10 24.5q0 15 10 25t25 10h46q40 0 70.5 -27t35.5 -67l35 -204
l62 -440q2 -13 12 -23t23 -10v0zM328 79q30 0 51 -21t21 -50q0 -30 -21 -51t-51 -21q-29 0 -50 21t-21 51q0 29 21 50t50 21v0zM841 79q30 0 51 -21t21 -50q0 -30 -21 -51t-51 -21q-29 0 -50 21t-21 51q0 29 21 50t50 21z" />
    <glyph glyph-name="uniE947" unicode="&#xe947;" 
d="M1023 726l-58 -331q-4 -39 -34 -65.5t-69 -26.5l-583 -44l5 -37q2 -13 12 -23t23 -10h595q14 0 24.5 -10t10.5 -25q0 -14 -10.5 -24t-24.5 -10h-595q-39 0 -69 27t-35 66l-62 438l-35 205q-2 14 -13 24t-24 10h-46q-15 0 -25 10.5t-10 24.5q0 15 10 25t25 10h46
q40 0 70.5 -27t35.5 -67l2 -16h736q21 0 39.5 -8.5t32.5 -23.5q15 -18 22 -42t4 -50v0zM328 79q30 0 51 -21t21 -50q0 -30 -21 -51t-51 -21q-29 0 -50 21t-21 51q0 29 21 50t50 21v0zM841 79q30 0 51 -21t21 -50q0 -30 -21 -51t-51 -21q-29 0 -50 21t-21 51q0 29 21 50
t50 21z" />
    <glyph glyph-name="uniE948" unicode="&#xe948;" horiz-adv-x="1050" 
d="M1037 423q-4 -4 -8.5 -6t-10.5 -2q-7 0 -16.5 3.5t-19.5 10.5l-456 449l-427 -415l-31 -30q-15 -15 -30 -18t-26 8q-6 6 -9 13.5t-3 15.5q0 9 3 16.5t9 12.5l460 454q1 2 4.5 5.5t8.5 7.5q9 6 19 9t21 3q10 0 19.5 -3t18.5 -9q5 -3 8.5 -6.5l5.5 -5.5l460 -455
q6 -5 9.5 -12.5t3.5 -16.5q0 -8 -3.5 -15.5t-9.5 -13.5v0zM184 505q14 0 24 -10t10 -24v-424q0 -18 12.5 -30t30.5 -12h106v236q0 44 31 74.5t75 30.5h103q44 0 75.5 -30.5t31.5 -74.5v-236h105q18 0 30.5 12t12.5 30v424q0 14 10 24t25 10q14 0 24 -10t10 -24v-430
q0 -43 -31 -74t-75 -31h-180v300q0 17 -12.5 29.5t-30.5 12.5h-93q-17 0 -29.5 -12.5t-12.5 -29.5v-300h-180q-44 0 -75.5 31t-31.5 74v430q0 14 10.5 24t24.5 10v0z" />
    <glyph glyph-name="uniE949" unicode="&#xe949;" horiz-adv-x="1050" 
d="M1037 481l-460 455l-5.5 5.5t-8.5 6.5q-9 6 -18.5 9t-19.5 3q-11 0 -21 -3t-19 -9q-5 -4 -8.5 -7.5t-4.5 -5.5l-460 -454q-6 -5 -9 -12.5t-3 -16.5q0 -8 3 -15.5t9 -13.5q11 -11 26 -8t30 18l31 30l50 49v-471q0 -43 31.5 -74t75.5 -31h180v300q0 17 12.5 29.5t29.5 12.5
h93q18 0 30.5 -12.5t12.5 -29.5v-300h180q44 0 75 31t31 74v468l82 -80q10 -7 19.5 -10.5t16.5 -3.5q6 0 10.5 2t8.5 6q6 6 9.5 13.5t3.5 15.5q0 9 -3.5 16.5t-9.5 12.5v0v0z" />
    <glyph glyph-name="uniE94A" unicode="&#xe94a;" horiz-adv-x="951" 
d="M747 -64h-543q-45 0 -81 30q-36 31 -44 74l-77 475q-8 47 20 82q30 35 78 35h751q48 0 77 -35t21 -82l-79 -474q-7 -44 -43 -75q-36 -30 -80 -30v0zM100 559q-14 0 -21 -9q-8 -9 -5 -23l79 -474q2 -18 17 -31q16 -13 34 -13h543q18 0 34 13q15 13 17 31l79 474
q2 14 -5 23t-21 9h-751v0zM254 339h-1v0q-15 0 -28.5 6t-22.5 16v0q-22 21 -22 51t22 52q21 22 52 22q30 0 51 -22q10 -10 15.5 -23t5.5 -28v-0.5v-0.5v0q0 -30 -21 -51q-21 -22 -51 -22v0zM695 339h-0.5h-0.5q-15 0 -28 6t-23 16v0q-22 21 -22 51t22 52t52 22t51 -22
q10 -10 15.5 -23t5.5 -28v-0.5v-0.5v0q0 -30 -21 -51q-21 -22 -51 -22v0zM731 667v0v0q-8 0 -14.5 3t-11.5 8v0q-5 5 -8 11.5t-3 14.5v0v0v0q0 75 -69 129t-151 54q-86 0 -152 -50q-67 -51 -67 -133v0v0q0 -8 -2.5 -14.5t-7.5 -11.5v0q-4 -5 -10.5 -8t-14.5 -3v0h-1v0v0v0
q-8 0 -14.5 3t-11.5 8v0q-5 5 -8 11.5t-3 14.5v0v0v0q0 77 44 137q43 60 109 89q30 14 65 22t72 8h1h1v0q71 0 137 -32q34 -16 62 -39t49 -52l1 -1q44 -60 44 -132v0v0q0 -8 -2.5 -14.5t-7.5 -11.5v0q-4 -5 -10.5 -8t-14.5 -3v0h-1v0v0z" />
    <glyph glyph-name="uniE94B" unicode="&#xe94b;" horiz-adv-x="951" 
d="M219 667h1v0q8 0 14 3t11 8v0q5 5 7.5 11.5t2.5 14.5v0v0v0q0 82 67 133q66 50 152 50q82 0 151 -54t69 -129v0v0q0 -8 3 -14.5t8 -11.5v0q5 -5 11.5 -8t14.5 -3v0v0v0h1v0q8 0 14 3t11 8v0q5 5 7.5 11.5t2.5 14.5v0v0v0q0 72 -44 132q-22 29 -49.5 52.5t-60.5 38.5l-2 1
q-66 32 -137 32h-1h-1q-37 0 -72 -8t-67 -23l2 1q-66 -29 -109 -89q-44 -60 -44 -137v0v0q0 -8 3 -14.5t8 -11.5v0q5 -5 11.5 -8t14.5 -3v0v0v0v0zM928 597q-29 35 -77 35h-751q-48 0 -78 -35q-28 -35 -20 -82l77 -475q8 -43 44 -74q36 -30 81 -30h543q44 0 80 30
q36 31 43 75l79 474q8 47 -21 82v0zM305 361q-21 -22 -51 -22h-1v0q-15 0 -28.5 6t-22.5 16v0q-22 21 -22 51t22 52q21 22 52 22q30 0 51 -22q10 -10 15.5 -23t5.5 -28v-0.5v-0.5v0q0 -30 -21 -51v0zM746 361q-21 -22 -51 -22h-0.5h-0.5q-15 0 -28 6t-23 16v0q-22 21 -22 51
t22 52t52 22t51 -22q10 -10 15.5 -23t5.5 -28v-0.5v-0.5v0q0 -30 -21 -51v0z" />
    <glyph glyph-name="uniE94C" unicode="&#xe94c;" horiz-adv-x="846" 
d="M616 551q9 -3 16.5 -7.5t13.5 -11.5v0q10 -10 16 -24t6 -29v0q0 -16 -6 -29.5t-16 -23.5v0q-10 -11 -23.5 -17t-29.5 -6q-15 0 -29 6t-23 17h-1v1q-9 10 -14.5 23t-5.5 28v0.5v0.5v0q1 15 6.5 29t16.5 24v0l1 2q6 5 13 9.5t15 6.5l1 1l6 75h-312l8 -75q9 -3 16.5 -7.5
t13.5 -11.5v0q10 -10 16 -24t6 -29v0v-0.5v-0.5q0 -15 -6 -28.5t-16 -23.5v0q-10 -11 -23.5 -17t-28.5 -6q-16 0 -29.5 6t-23.5 17v0l-1 1q-10 10 -15.5 23.5t-5.5 28.5q0 16 6 30t16 24v0l2 1q6 6 13 10t14 7h1l-7 75h-113q-17 -1 -29 -13t-14 -29v0v-537q1 -17 12 -29.5
t28 -14.5v0h626q19 1 32.5 14.5t13.5 32.5v0v532q-1 18 -14 30.5t-32 13.5v0h-110l-7 -75v0zM579 693q0 50 -17 98t-38 70v2q-22 23 -45 37.5t-56 14.5t-56 -14.5t-44 -37.5v0q-22 -22 -39 -71t-17 -99h312zM223 693q0 67 20 121t46 83q24 29 58.5 46t74.5 17t74.5 -17
t57.5 -46v0l3 -2q27 -29 46.5 -82t19.5 -120h134q36 -3 61 -28t28 -61v0v-579q-3 -36 -28 -61t-61 -28v0h-668q-36 2 -61 27.5t-28 61.5v0v579q2 36 27.5 61t61.5 28v0h134zM254 508h-2q-6 0 -10.5 -2t-7.5 -6v1v-2q-4 -4 -6.5 -9t-2.5 -11v0v0v0q0 -6 2 -10.5t6 -8.5v0v-1
q4 -4 9 -6t11 -2v0q5 0 10.5 2t9.5 6v0q3 4 5.5 9t2.5 11v0q0 6 -2 11.5t-6 9.5v0q-4 3 -9 5t-10 3v0v0zM594 508h-1q-5 0 -10 -2t-8 -6v1v-2q-4 -3 -6.5 -8.5t-2.5 -11.5v0v0v0v-0.5v-0.5q0 -5 2 -9.5t6 -8.5v0v-1q4 -4 9 -6t10 -2v0h1v0q12 0 20 8t8 20v0v0v0v0v0
q0 6 -2.5 11.5t-5.5 9.5v0q-4 3 -9 5t-11 3v0v0z" />
    <glyph glyph-name="uniE94D" unicode="&#xe94d;" 
d="M832 469q0 14 9.5 23t22.5 9t22.5 -9t9.5 -23v0v-383q-1 -18 -13 -30t-29 -13h-1h-682q-16 1 -27.5 11.5t-14.5 25.5v0v393q0 29 31.5 28.5t31.5 -32.5v-362h64v341q2 17 14 29t29 14v0h427q17 -2 29 -14t13 -29v0v-341h64v362zM726 235v64h-427v-64h427zM299 171v-64
h427v64h-427zM726 363v64h-427v-64h427zM512 789l427 -256q16 -16 46.5 -25.5t38.5 4.5q0 16 -3.5 36t-17.5 28l-469 277h-43l-469 -277q-10 -11 -16 -25t-6 -29v-5.5t1 -4.5v0q8 -14 38.5 -4.5t46.5 25.5z" />
    <glyph glyph-name="uniE94E" unicode="&#xe94e;" horiz-adv-x="704" 
d="M64 192v48h576v-48h-576zM608 -64h-513q-39 0 -67 28t-28 68v832q0 40 28 68t68 28v0h512q40 0 68 -28t28 -68v0v-832q0 -40 -28.5 -68t-67.5 -28v0v0v0zM96 896q-13 0 -22.5 -9.5t-9.5 -22.5v0v-832q0 -13 9.5 -22.5t22.5 -9.5h512q13 0 22.5 9.5t9.5 22.5v0v832
q0 13 -9.5 22.5t-22.5 9.5v0h-512zM320 195h64v-196h-64v196z" />
    <glyph glyph-name="uniE94F" unicode="&#xe94f;" horiz-adv-x="898" 
d="M62 213v47h45h98.5h98.5q44 0 43 0q-2 -10 -3 -22l-2 -24v-1h-280zM631 -64q-55 0 -103 21q-49 21 -85 57t-57 85t-21 104t21 104q21 48 57 84.5t85 57.5q48 21 103 21q56 0 104 -21q49 -21 85 -57.5t57 -84.5q21 -49 21 -104v0q0 -55 -21 -104q-21 -48 -57 -84.5
t-85 -57.5q-48 -21 -104 -21v0zM631 414q-43 0 -82 -16q-38 -17 -67 -45.5t-45 -67.5q-17 -38 -17 -82t17 -82q16 -39 45 -67.5t67 -45.5q39 -17 82 -17q44 0 83 17q38 17 67 45.5t45 67.5q17 38 17 82v0v0v0q0 44 -17 82q-16 39 -45 67.5t-67 45.5q-39 16 -83 16v0v0z
M403 27h-310v0v0q-12 0 -21.5 9t-9.5 22v809q0 12 9.5 21.5t21.5 9.5v0h498v0v0q13 0 22 -9.5t9 -21.5v0v0v0v-378h8v0v0q14 0 28.5 -1.5t28.5 -3.5h-2v383v0v0q0 38 -27.5 65.5t-65.5 27.5h-1v0h-499q-38 0 -65 -27.5t-27 -65.5v0v0v0v-809q0 -39 27.5 -66.5t65.5 -27.5v0
h375q-19 13 -35 28.5t-30 33.5v1v0zM674 203q0 -18 -12.5 -30t-30.5 -12q-17 0 -29.5 12t-12.5 30q0 17 12.5 29.5t29.5 12.5q18 0 30.5 -12.5t12.5 -29.5zM537 203q0 -18 -12.5 -30t-29.5 -12q-18 0 -30 12t-12 30q0 17 12 29.5t30 12.5q17 0 29.5 -12.5t12.5 -29.5z
M821 203q0 -18 -12.5 -30t-29.5 -12t-29.5 12t-12.5 30q0 17 12.5 29.5t29.5 12.5t29.5 -12.5t12.5 -29.5z" />
    <glyph glyph-name="uniE950" unicode="&#xe950;" horiz-adv-x="935" 
d="M935 301q0 -104 -39 -174t-104 -112.5t-149 -60.5q-85 -18 -176 -18t-175 18t-149 60.5t-104 112.5t-39 174t39 180q40 76 87 125t86 73l40 24l-39.5 57t3.5 125q21 35 63 50q42 16 84 21t73 4l31 -2l32 2q31 1 73 -4t84 -21q42 -15 63 -50q43 -68 3.5 -125l-39.5 -57
l40 -24q39 -24 86 -73t87 -125q39 -76 39 -180v0v0zM628 775q34 45 13 67t-59.5 30t-76.5 7l-38 -1l-38 1t-77 -6.5t-60 -29.5t13 -67q53 -71 -8 -120.5t-94 -84.5q-16 -17 -41 -50q-24 -33 -45.5 -74.5t-32.5 -89.5q-12 -47 -3 -93q10 -46 33 -90q23 -45 68 -79.5
t114 -55.5q70 -21 171 -21t170 21t113 55.5t67 78.5t33 90q9 47 -2 94q-12 47 -33 88.5t-46 74.5q-24 33 -40 50q-32 35 -92.5 84.5t-8.5 120.5v0v0zM573 434q13 0 22 9.5t9 22.5t-9 22t-22 10v0h-51l26 44q2 3 3 7t1 9q0 9 -4.5 16t-11.5 11v0q-3 2 -7 3.5t-9 1.5
q-9 0 -16 -4.5t-11 -11.5v0l-26 -44l-25 44q-4 7 -11 11.5t-16 4.5v0q-13 0 -22.5 -9.5t-9.5 -22.5q0 -5 1 -9t3 -7v0l25 -44h-50q-13 -1 -22 -10t-9 -22t9 -22.5t22 -9.5v0h74v-43h-74q-13 0 -22.5 -9t-9.5 -23q0 -13 9.5 -22.5t22.5 -9.5h74v-74q0 -13 9 -22.5t22 -9.5
q14 0 23 9.5t9 22.5v0v74h74q13 0 22.5 9.5t9.5 22.5q0 14 -9.5 23t-22.5 9h-74v43h74v0z" />
    <glyph glyph-name="uniE951" unicode="&#xe951;" 
d="M896 960h-768q-53 0 -90.5 -37.5t-37.5 -90.5v-768q0 -53 37.5 -90.5t90.5 -37.5h768q53 0 90.5 37.5t37.5 90.5v768q0 53 -37.5 90.5t-90.5 37.5zM512 173q-34 0 -63.5 4.5t-58.5 14.5q-19 -10 -43 -28t-33 -23q-20 -10 -20 1.5v11.5l13 76q-57 39 -89 98t-32 126
q0 60 25 113q26 52 70.5 91t103.5 62q60 22 127 22q82 0 154 -34t115 -87l-320 -147q-5 -2 -10 -3.5t-10 -1.5q-9 0 -17 3t-15 8v0l-51 38l-16.5 10t-2.5 -29l51 -115l8 -13.5t37 0.5q12 5 57 31q45 27 102 61t116 69q58 35 96 57q15 -29 23.5 -62t8.5 -66q0 -58 -25 -110
q-26 -52 -70.5 -91.5t-103.5 -63.5q-60 -23 -127 -23v0z" />
    <glyph glyph-name="uniE952" unicode="&#xe952;" 
d="M853 875q36 0 61 -25t25 -61v0v-682q0 -36 -25 -61t-61 -25v0h-682q-36 0 -61 25t-25 61v0v682q0 36 25 61t61 25v0h682v0zM853 960h-682q-71 0 -121 -50t-50 -121v0v-682q0 -71 50 -121t121 -50v0h682q71 0 121 50t50 121v0v682q0 71 -50 121t-121 50v0v0zM498 671h-256
v64h547v-63h-226v-182h190v-62h-190v-203h256v-63h-613v63h101v319h63v-319h128v446z" />
    <glyph glyph-name="uniE953" unicode="&#xe953;" horiz-adv-x="1109" 
d="M427 363q16 0 27 11.5t11 27.5v0v0v0v159q0 17 -11.5 28t-27.5 11t-27.5 -11t-11.5 -28v0v-117h-111q-16 0 -27.5 -11.5t-11.5 -28.5q0 -16 11.5 -27.5t27.5 -11.5v0zM797 259h1.5h1.5q67 0 114 -47.5t47 -114.5q0 -66 -47 -113.5t-114 -47.5q-56 0 -98.5 33.5
t-56.5 84.5l-1 1h-152q-14 -52 -57 -86.5t-99 -34.5q-66 0 -113 47t-47 114q0 66 47 113t113 47q56 0 99 -34t56 -86l1 -1h151q12 53 55 88.5t99 36.5v0v0zM341 15q1 -1 2 -1h3q35 0 60 25t25 61q0 35 -25 60t-60 25q-36 0 -61 -25t-25 -60v0v0v0q0 -34 23.5 -59t57.5 -26v0
v0zM799 15q1 -1 2 -1h2q35 0 60 25t25 61q0 35 -25 60t-60 25t-60 -25t-25 -60v0v0v0q0 -34 23.5 -59t57.5 -26v0v0zM1067 59q-18 0 -30.5 12.5t-12.5 30.5v0v730q0 18 -12.5 30.5t-30.5 12.5v0h-512q-17 0 -29.5 -12.5t-12.5 -30.5v0v-107q0 -24 -13 -44.5t-34 -30.5v-1
l-248 -124q-21 -11 -34 -31.5t-13 -44.5v-1v0v0v-347q0 -18 -12.5 -30.5t-29.5 -12.5q-18 0 -30.5 12.5t-12.5 30.5v0v347v0.5v0.5q0 50 26 90.5t68 61.5l1 1l246 123v107q0 53 37.5 90.5t90.5 37.5v0h512q53 0 90.5 -37.5t37.5 -90.5v0v-730q0 -18 -12.5 -30.5t-29.5 -12.5
v0v0zM566 685q-1 -39 -5.5 -77t-11.5 -75l1 5l-38 12q8 30 12.5 64.5t6.5 71.5v1zM582 789h48v-469h-48v469zM667 704q10 -23 19 -50.5t17 -57.5l1 -5l-39 -10q-8 33 -16.5 62t-19.5 56l2 -6zM699 718h85v71h47v-73h108v-154h35v-47h-127q24 -50 60 -90t81 -68l2 -1l-33 -39
q-46 33 -82.5 75.5t-60.5 93.5l-2 2q-16 -55 -50.5 -98.5t-81.5 -71.5l-2 -1l-29 41q44 25 75 64.5t44 88.5v2h-91v47h104q2 14 3 30.5t1 32.5v2v2v0v41h-85zM834 672v-29q0 -21 -1.5 -41.5t-4.5 -40.5l1 3h67v104z" />
    <glyph glyph-name="uniE954" unicode="&#xe954;" 
d="M939 881q2 0 4 -2t2 -4v0v-598l-6 -9q-28 -32 -68 -76t-93.5 -84t-119.5 -68t-146 -28t-146 27q-67 27 -120 66.5t-93 83.5q-40 45 -68 79l-6 9v598q0 2 2 4t4 2v0h854v0zM939 960h-854q-35 0 -60 -25t-25 -60v0v-598v0v0q0 -15 5 -29t15 -25v0q28 -34 73 -83
q44 -49 105 -94.5t140 -77.5q78 -32 174 -32t174 32q79 32 140 77.5t105 94.5q45 49 73 83q10 11 15 25t5 29v0v0v0v598q0 35 -25 60t-60 25v0v0zM210 561h189q33 63 55 106l67 -19l-47 -86h342v-63h-133q-17 -46 -39 -86t-48 -76l1 2q94 -39 208 -101l-45 -57
q-108 61 -211 109q-30 -25 -64 -44q-34 -20 -71 -33.5t-78 -20.5q-40 -8 -82 -8h-4h-4h1l-38 60h9h10q70 0 135 20t120 56l-2 -1q-97 44 -183 68q32 53 66 111h-154v63zM807 751v-155h-70v92h-451v-91h-66v154h256q-7 16 -14.5 30t-15.5 27l1 -2l74 12q14 -30 29 -67h257z
M445 495l-52 -85q78 -23 143 -49q26 28 47.5 61t36.5 70l1 3h-176z" />
  </font>
</defs>
</svg>
