<?xml version="1.0" standalone="no"?>
<!DOCTYPE svg PUBLIC "-//W3C//DTD SVG 1.1//EN" "http://www.w3.org/Graphics/SVG/1.1/DTD/svg11.dtd" >
<svg xmlns="http://www.w3.org/2000/svg">
<metadata>Generated by IcoMoon</metadata>
<defs>
<font id="icomoon" horiz-adv-x="1024">
<font-face units-per-em="1024" ascent="960" descent="-64" />
<missing-glyph horiz-adv-x="1024" />
<glyph unicode="&#x20;" horiz-adv-x="512" d="" />
<glyph unicode="&#xe603;" glyph-name="wechat" d="M669 584.6q14 0 30-2-20 95-110.5 157.5t-206.5 62.5q-130 0-222-77.5t-92-189.5q0-124 126-212l-31-94 109 55q80-16 110-16 14 0 30 1-10 33-10 66 0 103 77.5 176t189.5 73zM500 669.6q18 0 28.5-11t10.5-28.5-10.5-28.5-28.5-11-32.5 11.5-14.5 28.5 14.5 28 32.5 11zM280 590.6q-18 0-32.5 11.5t-14.5 28.5 14.5 28 32.5 11 29-11 11-28.5-11-28.5-29-11zM956 339.6q0 93-80 160.5t-187 67.5q-112 0-189.5-67t-77.5-161.5 77.5-161 189.5-66.5q31 0 94 16l86-47-23 78q110 83 110 181zM602 378.6q-11 0-21 10t-10 21.5 10 21.5 21 10q17 0 28.5-9.5t11.5-22-11.5-22-28.5-9.5zM775 378.6q-12 0-21.5 10t-9.5 21.5 9.5 21.5 21.5 10q17 0 28-9.5t11-22-11-22-28-9.5z" />
<glyph unicode="&#xe60a;" glyph-name="edit" d="M967 935.6q10-11 12-24.5t-6-21.5l-455-455q-9-9-22.5-7t-24 13-12.5 24.5 6 21.5l456 455q8 8 21.5 6.5t24.5-12.5v0zM861 564.6v-493q0-8-5.5-13.5t-12.5-5.5h-726q-7 0-12.5 5.5t-5.5 13.5v733q0 8 5.5 13.5t12.5 5.5h490v54h-490q-30 0-51-21.5t-21-51.5v-733q0-30 21-51.5t51-21.5h726q30 0 51 21.5t21 51.5v493h-54z" />
<glyph unicode="&#xe65b;" glyph-name="check" d="M149 497.6l-85-83 325-352q9 16 26 45t74 117 119 174 158 202.5 194 216.5l-34 67q-11-7-31.5-21t-85-64.5-129.5-109-156.5-156.5-174.5-205z" />
<glyph unicode="&#xe723;" glyph-name="close" d="M557 472.6l266 264q9 9 9 22t-9.5 22.5-22.5 9.5-23-9l-265-264-263 264q-9 9-22.5 9t-23-9-9.5-22.5 10-22.5l263-264-265-264q-10-9-10-22.5t9.5-22.5 22.5-9 23 9l265 264 265-267q10-9 23-9t22.5 9.5 9.5 22.5-9 23z" />
<glyph unicode="&#xe727;" glyph-name="add" d="M921.6 345.6h-307.2v-307.2c0-56.554-45.846-102.4-102.4-102.4s-102.4 45.846-102.4 102.4v0 307.2h-307.2c-56.554 0-102.4 45.846-102.4 102.4s45.846 102.4 102.4 102.4v0h307.2v307.2c0 56.554 45.846 102.4 102.4 102.4s102.4-45.846 102.4-102.4v0-307.2h307.2c56.554 0 102.4-45.846 102.4-102.4s-45.846-102.4-102.4-102.4v0z" />
<glyph unicode="&#xe729;" glyph-name="cut" d="M921.6 345.6h-819.2c-56.554 0-102.4 45.846-102.4 102.4s45.846 102.4 102.4 102.4v0h819.2c56.554 0 102.4-45.846 102.4-102.4s-45.846-102.4-102.4-102.4v0z" />
<glyph unicode="&#xe72f;" glyph-name="checkbox" d="M512 25.6q-185 0-316.5 131.5t-131.5 316.5 131.5 316.5 316.5 131.5 316.5-131.5 131.5-316.5-131.5-316.5-316.5-131.5zM512 857.6q-159 0-271.5-112.5t-112.5-271.5 112.5-271.5 271.5-112.5 271.5 112.5 112.5 271.5-112.5 271.5-271.5 112.5z" />
<glyph unicode="&#xe730;" glyph-name="checkbox-checked" d="M512 919.6q-91 0-173.5-35.5t-142-95-95-142-35.5-173.5 35.5-173.5 95-142 142-95 173.5-35.5 173.5 35.5 142 95 95 142 35.5 173.5-35.5 173.5-95 142-142 95-173.5 35.5zM727 547.6l-256-259v-1q-2-1-7-4-1-1-2-1.5t-2-1.5q-6-2-12-2t-12 2q-1 1-2 1.5t-1 1.5q-6 3-7 4v1h-1l-126 129q-9 10-9 23t9.5 22.5 23 9 22.5-9.5l103-106 234 236q9 9 22.5 9t22.5-9 9.5-22.5-9.5-22.5z" />
<glyph unicode="&#xe733;" glyph-name="favorite" d="M767 25.6q-8 0-15 4l-242 134-242-133q-17-10-33.5 1.5t-13.5 31.5l47 285-196 202q-14 14-7 32 5 18 24 22l155 26q14 3 24.5-5t13-21-5.5-23.5-21-13.5l-95-16 165-170q12-12 9-28l-39-235 200 109q15 9 31 0l199-110-38 236q-3 16 9 27l164 169-225 34q-17 3-24 18l-100 213-100-212q-5-12-17.5-16.5t-24.5 1-16.5 18 0.5 24.5l129 274q9 18 29 18v0q21 0 29-18l121-259 270-41q20-3 26-21.5t-8-32.5l-197-202 46-285q3-19-13-31-7-6-18-6z" />
<glyph unicode="&#xe736;" glyph-name="store2" d="M953 632.6v2q-1 2-2 5l-75 187q-10 29-35.5 45.5t-58.5 16.5h-527q-33 0-57-16t-34-44l-80-191-1-4q-9-28-9-56 0-48 25-90t68-65v0 0 0 0q36-19 83-19 82 1 134 63 52-62 134-62 81 0 133 62 52-62 134-62 49 0 85 20 42 23 66.5 64.5t24.5 89.5q0 28-8 54zM839 480.6q-22-12-54-12-29 0-54 14t-41 39q-4 9-8 13-12 13-31 13-20 0-31-13-4-5-8-13-16-25-41-39t-53-15q-29 1-54 15t-41 39q-4 8-7 12-11 13-32 13t-30-12q-6-6-9-14-16-25-41-39t-54-14q-31 0-53 11v0 0q-27 15-43 41.5t-16 57.5q0 19 6 37 0 1 1 3l79 188q7 19 32 19h526q28-2 34-21l75-185q0-2 1-4 6-18 6-36-1-31-16.5-57.5t-42.5-40.5zM863 377.6q-13 0-22.5-9.5t-9.5-22.5v-174q0-8-5.5-13.5t-12.5-5.5h-602q-8 0-13 5.5t-5 12.5v171q0 14-9.5 23t-22.5 9v0q-14 0-23-9t-9-23v-171q0-34 24-58t58-24h602q34 1 58 25t24 58v174q0 13-9.5 22.5t-22.5 9.5zM768 601.6h-512q-13 0-22.5 9.5t-9.5 22.5 9.5 22.5 22.5 9.5h512q13 0 22.5-9.5t9.5-22.5-9.5-22.5-22.5-9.5z" />
<glyph unicode="&#xe73f;" glyph-name="grid" d="M384 505.6h-192q-40 0-68 28t-28 68v192q0 40 28 68t68 28h192q40 0 68-28t28-68v-192q0-40-28-68t-68-28zM192 825.6q-13 0-22.5-9.5t-9.5-22.5v-192q0-13 9.5-22.5t22.5-9.5h192q13 0 22.5 9.5t9.5 22.5v192q0 13-9.5 22.5t-22.5 9.5h-192zM384 57.6h-192q-40 0-68 28t-28 68v192q0 40 28 68t68 28h192q40 0 68-28t28-68v-192q0-40-28-68t-68-28zM192 377.6q-13 0-22.5-9.5t-9.5-22.5v-192q0-13 9.5-22.5t22.5-9.5h192q13 0 22.5 9.5t9.5 22.5v192q0 13-9.5 22.5t-22.5 9.5h-192zM832 57.6h-192q-40 0-68 28t-28 68v64q0 40 28 68t68 28h192q40 0 68-28t28-68v-64q0-40-28-68t-68-28zM640 249.6q-13 0-22.5-9.5t-9.5-22.5v-64q0-13 9.5-22.5t22.5-9.5h192q13 0 22.5 9.5t9.5 22.5v64q0 13-9.5 22.5t-22.5 9.5h-192zM832 377.6h-192q-40 0-68 28t-28 68v320q0 40 28 68t68 28h192q40 0 68-28t28-68v-320q0-40-28-68t-68-28zM640 825.6q-13 0-22.5-9.5t-9.5-22.5v-320q0-13 9.5-22.5t22.5-9.5h192q13 0 22.5 9.5t9.5 22.5v320q0 13-9.5 22.5t-22.5 9.5h-192z" />
<glyph unicode="&#xe742;" glyph-name="list" d="M896 729.6h-288q-13 0-22.5 9.5t-9.5 22.5 9.5 22.5 22.5 9.5h288q13 0 22.5-9.5t9.5-22.5-9.5-22.5-22.5-9.5zM896 569.6h-288q-13 0-22.5 9.5t-9.5 22.5 9.5 22.5 22.5 9.5h288q13 0 22.5-9.5t9.5-22.5-9.5-22.5-22.5-9.5zM896 313.6h-288q-13 0-22.5 9.5t-9.5 22.5 9.5 22.5 22.5 9.5h288q13 0 22.5-9.5t9.5-22.5-9.5-22.5-22.5-9.5zM896 153.6h-288q-13 0-22.5 9.5t-9.5 22.5 9.5 22.5 22.5 9.5h288q13 0 22.5-9.5t9.5-22.5-9.5-22.5-22.5-9.5zM384 505.6h-192q-40 0-68 28t-28 68v192q0 40 28 68t68 28h192q40 0 68-28t28-68v-192q0-40-28-68t-68-28zM192 825.6q-13 0-22.5-9.5t-9.5-22.5v-192q0-13 9.5-22.5t22.5-9.5h192q13 0 22.5 9.5t9.5 22.5v192q0 13-9.5 22.5t-22.5 9.5h-192zM384 57.6h-192q-40 0-68 28t-28 68v192q0 40 28 68t68 28h192q40 0 68-28t28-68v-192q0-40-28-68t-68-28zM192 377.6q-13 0-22.5-9.5t-9.5-22.5v-192q0-13 9.5-22.5t22.5-9.5h192q13 0 22.5 9.5t9.5 22.5v192q0 13-9.5 22.5t-22.5 9.5h-192z" />
<glyph unicode="&#xe749;" glyph-name="scan" d="M928 441.6h-832q-13 0-22.5 9.5t-9.5 22.5 9.5 22.5 22.5 9.5h832q13 0 22.5-9.5t9.5-22.5-9.5-22.5-22.5-9.5zM832 57.6h-192q-13 0-22.5 9.5t-9.5 22.5 9.5 22.5 22.5 9.5h192q13 0 22.5 9.5t9.5 22.5v160q0 13 9.5 22.5t22.5 9.5 22.5-9.5 9.5-22.5v-160q0-40-28-68t-68-28zM352 57.6h-160q-40 0-68 28t-28 68v160q0 13 9.5 22.5t22.5 9.5 22.5-9.5 9.5-22.5v-160q0-13 9.5-22.5t22.5-9.5h160q13 0 22.5-9.5t9.5-22.5-9.5-22.5-22.5-9.5zM128 601.6q-13 0-22.5 9.5t-9.5 22.5v160q0 40 28 68t68 28h160q13 0 22.5-9.5t9.5-22.5-9.5-22.5-22.5-9.5h-160q-13 0-22.5-9.5t-9.5-22.5v-160q0-13-9.5-22.5t-22.5-9.5zM896 601.6q-13 0-22.5 9.5t-9.5 22.5v160q0 13-9.5 22.5t-22.5 9.5h-192q-13 0-22.5 9.5t-9.5 22.5 9.5 22.5 22.5 9.5h192q40 0 68-28t28-68v-160q0-13-9.5-22.5t-22.5-9.5z" />
<glyph unicode="&#xe74f;" glyph-name="yi" d="M985 929.6h-911v-412h911v412zM880 609.6h-697v66h697v-66zM880 772.6h-697v61h697v-61zM153 452.6l-40 22-70-145 92-53 41 79h147l-267-276 97-39 306 315h180l-259-271 97-44 298 315h105l-13-219h-114v-96h223l13 412h-836z" />
<glyph unicode="&#xe752;" glyph-name="search" d="M953 77.6l-152 163q96 115 96 265 0 113-56 209t-152 151.5-208.5 55.5-208.5-55.5-151.5-151.5-55.5-209 55.5-208.5 151.5-151.5 209-56q90 0 172 37 12 6 16.5 18.5t-1 24.5-18 16.5-24.5-0.5q-69-32-145-32-96 0-177 47t-128 128.5-47 177 47 176.5 128 128 176.5 47 176.5-47 128.5-128 47.5-177q0-141-98-244-10-9-9.5-22.5t9.5-22.5q1 0 2-1t1.5-1 1-1.5 1.5-2.5l166-177q9-10 23-10 12 0 22 9t10.5 22-9.5 23z" />
<glyph unicode="&#xe765;" glyph-name="cod" d="M104 381.6q42 9 82 24.5t83 37.5l43 22q15 7 31 7.5t26-1 44.5-10.5 56.5-14q42-9 75.5-15t46.5-7l13-1q10-18-1-41t-34-30q-34-6-88.5-2.5t-87.5 8.5q-12 2-11-11 0-10 12-22 20-21 99-45 27-6 54.5-4.5t47.5 6.5l21 5q99 56 164 71 19 4 31 1.5t17.5-9.5 8-14.5 1.5-12.5v-6q-120-80-158-100-9-5-40-26.5t-57-34-49-10.5q-19 2-136 26t-140 21q-10-1-25-4.5t-35-8.5-31-7q11-17 22-29 45-45 135.5-69.5t187-24.5 187.5 24.5 135 70 68.5 138 24.5 191-24.5 191.5-68.5 138-135 69.5-187.5 24.5-187-24.5-135.5-69.5q-54-56-77-176.5t-9-246.5zM400 570.6q0 15 10.5 25.5t25.5 10.5h303q15 0 25.5-10.5t10.5-25.5v-4q0-15-10.5-25.5t-25.5-10.5h-303q-15 0-25.5 10.5t-10.5 25.5v4zM400 723.6q0 15 10.5 25.5t25.5 10.5h303q15 0 25.5-10.5t10.5-25.5v-4q0-15-10.5-25.5t-25.5-10.5h-303q-15 0-25.5 10.5t-10.5 25.5v4z" />
<glyph unicode="&#xe766;" glyph-name="remit" d="M825 923.6h-626q-57 0-97-40t-40-97v-626q0-57 40-97t97-40h626q57 0 97 40t40 97v626q0 57-40 97t-97 40zM335 753.6q31-61 45-127h-101q-18 66-48 127h104zM332 193.6h-109q24 48 44 120t25 126h93q-1-53-16.5-125t-36.5-121v0zM284 469.6q-18 67-48 129h101q33-61 48-129h-101zM801 211.6h-299q-99-5-94 89v432h385v-73h-266v-339q-2-43 38-41h236v-68z" />
<glyph unicode="&#xe768;" glyph-name="local" d="M511.5 921.6q-95.5 0-176.5-47t-128-128.5-47-176.5q0-52 34-127t76.5-137 98-131 79.5-95 41-44q9-10 23-10h1q14 0 23 11l109 125q219 268 219 408 0 95-47 176.5t-128.5 128.5-177 47zM512 409.6q-66 0-113 47t-47 113 47 113 113 47 113-47 47-113-47-113-113-47z" />
<glyph unicode="&#xe76e;" glyph-name="less" d="M887 368.6l-353 350-2 1v1q-10 9-23 9t-22-10l-350-353q-10-9-10-22.5t9.5-22.5 23-9 22.5 9l328 331 332-330q10-9 23-9t22.5 9.5 9.5 23-10 22.5z" />
<glyph unicode="&#xe771;" glyph-name="drop-down" d="M163 696.6q-31 0-44.5-31t9.5-54l349-350q15-15 35-15t35 15l349 350q23 22 10 53.5t-45 31.5h-698z" />
<glyph unicode="&#xe772;" glyph-name="more" d="M890.5 654.6q-9.5 9-23 9t-22.5-9l-328-331-332 329q-10 10-23 10t-22.5-9.5-9.5-23 10-22.5l353-350 2-1v-1q10-9 23-9t22 9l350 354q10 9 10 22.5t-9.5 22.5z" />
<glyph unicode="&#xe775;" glyph-name="next" d="M761 453.6l1 1t1 2q7 13 4.5 28.5t-14.5 26.5l-353 334q-15 14-34.5 13.5t-33.5-15-13-34.5 15-34l317-299-316-305q-14-13-14.5-33t13.5-35q14-14 35-14 19 0 33 13l350 338 0.5 1t1 1 1 0.5l0.5 0.5q1 2 6 10z" />
<glyph unicode="&#xe778;" glyph-name="circle-next" d="M512 25.6q-185 0-316.5 131.5t-131.5 316.5 131.5 316.5 316.5 131.5 316.5-131.5 131.5-316.5-131.5-316.5-316.5-131.5zM512 857.6q-159 0-271.5-112.5t-112.5-271.5 112.5-271.5 271.5-112.5 271.5 112.5 112.5 271.5-112.5 271.5-271.5 112.5zM669 484.6v0q-3 6-7 10v0 0l-159 160q-9 9-22.5 9t-23-9-9.5-22.5 10-22.5l136-137-138-136q-9-9-9-22.5t9.5-23 22.5-9.5 22 10l161 158q15 15 7 35z" />
<glyph unicode="&#xe779;" glyph-name="before" d="M672 73.6q-20 0-34 14l-352 352q-14 14-14 34t14 34l352 352q14 14 34 14t34-14 14-34-14-34l-318-318 318-318q14-14 14-34t-14-34-34-14z" />
<glyph unicode="&#xe7da;" glyph-name="alipay" d="M312 230.6q-46 0-78.5 13t-46 32.5-18.5 38-2 33.5q6 30 37 54.5t81 24.5q114 0 248-65-48-63-105-97t-116-34zM959 309.6v440q0 72-50.5 122t-121.5 50h-551q-71 0-121.5-50t-50.5-122v-550q0-71 50.5-121.5t121.5-50.5h551q63 0 110.5 40.5t58.5 100.5q-237 103-346 155-63-76-129.5-114t-155.5-38q-91 0-147.5 49.5t-48.5 119.5q2 21 8.5 40.5t23 41.5 41 37 65.5 22.5 93 2.5q23-2 45.5-5.5t35-5.5 36.5-9 30-8.5 36.5-12 35.5-11.5q31 57 49 121h-347v35h172v62h-210v37h210v90q2 14 17 14h86v-104h224v-37h-224v-62h182q-24-101-74-186 24-9 97.5-32t135.5-42l62-19z" />
<glyph unicode="&#xe900;" glyph-name="label-order" d="M940.651-64h-857.302c-46.032 0-83.349 37.317-83.349 83.349v0 857.302c0 46.032 37.317 83.349 83.349 83.349v0h857.302c46.032 0 83.349-37.317 83.349-83.349v0-857.302c0-46.032-37.317-83.349-83.349-83.349v0zM83.349 936.186c-32.88 0-59.535-26.655-59.535-59.535v0-857.302c0-32.88 26.655-59.535 59.535-59.535v0h857.302c32.88 0 59.535 26.655 59.535 59.535v0 857.302c0 32.88-26.655 59.535-59.535 59.535v0zM519.62 591.36h109.782v-353.399c0.187-2.835 0.294-6.146 0.294-9.482 0-9.612-0.887-19.016-2.583-28.136l0.146 0.944c-2.498-3.494-5.893-6.199-9.852-7.805l-0.15-0.054c-5.59-2.086-12.050-3.294-18.791-3.294-2.442 0-4.848 0.158-7.206 0.466l0.278-0.030-47.628 2.62c7.993-15.37 16.035-34.009 22.828-53.237l0.986-3.202q5.477-17.146 9.049-30.006c1.058-0.013 2.307-0.020 3.557-0.020 27.409 0 54.005 3.482 79.37 10.027l-2.198-0.481c17.187 1.607 32.341 9.227 43.567 20.705l0.012 0.013c3.289 9.534 5.188 20.521 5.188 31.951 0 2.164-0.068 4.312-0.202 6.443l0.015-0.291v416.268h21.909l80.967-2.381v75.728l-80.967-2.381h-208.372l-76.919 2.381v-75.49zM389.834 538.493l-47.628-1.667h-91.446l-45.961 1.667v-75.967l45.961 1.905h60.487v-195.036c0.114-2.068 0.179-4.489 0.179-6.924 0-10.806-1.281-21.312-3.698-31.376l0.185 0.912c-3.502-8.334-8.684-15.35-15.165-20.893l-0.076-0.063 13.336-23.814q3.572-6.906 31.196-66.441 8.811 8.097 51.676 51.2c33.108 32.764 68.039 63.922 104.532 93.214l2.631 2.042-6.668 27.624q-3.334 11.669-10.002 55.248l-19.289-19.527c-22.021-20.191-46.039-39.14-71.404-56.244l-2.181-1.386v193.131zM321.012 619.937q17.622-20.718 45.247-56.201l13.336 13.336 30.244 30.482 16.193 15.241-18.575 19.527-50.247 53.581-20.718 21.909c-18.252-18.065-38.179-34.513-59.501-49.067l-1.463-0.942q27.862-26.91 45.485-47.628z" />
<glyph unicode="&#xe901;" glyph-name="notice" horiz-adv-x="811" d="M746.667 234.667c21.333-21.333 64-85.333 64-149.333 0-21.867-21.717-42.667-42.667-42.667h-234.667c-3.541-30.677-19.925-47.872-39.509-68.907-22.315-23.296-53.845-38.059-88.661-38.059s-65.856 14.763-88.96 38.059c-19.584 21.035-35.584 38.229-38.869 68.907h-234.667c-34.603 0-42.667 42.667-42.667 42.667 0 64 64.043 127.957 85.333 149.333 42.667 42.667 64 106.667 64 192s-21.333 213.333 106.667 298.667c24.768 15.893 65.472 35.84 85.333 42.667 0 0-42.667 21.333-42.667 85.333 0 42.667 21.333 106.667 106.667 106.667s106.667-64 106.667-106.667c0-64-40-82.667-42.667-85.333 0 0 46.336-17.131 85.333-42.667 128-85.333 106.667-213.333 106.667-298.667s42.667-149.333 85.333-192zM450.944 898.539v0c-11.371 11.605-27.883 18.901-45.44 18.901-17.323 0-33.557-7.296-45.483-18.901-11.371-11.328-18.389-27.243-18.389-44.8 0-17.28 7.019-33.749 18.389-45.376 11.925-11.328 28.16-18.88 45.483-18.88 17.557 0 34.069 7.552 45.44 18.88 11.349 11.627 18.389 28.096 18.389 45.376 0 17.557-7.040 33.472-18.389 44.8v0zM490.667 682.667c-29.824 18.069-52.139 21.333-85.333 21.333-33.984 0-55.467-3.669-85.333-21.333-106.667-64-106.667-213.333-106.667-256s0-106.667-21.333-149.333c-21.632-42.517-106.667-106.667-106.667-170.667h640c0 64-85.333 128-106.667 170.667s-21.333 106.667-21.333 149.333c0 42.667 0 192-106.667 256zM447.851 42.731v0h-85.461c1.984-9.92 5.909-18.517 11.115-25.792 8.149-10.56 19.008-17.195 31.381-17.195 12.331 0 23.68 6.635 31.083 17.195 5.44 7.275 9.387 15.872 11.883 25.792v0z" />
<glyph unicode="&#xe902;" glyph-name="label-goods" d="M940.651-64h-857.302c-46.032 0-83.349 37.317-83.349 83.349v0 857.302c0 46.032 37.317 83.349 83.349 83.349v0h857.302c46.032 0 83.349-37.317 83.349-83.349v0-857.302c0-46.032-37.317-83.349-83.349-83.349v0zM83.349 936.186c-32.88 0-59.535-26.655-59.535-59.535v0-857.302c0-32.88 26.655-59.535 59.535-59.535v0h857.302c32.88 0 59.535 26.655 59.535 59.535v0 857.302c0 32.88-26.655 59.535-59.535 59.535v0zM393.168 715.669q-12.621 9.287-23.814 19.051l-12.383-17.86c-9.636-12.353-20.024-23.269-31.381-33.093l-0.291-0.246c-15.328-14.309-31.957-27.762-49.499-39.994l-1.462-0.966c-19.452-12.948-41.758-24.419-65.335-33.295l-2.297-0.759q22.147-32.625 27.386-43.103t11.193-23.814q44.532 25.005 53.105 30.482t21.909 15.241v-87.873l-2.381-39.531h77.395l-1.667 39.293v85.73l1.667 44.294h-19.527l63.107 60.249c-17.691 8.461-32.674 17.184-46.885 26.95l1.162-0.755zM430.556 608.982l15.717-25.719c5.92-11.691 11.956-26.012 17.080-40.76l0.78-2.581 49.771 13.098v-28.1c0.025-8.475 1.153-16.675 3.248-24.48l-0.152 0.666c2.243-8.101 6.948-14.891 13.246-19.7l0.089-0.066c10.516-6.655 23.126-10.963 36.664-11.893l0.248-0.014c23.749-2.33 51.336-3.659 79.234-3.659 8.314 0 16.601 0.118 24.858 0.352l-1.215-0.027q76.443 0 86.921 2.381c8.414 1.836 15.741 5.674 21.718 10.996l-0.048-0.042c8.554 7.71 15.465 17.060 20.266 27.576l0.214 0.524q9.287 20.004 23.814 52.629c-28.29 10.194-52.485 21.755-75.308 35.377l1.961-1.085-6.192-25.719c-1.69-7.143-4.833-13.383-9.117-18.661l0.067 0.086c-3.211-4.573-7.364-8.269-12.196-10.863l-0.187-0.092c-4.141-1.534-8.924-2.421-13.914-2.421-0.634 0-1.265 0.014-1.892 0.043l0.089-0.003c-13.624-0.782-29.562-1.228-45.604-1.228s-31.98 0.446-47.802 1.326l2.198-0.098c-7.814 0.107-15.050 2.492-21.099 6.519l0.143-0.090c-2.083 2.555-3.344 5.852-3.344 9.443 0 0.197 0.004 0.392 0.011 0.587l-0.001-0.028v21.433q85.254 28.339 110.973 37.864t71.442 28.339l-17.86 18.575c-12.503 14.070-23.985 29.644-33.979 46.217l-0.79 1.411-25.005-15.003q-7.144-4.525-44.532-21.671c-16.561-8.142-36.666-16.216-57.399-22.889l-3.326-0.925v34.054l1.667 37.864h-79.777l1.667-37.864v-54.058c-24.161-7.798-52.461-13.684-81.65-16.536l-1.698-0.134zM508.666 350.363q-9.526 1.905-23.814 6.192l-2.62-26.433c-3.812-31.744-14.392-60.401-30.259-85.367l0.492 0.828c-21.59-30.684-55.744-51.275-94.823-54.269l-0.433-0.027c-34.173-6.429-73.866-10.471-114.372-11.184l-0.65-0.009 16.67-30.482c5.554-12.901 10.248-28.058 13.336-43.792l0.238-1.455q57.392 6.906 97.399 15.479c30.707 7.001 57.808 17.495 82.825 31.301l-1.619-0.819c26.177 13.58 48.046 32.024 65.151 54.314l0.337 0.458c14.68 18.865 26.251 40.997 33.45 65.018l0.366 1.423q9.049 33.34 16.67 72.871-48.819 5.001-58.344 6.906zM307.438 395.609v-138.121l-2.381-44.294h81.92l-2.381 44.294v116.45h265.764v-106.687l-2.62-41.436h80.729l-1.667 43.58v125.5l1.667 47.628-71.442-2.381h-274.575l-77.157 2.381zM684.175 210.575q-71.442 23.814-112.402 38.579c-7.794-15.979-15.717-29.473-24.533-42.306l0.719 1.108q-7.859-10.24-18.575-22.385c93.206-27.508 172.179-58.276 247.9-94.728l-9.76 4.235c6.312 18.007 12.503 32.634 19.455 46.821l-1.119-2.527q7.382 13.098 17.622 29.767-47.628 17.384-119.070 41.436z" />
<glyph unicode="&#xe903;" glyph-name="avatar" horiz-adv-x="809" d="M71.805-24.931c0.086-0.932 0.135-2.015 0.135-3.11 0-19.866-16.104-35.97-35.97-35.97s-35.97 16.104-35.97 35.97c0 1.095 0.049 2.178 0.145 3.248l-0.010-0.138c-0.032 1.445-0.051 3.147-0.051 4.854 0 62.026 24.229 118.392 63.74 160.151l-0.102-0.108c43.057 43.563 100.114 73.204 163.864 81.62l1.436 0.155c8.494 0.925 15.964 4.715 21.552 10.37l0.003 0.003c3.182 3.697 5.46 8.261 6.437 13.289l0.030 0.182c-33.545 30.447-49.307 72.344-62.106 107.775-4.739 14.139-9.887 26.071-15.885 37.487l0.662-1.382h-0.674c-20.285 21.064-36.298 46.398-46.546 74.505l-0.471 1.477c-5.842 13.915-9.236 30.088-9.236 47.054 0 19.318 4.4 37.608 12.254 53.923l-0.324-0.746c-8.552 28.103-13.476 60.404-13.476 93.854 0 0.584 0.002 1.168 0.005 1.752v-0.090c-0.025 1.704-0.040 3.715-0.040 5.729 0 42.796 6.515 84.071 18.607 122.886l-0.785-2.923 1.482 3.368c14.546 50.797 44.22 93.35 83.771 123.662l0.564 0.415c39.838 28.567 89.572 45.682 143.304 45.682 0.865 0 1.73-0.004 2.593-0.013l-0.132 0.001c4.268 0.187 9.274 0.294 14.304 0.294 22.138 0 43.793-2.068 64.782-6.021l-2.161 0.338c33.126-4.402 61.425-22.112 79.788-47.484l0.235-0.341c37.587 3.637 70.458-19.265 96.055-52.81 28.41-37.517 49.065-82.508 58.672-131.46l0.335-2.047c1.828-12.144 2.873-26.158 2.873-40.416s-1.044-28.272-3.061-41.97l0.188 1.554c-3.277-26.468-8.001-49.942-14.3-72.762l0.828 3.517c9.084-16.821 14.423-36.818 14.423-58.062 0-16.496-3.219-32.24-9.063-46.638l0.298 0.831c-10.731-29.711-26.844-55.145-47.341-76.307l0.054 0.056c-6.147-10.239-11.497-22.061-15.437-34.51l-0.325-1.191c-12.394-35.162-26.944-76.251-60.085-106.159 0.453-6.112 2.822-11.597 6.5-15.937l-0.033 0.040c5.574-5.685 13.053-9.484 21.403-10.36l0.152-0.013c65.245-8.725 122.301-38.55 165.26-82.272l0.040-0.041c39.249-41.75 63.364-98.122 63.364-160.126 0-1.63-0.017-3.256-0.050-4.878l0.004 0.242c0.086-0.928 0.135-2.008 0.135-3.099 0-19.717-15.984-35.701-35.701-35.701s-35.701 15.984-35.701 35.701c0 1.091 0.049 2.17 0.145 3.236l-0.010-0.138c0.017 0.851 0.027 1.855 0.027 2.862 0 40.697-15.969 77.663-41.983 104.976l0.059-0.062c-31.646 32.461-73.924 54.424-121.198 60.254l-0.992 0.1c-26.361 2.915-49.403 15.229-66.075 33.465l-0.072 0.080c-19.265 20.747-46.748 98.614-10.912 123.537 25.192 16.57 38.395 52.002 48.768 81.909 9.969 26.944 18.052 49.442 34.353 65.608v0 0c12.42 12.646 22.199 27.93 28.416 44.931l0.28 0.874c2.529 5.051 4.010 11.004 4.010 17.304 0 8.109-2.454 15.645-6.659 21.906l0.089-0.141c-6.404 8.93-10.241 20.079-10.241 32.124 0 5.105 0.689 10.049 1.98 14.744l-0.091-0.39c6.489 20.189 11.823 44.211 15.003 68.907l0.22 2.090c1.38 8.729 2.168 18.796 2.168 29.046 0 47.526-16.949 91.093-45.132 124.987l0.258-0.319c-12.125 15.897-25.327 26.944-36.509 25.192-2.774-0.465-5.969-0.731-9.227-0.731-9.711 0-18.87 2.362-26.935 6.543l0.326-0.154c-10.263 5.708-18.66 13.631-24.759 23.167l-0.164 0.275-2.29 2.829c-8.697 9.911-20.999 16.475-34.837 17.635l-0.19 0.013c-13.67 2.303-29.42 3.62-45.477 3.62-6.087 0-12.13-0.189-18.123-0.562l0.821 0.041c-1.821 0.067-3.961 0.105-6.109 0.105-38.047 0-73.306-11.94-102.233-32.276l0.567 0.378c-27.024-21.117-46.979-50.155-56.441-83.599l-0.275-1.139-1.078-3.099c-8.984-28.684-14.159-61.665-14.159-95.856 0-1.065 0.005-2.128 0.015-3.19l-0.001 0.163c-0.001-0.228-0.001-0.498-0.001-0.768 0-29.33 4.933-57.507 14.015-83.748l-0.541 1.798c2.833-5.286 4.496-11.564 4.496-18.23 0-2.654-0.264-5.246-0.766-7.752l0.042 0.251c-3.772-25.731-22.633-26.944-11.451-60.354 6.693-17.945 16.295-33.354 28.377-46.438l-0.086 0.094 1.078-1.617c14.844-18.148 26.286-39.715 32.973-63.282l0.303-1.249c11.182-29.908 24.384-66.012 49.307-82.987 11.313-6.882 18.754-19.144 18.754-33.144 0-0.52-0.010-1.038-0.031-1.553l0.002 0.074c0-33.545-5.119-62.644-27.887-87.702-16.775-18.488-40.009-30.851-66.113-33.509l-0.438-0.036c-47.963-5.945-89.934-27.914-121.19-60.295l-0.057-0.059c-25.797-27.063-41.67-63.785-41.67-104.216 0-1.252 0.015-2.5 0.045-3.744l-0.004 0.184z" />
<glyph unicode="&#xe904;" glyph-name="default" d="M583.305 821.635l-28.472 28.347-51.45-51.45 28.347-28.347zM545.842 829.627l10.615-5.495c-7.063-14.919-13.845-27.195-21.27-39.026l0.915 1.563-9.99 5.744c6.694 10.385 13.439 22.585 19.391 35.231l0.839 1.982zM571.817 730.1l51.45 51.45-28.972 28.597-51.575-51.45zM596.792 786.295l6.244-9.99c-10.876-8.432-23.171-16.049-36.234-22.321l-1.23-0.532-5.245 10.864c13.815 6.331 25.717 13.672 36.587 22.262l-0.372-0.284zM574.439 960h-574.439l1024-1024v586.927zM791.727 647.805c2.578-15.617 4.052-33.615 4.052-51.957 0-5.971-0.156-11.905-0.465-17.799l0.034 0.824-21.104 0.25c0.362 5.591 0.569 12.121 0.569 18.7 0 17.875-1.524 35.393-4.45 52.433l0.259-1.826zM427.707 752.453c11.239-10.989 25.6-24.976 42.833-40.71l18.232 18.232-38.213 38.088 12.488 12.488 38.088-38.088 17.233 17.733-39.212 38.712 74.927 74.927 93.034-93.034-74.927-74.927-40.211 40.211-17.358-17.358 38.587-38.587-12.488-12.488-38.462 38.837-17.608-17.608q29.596-26.1 44.706-38.587l-12.488-12.488q-37.463 30.096-100.901 89.912zM366.267 695.259c18.101 7.934 33.678 17.949 47.405 30.019l-0.201-0.173 11.239-14.111c-14.366-12.761-30.826-23.625-48.707-31.949l-1.244-0.52zM399.61 659.044c11.974 12.317 23.121 25.604 33.253 39.669l0.713 1.041 13.112-10.615c-10.281-15.474-21.046-28.977-32.856-41.482l0.138 0.147zM432.328 632.445c8.991 13.612 17.483 27.848 25.6 43.083l14.611-7.368c-8.408-17.545-16.725-32.192-25.905-46.22l0.93 1.514zM546.466 508.441c7.021 48.963 25.359 92.654 52.277 129.708l-0.577-0.834c-35.446-25.624-77.311-44.897-122.601-55.138l-2.277-0.433 0.999 20.605h1.748l-13.986 6.369c7.464 12.433 15.029 27.242 21.636 42.562l0.967 2.519 13.861-7.867c-6.731-17.105-13.567-31.326-21.278-44.986l0.923 1.779c55.286 15.109 103.095 41.8 142.674 77.452l-0.313-0.277-27.348 26.974 14.611 14.611 27.348-27.348q37.463 36.714 57.444 56.195l14.611-15.11c-8.492-8.492-27.473-27.223-57.194-56.445l37.463-37.463-14.611-14.611-36.464 36.464q-62.439-82.045-68.059-154.474zM718.049 710.993c-2.184-19.754-5.785-37.592-10.802-54.827l0.562 2.253-18.232 2.997c4.751 15.006 8.851 33.107 11.515 51.672l0.224 1.9zM624.39 477.596c0.861-0.165 1.851-0.259 2.864-0.259 4.325 0 8.249 1.718 11.127 4.508l82.665 82.665-31.22 31.22 14.486 14.611 45.705-45.83-92.66-92.66q24.226-2.123 46.455-2.747l-11.863-19.481c-26.961 0.725-52.749 3.782-77.752 8.983l2.825-0.492zM855.664 487.212q-64.562-98.529-70.806-187.317l-23.727-1.748c8.28 59.044 27.422 112.242 55.412 159.588l-1.090-1.992-20.105-13.737c-34.317-22.997-76.545-36.701-121.974-36.701-7.796 0-15.498 0.404-23.085 1.191l0.949-0.080 2.123 22.853c5.74-0.556 12.408-0.873 19.151-0.873 40.067 0 77.52 11.192 109.403 30.62l-0.929-0.526c41.445 27.86 77.582 58.207 110.209 91.969l0.184 0.191 15.735-15.235q-26.974-27.223-51.7-48.203z" />
<glyph unicode="&#xe905;" glyph-name="checkbox-checked2" d="M512 960c282.77 0 512-229.23 512-512s-229.23-512-512-512c-282.77 0-512 229.23-512 512v0c0 282.77 229.23 512 512 512v0zM239.616 458.24l-34.816-40.192 191.232-200.448h11.52l411.648 400.896-28.928 34.304-382.464-314.88h-11.52z" />
<glyph unicode="&#xe906;" glyph-name="success" d="M512-64c-282.77 0-512 229.23-512 512s229.23 512 512 512c282.77 0 512-229.23 512-512v0c0-282.77-229.23-512-512-512v0zM512 896c-247.424 0-448-200.576-448-448s200.576-448 448-448c247.424 0 448 200.576 448 448v0c0 247.424-200.576 448-448 448v0zM837.28 594.72l-405.28-402.72-229.28 242.72 90.56 90.56 146.72-146.72 306.72 306.72z" />
<glyph unicode="&#xe907;" glyph-name="location" d="M512 768.235c0.076 0 0.165 0 0.255 0 70.834 0 128.256-57.422 128.256-128.256s-57.422-128.256-128.256-128.256c-70.834 0-128.256 57.422-128.256 128.256 0 0.157 0 0.315 0.001 0.472v-0.024c0.338 70.517 57.467 127.579 127.978 127.808h0.022zM240.768 507.371v0c-16.233 36.871-25.696 79.854-25.728 125.044v0.012c0 0.049 0 0.108 0 0.166 0 84.048 33.29 160.32 87.404 216.351l-0.087-0.090c52.96 55.296 127.389 89.663 209.845 89.663s156.886-34.367 209.746-89.559l0.1-0.105c53.692-55.775 86.764-131.731 86.764-215.411 0-0.357-0.001-0.714-0.002-1.071v0.055c0-0.118 0-0.259 0-0.399 0-45.035-9.354-87.885-26.225-126.713l0.796 2.056h103.616c11.998-0.149 21.805-9.328 22.947-21.046l0.008-0.096 92.288-500.843c0.27-1.354 0.424-2.91 0.424-4.502 0-11.491-8.040-21.104-18.802-23.521l-0.161-0.030c-1.387 0-2.752-0.299-3.84-0.299h-935.061c-13.145 0.083-23.768 10.758-23.768 23.914 0 0.128 0.001 0.255 0.003 0.382v-0.019c0.059 2.466 0.351 4.83 0.856 7.113l-0.045-0.244 92.288 499.712c2.194 10.919 11.553 19.081 22.877 19.413l0.035 0.001h103.637zM266.752 458.795h-110.272l-71.147-437.461h853.333l-70.976 437.461h-110.507l-4.971-7.403c-34.070-47.794-80.659-84.651-135.010-106.108l-2.035-0.708-72.107-97.067c-6.706-10.049-17.998-16.58-30.816-16.58s-24.11 6.53-30.732 16.445l-0.084 0.134-71.829 97.067c-56.673 21.926-103.491 58.835-136.96 105.9l-0.619 0.916-5.227 7.403zM678.485 803.691v0c-41.949 43.699-100.849 70.851-166.091 70.851s-124.141-27.152-166.016-70.773l-0.075-0.079c-42.69-44.039-69.005-104.166-69.005-170.44 0-53.24 16.982-102.514 45.826-142.699l-0.501 0.734c28.7-40.354 68.842-70.899 115.675-87.116l1.658-0.5c8.633-2.729 15.826-7.955 20.935-14.823l0.078-0.11 51.456-68.736 51.2 68.736h0.576c4.71 6.918 11.568 12.068 19.603 14.524l0.259 0.068c48.807 16.71 89.225 47.371 117.633 87.192l0.49 0.723c27.975 39.501 44.718 88.676 44.718 141.763 0 66.23-26.060 126.373-68.486 170.735l0.088-0.092zM512.085 720.491v0c-0.114 0.001-0.249 0.001-0.384 0.001-44.395 0-80.384-35.989-80.384-80.384s35.989-80.384 80.384-80.384c44.395 0 80.384 35.989 80.384 80.384 0 0.097 0 0.194-0.001 0.291v-0.015c-0.24 44.146-35.945 79.873-80.059 80.149h-0.026z" />
<glyph unicode="&#xe908;" glyph-name="cancel-fill2" d="M512 960c-282.77 0-512-229.23-512-512s229.23-512 512-512c282.77 0 512 229.23 512 512v0c0 282.77-229.23 512-512 512v0zM739.26 272.179c6.76-6.743 10.942-16.067 10.942-26.368 0-20.568-16.674-37.242-37.242-37.242-10.267 0-19.564 4.155-26.3 10.874l0.001-0.001-175.309 175.855-175.241-175.787c-6.736-6.719-16.033-10.874-26.3-10.874-20.568 0-37.242 16.674-37.242 37.242 0 10.301 4.182 19.625 10.941 26.367l0.001 0.001 175.309 175.753-175.309 175.991c-6.397 6.676-10.335 15.752-10.335 25.747 0 20.567 16.673 37.239 37.239 37.239 9.97 0 19.025-3.918 25.709-10.299l-0.015 0.014 175.309-175.821 175.343 175.821c6.736 6.719 16.033 10.874 26.3 10.874 20.568 0 37.242-16.674 37.242-37.242 0-10.301-4.182-19.625-10.941-26.367l-0.001-0.001-175.343-175.957z" />
<glyph unicode="&#xe909;" glyph-name="fail" d="M512-64c-282.77 0-512 229.23-512 512s229.23 512 512 512c282.77 0 512-229.23 512-512v0c0-282.77-229.23-512-512-512v0zM512 896c-247.424 0-448-200.576-448-448s200.576-448 448-448c247.424 0 448 200.576 448 448v0c0 247.424-200.576 448-448 448v0zM781.28 269.28l-90.56-90.56-178.72 178.72-178.72-178.72-90.56 90.56 178.72 178.72-178.72 178.72 90.56 90.56 178.72-178.72 178.72 178.72 90.56-90.56-178.72-178.72z" />
<glyph unicode="&#xe90a;" glyph-name="error2" d="M448 752h128v-432h-128zM512 264c35.346 0 64-28.654 64-64s-28.654-64-64-64c-35.346 0-64 28.654-64 64v0c0 35.346 28.654 64 64 64v0zM512-64c-282.77 0-512 229.23-512 512s229.23 512 512 512c282.77 0 512-229.23 512-512v0c0-282.77-229.23-512-512-512v0zM512 896c-247.424 0-448-200.576-448-448s200.576-448 448-448c247.424 0 448 200.576 448 448v0c0 247.424-200.576 448-448 448v0z" />
<glyph unicode="&#xe90b;" glyph-name="checkbox2" d="M512-64c-282.77 0-512 229.23-512 512s229.23 512 512 512c282.77 0 512-229.23 512-512v0c0-282.77-229.23-512-512-512v0zM512 911.238c-255.839 0-463.238-207.399-463.238-463.238s207.399-463.238 463.238-463.238c255.839 0 463.238 207.399 463.238 463.238v0c0 255.839-207.399 463.238-463.238 463.238v0z" />
<glyph unicode="&#xe90c;" glyph-name="phone3" horiz-adv-x="1010" d="M58.376 57.409c-16.89 17.339-27.307 41.056-27.307 67.205 0 26.316 10.55 50.168 27.651 67.557l-0.013-0.013 118.314 120.177c36.714 37.345 101.159 28.061 137.753-9.013l73.308-74.48c33.86-35.092 43.835-26.078 129.491 43.504 1.232 0.481 177.772 175.369 178.854 177.832 39.929 49.002 48.071 68.201 12.709 104.915l-80.879 82.111c-16.91 17.347-27.34 41.081-27.34 67.251 0 26.336 10.563 50.205 27.683 67.601l-0.012-0.013 118.314 120.177c16.891 17.354 40.475 28.12 66.574 28.12 25.907 0 49.336-10.608 66.18-27.717l0.012-0.012c15.232-15.293 51.466-51.826 80.819-82.201 48.071-60.269 146.226-268.897-207.786-612.724-366.45-355.905-571.383-265.201-630.69-205.112l-19.529 19.859c-8.262 8.472-29.564 30.044-44.105 44.856v0zM500.027 765.193c0.522-1.791 0.823-3.848 0.823-5.975 0-10.448-7.246-19.203-16.986-21.515l-0.15-0.030c-43.624-10.305-95.301-3.545-175.699-85.416-60.9-61.801-72.617-133.727-81.57-177.682-2.215-10.197-11.163-17.723-21.868-17.723-1.911 0-3.766 0.24-5.537 0.691l0.155-0.033c-10.633 2.461-18.439 11.851-18.439 23.065 0 1.555 0.15 3.074 0.436 4.545l-0.024-0.149c10.516 52.337 21.241 126.517 93.197 199.674 79.948 81.39 145.475 85.326 197.361 97.554 1.54 0.351 3.309 0.553 5.126 0.553 10.968 0 20.221-7.347 23.104-17.388l0.042-0.17zM18.778 445.912c-10.782 2.374-18.731 11.847-18.731 23.177 0 1.482 0.136 2.932 0.396 4.339l-0.022-0.146c15.623 78.776 17.065 175.459 160.016 320.903 130.663 132.976 235.247 146.496 310.718 165.244 1.633 0.396 3.508 0.623 5.436 0.623 10.917 0 20.134-7.278 23.064-17.248l0.043-0.17c0.566-1.862 0.892-4.001 0.892-6.217 0-10.353-7.116-19.045-16.723-21.451l-0.152-0.032c-67.419-16.645-180.266-41.762-289.627-153.226-111.765-113.718-134.208-228.337-148.118-298.67-0.942-4.377-3.062-8.16-6.009-11.117l0.001 0.001c-4.104-4.097-9.769-6.631-16.026-6.631-1.872 0-3.691 0.227-5.431 0.654l0.156-0.032z" />
<glyph unicode="&#xe90d;" glyph-name="stop-category" horiz-adv-x="1320" d="M375.966 960h944.285v-130.426h-944.285zM0 960h214.038v-130.426h-214.038zM0 513.080h214.038v-130.426h-214.038zM0 66.426h214.038v-130.426h-214.038zM375.966 513.080h944.285v-130.426h-944.285zM375.966 66.415h944.285v-130.415h-944.285z" />
<glyph unicode="&#xe90e;" glyph-name="quick" horiz-adv-x="955" d="M633.199-64c-0.025 0-0.055 0-0.086 0-12.894 0-24.234 6.657-30.769 16.722l-0.087 0.142-216.59 338.449c-3.639 5.597-5.803 12.444-5.803 19.797 0 20.253 16.418 36.671 36.671 36.671 12.9 0 24.245-6.661 30.781-16.732l0.087-0.143 216.59-338.743c3.64-5.597 5.805-12.444 5.805-19.797 0-20.226-16.379-36.626-36.596-36.66h-0.003zM416.609 274.449c-0.012 0-0.027 0-0.042 0-3.643 0-7.162 0.536-10.48 1.533l0.257-0.066-379.362 110.421c-15.377 4.59-26.396 18.605-26.396 35.194 0 20.247 16.413 36.66 36.66 36.66 3.658 0 7.191-0.536 10.524-1.533l-0.26 0.067 379.362-110.421c15.377-4.59 26.396-18.605 26.396-35.194 0-20.247-16.413-36.66-36.66-36.66v0zM36.66 385.751c-20.238 0.012-36.64 16.421-36.64 36.66 0 13.549 7.35 25.381 18.281 31.727l0.175 0.094 882.051 500.929c5.206 3.008 11.451 4.783 18.11 4.783 20.256 0 36.678-16.421 36.678-36.678 0-13.597-7.399-25.466-18.39-31.8l-0.178-0.094-882.051-500.782c-5.177-3.028-11.396-4.822-18.032-4.839h-0.005zM729.983 273.57c-0.009 0-0.019 0-0.030 0-20.247 0-36.66 16.413-36.66 36.66 0 3.873 0.601 7.606 1.714 11.111l-0.071-0.26 187.115 607.977c4.755 15.117 18.643 25.889 35.047 25.889 20.251 0 36.667-16.417 36.667-36.667 0-3.846-0.592-7.554-1.691-11.038l0.071 0.26-187.115-607.391c-4.523-15.392-18.482-26.454-35.037-26.542h-0.010z" />
<glyph unicode="&#xe90f;" glyph-name="star" horiz-adv-x="1072" d="M840.552-64c-0.017 0-0.038 0-0.058 0-7.454 0-14.472 1.87-20.609 5.165l0.233-0.114-284.011 149.238-283.552-149.238c-5.902-3.179-12.917-5.047-20.368-5.047-24.092 0-43.623 19.531-43.623 43.623 0 2.594 0.226 5.135 0.661 7.605l-0.038-0.262 53.726 316.384-229.596 223.857c-8.249 7.948-13.372 19.091-13.372 31.43 0 21.925 16.175 40.073 37.243 43.16l0.237 0.028 317.532 45.919 141.891 287.914c7.218 14.529 21.957 24.338 38.986 24.338 0.097 0 0.193 0 0.29-0.001h-0.015c0.014 0 0.030 0 0.046 0 17.029 0 31.767-9.809 38.872-24.085l0.114-0.252 142.12-287.684 317.532-45.919c21.206-3.207 37.274-21.307 37.274-43.159 0-12.238-5.040-23.3-13.157-31.222l-0.009-0.009-229.596-224.086 54.185-316.154c0.396-2.209 0.623-4.752 0.623-7.347 0-24.069-19.493-43.586-43.554-43.623h-0.004zM536.108 162.612c0.017 0 0.038 0 0.058 0 7.454 0 14.472-1.87 20.609-5.165l-0.233 0.114 250.49-131.788-47.986 278.96c-0.388 2.186-0.61 4.703-0.61 7.272 0 12.274 5.069 23.364 13.228 31.291l0.010 0.010 202.734 197.453-280.108 40.639c-14.328 1.972-26.276 10.657-32.718 22.725l-0.114 0.235-125.36 255.082-125.36-253.934c-6.556-12.303-18.504-20.988-32.604-22.934l-0.228-0.026-280.108-41.557 202.734-197.453c8.169-7.937 13.238-19.027 13.238-31.301 0-2.569-0.222-5.085-0.648-7.532l0.038 0.261-47.986-279.189 250.49 130.64c5.844 3.563 12.839 5.819 20.33 6.195l0.104 0.004zM524.398 96.717v0zM252.556 294.17v0zM826.547 317.13v0zM722.999 636.039v0zM513.378 905.126v0z" />
<glyph unicode="&#xe910;" glyph-name="star-fill" horiz-adv-x="1072" d="M544.373 920.509l147.86-299.623c1.327-2.672 3.843-4.581 6.836-5.045l0.051-0.007 330.619-47.986c4.434-0.703 7.783-4.499 7.783-9.076 0-2.557-1.045-4.87-2.731-6.535l-0.001-0.001-239.010-233.5c-1.782-1.679-2.891-4.055-2.891-6.689 0-0.557 0.050-1.102 0.145-1.632l-0.008 0.056 56.481-329.241c0.079-0.453 0.124-0.974 0.124-1.505 0-5.072-4.112-9.184-9.184-9.184-1.556 0-3.022 0.387-4.307 1.070l0.050-0.024-295.72 155.437c-1.232 0.656-2.695 1.041-4.248 1.041s-3.015-0.385-4.297-1.065l0.050 0.024-295.95-155.437c-1.235-0.659-2.701-1.046-4.257-1.046-5.072 0-9.184 4.112-9.184 9.184 0 0.532 0.045 1.053 0.132 1.56l-0.008-0.054 56.481 329.241c0.087 0.474 0.136 1.019 0.136 1.576 0 2.635-1.11 5.010-2.887 6.685l-0.005 0.004-239.239 233.27c-1.687 1.666-2.732 3.979-2.732 6.536 0 4.578 3.349 8.373 7.731 9.070l0.052 0.007 330.848 47.986c3.045 0.47 5.561 2.379 6.864 4.998l0.024 0.053 148.090 299.853c1.563 2.965 4.625 4.952 8.151 4.952s6.587-1.987 8.127-4.902l0.024-0.050zM840.552-64c-0.017 0-0.038 0-0.058 0-7.454 0-14.472 1.87-20.609 5.165l0.233-0.114-284.011 149.238-283.552-149.238c-5.902-3.179-12.917-5.047-20.368-5.047-24.092 0-43.623 19.531-43.623 43.623 0 2.594 0.226 5.135 0.661 7.605l-0.038-0.262 53.726 316.384-229.596 223.857c-8.249 7.948-13.372 19.091-13.372 31.43 0 21.925 16.175 40.073 37.243 43.16l0.237 0.028 317.532 45.919 141.891 287.914c7.218 14.529 21.957 24.338 38.986 24.338 0.097 0 0.193 0 0.29-0.001h-0.015c0.014 0 0.030 0 0.046 0 17.029 0 31.767-9.809 38.872-24.085l0.114-0.252 142.12-287.684 317.532-45.919c21.206-3.207 37.274-21.307 37.274-43.159 0-12.238-5.040-23.3-13.157-31.222l-0.009-0.009-229.596-224.086 54.185-316.154c0.396-2.209 0.623-4.752 0.623-7.347 0-24.069-19.493-43.586-43.554-43.623h-0.004zM536.108 162.612c0.017 0 0.038 0 0.058 0 7.454 0 14.472-1.87 20.609-5.165l-0.233 0.114 250.49-131.788-47.986 278.96c-0.388 2.186-0.61 4.703-0.61 7.272 0 12.274 5.069 23.364 13.228 31.291l0.010 0.010 202.734 197.453-280.108 40.639c-14.328 1.972-26.276 10.657-32.718 22.725l-0.114 0.235-125.36 255.082-125.36-253.934c-6.556-12.303-18.504-20.988-32.604-22.934l-0.228-0.026-280.108-41.557 202.734-197.453c8.169-7.937 13.238-19.027 13.238-31.301 0-2.569-0.222-5.085-0.648-7.532l0.038 0.261-47.986-279.189 250.49 130.64c5.844 3.563 12.839 5.819 20.33 6.195l0.104 0.004zM524.398 96.717v0zM252.556 294.17v0zM826.547 317.13v0zM722.999 636.039v0zM513.378 905.126v0z" />
<glyph unicode="&#xe912;" glyph-name="error" d="M512 960c-282.77 0-512-229.23-512-512s229.23-512 512-512c282.77 0 512 229.23 512 512v0c0 282.77-229.23 512-512 512v0zM512 9.197c-242.344 0-438.803 196.459-438.803 438.803s196.459 438.803 438.803 438.803c242.344 0 438.803-196.459 438.803-438.803v0c0-242.344-196.459-438.803-438.803-438.803v0zM475.401 740.599h73.197v-438.803h-73.197v438.803zM475.401 228.599h73.197v-73.197h-73.197v73.197z" />
<glyph unicode="&#xe913;" glyph-name="vip" d="M938.752 570.624l-218.823 218.738c-6.978 7.022-16.642 11.368-27.321 11.368s-20.343-4.346-27.319-11.366l-0.002-0.002-77.34-77.255 273.408-273.493 77.369 77.312c7.006 7.001 11.34 16.676 11.34 27.364s-4.334 20.362-11.34 27.363v0zM411.022 791.893c-7.014 7.003-16.697 11.333-27.392 11.333s-20.378-4.33-27.392-11.334v0l-273.465-273.493c-6.972-7.017-11.281-16.687-11.281-27.364s4.309-20.346 11.283-27.366l382.86-382.889c7.001-7.006 16.676-11.34 27.364-11.34s20.362 4.334 27.363 11.34l27.307 27.307-191.488 191.516 42.041 41.842 191.431-191.431 40.135 40.192-191.431 191.431 41.671 41.643 191.431-191.431 40.391 40.334-191.431 191.488 41.927 41.927 191.431-191.431 40.107 40.107c7.003 6.992 11.335 16.658 11.335 27.335s-4.332 20.343-11.335 27.335v0l-382.862 382.948zM542.549 19.57c-13.326-13.347-31.747-21.604-52.096-21.604s-38.77 8.257-52.095 21.603l-416.797 416.712c-13.32 13.338-21.557 31.755-21.557 52.096s8.237 38.758 21.558 52.097l312.603 312.603c13.324 13.339 31.739 21.59 52.082 21.59s38.757-8.251 52.081-21.589l99.727-99.727 99.698 99.726c13.327 13.356 31.754 21.618 52.11 21.618s38.783-8.263 52.109-21.617l260.467-260.495c13.32-13.338 21.557-31.755 21.557-52.096s-8.237-38.758-21.558-52.097l0.001 0.001-459.918-468.821z" />
<glyph unicode="&#xe914;" glyph-name="my-order" d="M789.333 768v0c-1.605 22.89-19.777 41.062-42.522 42.659l-0.145 0.008h-106.667c-1.355 31.415-12.031 60.095-29.31 83.624l0.297-0.424c-24.443 27.346-59.821 44.477-99.2 44.477s-74.757-17.132-99.087-44.349l-0.113-0.128c-16.955-23.091-27.514-51.814-28.58-82.948l-0.007-0.252h-106.667c-22.89-1.605-41.062-19.777-42.659-42.522l-0.008-0.145h-42.667c-45.788-3.191-82.142-39.546-85.317-85.045l-0.016-0.288v-640c3.191-45.788 39.546-82.142 85.045-85.317l0.288-0.016h640c45.788 3.191 82.142 39.546 85.317 85.045l0.016 0.288v640c-3.191 45.788-39.546 82.142-85.045 85.317l-0.288 0.016h-42.667zM442.88 861.184v0c16.768 20.080 41.267 33.217 68.861 34.804l0.259 0.012c27.655-1.61 51.95-14.755 68.349-34.652l0.131-0.164c10.537-12.693 16.932-29.155 16.932-47.111 0-1.198-0.028-2.39-0.085-3.574l0.006 0.167h-170.667c-0.063 1.147-0.098 2.489-0.098 3.839 0 17.717 6.148 33.998 16.426 46.826l-0.115-0.148zM298.027 768h427.947c20.693 0 20.693 0 20.693-20.672v-21.995c0-21.333 0-21.333-21.333-21.333h-428.587c-16.213 0-19.413 0-19.413 21.333v21.333c0 21.333 0 21.333 20.693 21.333zM810.027 21.333h-597.333c-22.634 1.878-40.497 19.962-42.019 42.527l-0.008 0.14c0.213 134.827 0.427 545.813 0 597.333 1.605 22.89 19.777 41.062 42.522 42.659l0.145 0.008h21.333c1.605-22.89 19.777-41.062 42.522-42.659l0.145-0.008h469.333c22.89 1.605 41.062 19.777 42.659 42.522l0.008 0.145h21.973c22.634-1.878 40.497-19.962 42.019-42.527l0.008-0.14v-595.989c-1.092-23.612-19.766-42.53-43.173-44.004l-0.133-0.007zM309.12 298.539v0c-17.526-0.085-31.701-14.312-31.701-31.85 0-17.591 14.26-31.851 31.851-31.851 17.538 0 31.765 14.175 31.85 31.693v0.008c0 0.064 0.001 0.139 0.001 0.214 0 17.555-14.231 31.787-31.787 31.787-0.075 0-0.15 0-0.226-0.001h0.012zM725.333 469.333h-320c-12.634-5.364-21.333-17.666-21.333-32s8.699-26.636 21.107-31.914l0.227-0.086h320c12.634 5.364 21.333 17.666 21.333 32s-8.699 26.636-21.107 31.914l-0.227 0.086zM309.12 469.141v0c-17.463-0.121-31.572-14.306-31.572-31.786 0-17.555 14.231-31.787 31.787-31.787s31.787 14.231 31.787 31.787c0 0.082 0 0.164-0.001 0.247v-0.013c-0.193 17.467-14.397 31.552-31.892 31.552-0.038 0-0.076 0-0.114 0h0.006zM682.667 298.667h-277.333c-12.16 0-21.333-12.395-21.333-32-0.326-1.582-0.512-3.4-0.512-5.262 0-13.144 9.294-24.117 21.668-26.707l0.177-0.031h277.333c12.546 2.772 21.792 13.8 21.792 26.986 0 1.773-0.167 3.506-0.486 5.186l0.027-0.172c0.342 1.617 0.539 3.475 0.539 5.379 0 13.124-9.317 24.072-21.697 26.591l-0.174 0.030z" />
<glyph unicode="&#xe915;" glyph-name="pay" d="M938.667 885.333h-853.333c-45.788-3.191-82.142-39.546-85.317-85.045l-0.016-0.288v-704c3.191-45.788 39.546-82.142 85.045-85.317l0.288-0.016h853.333c45.788 3.191 82.142 39.546 85.317 85.045l0.016 0.288v704c-3.191 45.788-39.546 82.142-85.045 85.317l-0.288 0.016zM960 266.667v0s-298.667 0-344.32 0.576v0c-18.347-0.576-18.347-0.576-18.347 20.757v213.333c0 21.333 0 42.667 21.333 42.667h341.333v-277.333zM960 586.667h-362.667c-0.263 0.006-0.573 0.009-0.884 0.009-23.081 0-41.792-18.711-41.792-41.792 0-0.311 0.003-0.621 0.010-0.93l-0.001 0.046v-277.333c-0.006-0.263-0.009-0.573-0.009-0.884 0-23.081 18.711-41.792 41.792-41.792 0.311 0 0.621 0.003 0.93 0.010l-0.046-0.001h362.667v-106.667c-1.605-22.89-19.777-41.062-42.522-42.659l-0.145-0.008h-810.667c-22.89 1.605-41.062 19.777-42.659 42.522l-0.008 0.145v661.333c1.605 22.89 19.777 41.062 42.522 42.659l0.145 0.008h810.667c22.89-1.605 41.062-19.777 42.659-42.522l0.008-0.145v-192zM778.453 308.992v0c0.161-0.001 0.352-0.002 0.544-0.002 26.381 0 50.257 10.724 67.506 28.051l0.003 0.004c17.402 17.448 28.162 41.528 28.162 68.121 0 25.949-10.246 49.506-26.912 66.844l0.030-0.032-0.853 1.643c-17.53 17.341-41.647 28.054-68.267 28.054-0.075 0-0.15 0-0.225 0h0.012c-0.16 0.001-0.348 0.002-0.537 0.002-25.516 0-48.625-10.31-65.386-26.992l0.004 0.004-1.28-1.067c-17.645-17.227-28.588-41.25-28.588-67.829 0-0.154 0-0.307 0.001-0.461v0.024c0-0.013 0-0.028 0-0.044 0-26.703 10.936-50.851 28.574-68.211l0.013-0.012c17.153-17.304 40.921-28.026 67.195-28.053h0.005zM743.467 441.259v0l0.427 1.067c9.033 8.685 21.329 14.035 34.874 14.035 14.079 0 26.808-5.779 35.944-15.093l0.008-0.008 0.64-0.811c8.589-9.135 13.867-21.47 13.867-35.038 0-0.019 0-0.039 0-0.058v0.003c-0.328-13.902-5.784-26.47-14.54-35.941l0.033 0.037c-9.355-9.132-22.147-14.78-36.257-14.827h-0.009c-13.724 0.007-26.12 5.683-34.975 14.814l-0.012 0.012c-9.309 9.14-15.094 21.841-15.147 35.894v0.010c-0.002 0.176-0.004 0.384-0.004 0.593 0 13.887 5.809 26.417 15.13 35.292l0.020 0.019z" />
<glyph unicode="&#xe916;" glyph-name="outbound" d="M522.667 938.667l362.667-192c8.503-5.73 15.603-12.83 21.159-21.060l0.174-0.274 106.667-213.333c-1.966-16.926-9.764-31.738-21.3-42.636l-0.033-0.031-85.333-42.667v-234.667l-21.333-21.333-362.667-213.333h-42.667l-341.333 213.333-21.333 21.333v234.667l-85.333 42.667c-13.116 6.798-21.924 20.271-21.924 35.801 0 2.426 0.215 4.802 0.627 7.109l-0.036-0.243 106.667 213.333c5.32 8.824 12.51 16.013 21.058 21.179l0.275 0.154 341.333 192h42.667zM480 405.333l-42.667-106.667c-7.893-15.808-42.667 0-42.667 0l-213.333 106.667v-192l298.667-170.667v362.667zM480 874.667l-298.667-170.667 298.667-170.667v341.333zM522.667 874.667v-341.333l320 170.667zM522.667 405.333v-362.667l320 170.667v192l-213.333-106.667s-34.773-15.701-42.667 0l-64 106.667zM864 661.333l-341.333-170.667 85.333-149.333 341.333 170.667zM416 341.333l64 149.333-320 170.667-85.333-149.333z" />
<glyph unicode="&#xe917;" glyph-name="car2" d="M791.68 209.067c22.294-0.121 40.32-18.222 40.32-40.533 0-22.386-18.147-40.533-40.533-40.533-22.318 0-40.424 18.038-40.533 40.33v0.010c0.144 22.441 18.304 40.593 40.734 40.725h0.013zM661.333 394.667h277.333l-85.333 128h-192v-128zM916.267 352h-254.933v-149.333c21.333 0 52.907-13.547 52.907-34.133-0.001-0.108-0.001-0.236-0.001-0.364 0-21.071 8.654-40.121 22.602-53.789l0.013-0.012-0.213-0.299h0.213c13.887-13.831 33.041-22.381 54.193-22.381 0.223 0 0.446 0.001 0.668 0.003h-0.034c0.079 0 0.172 0 0.265 0 20.811 0 39.725 8.122 53.745 21.369l-0.037-0.035 1.28 1.451c13.876 13.46 22.566 32.197 22.826 52.965v1.093c0 22.357 24.96 34.133 47.573 34.133h42.667v106.667c0 42.667 0 42.667-43.733 42.667zM960 138.667v0c-12.886-32.138-31.566-59.481-54.962-81.952l-0.078-0.075-2.347-2.027c-28.86-27.167-67.847-43.861-110.732-43.861-0.071 0-0.142 0-0.213 0h0.011c-0.286-0.002-0.624-0.003-0.962-0.003-43.479 0-82.864 17.527-111.476 45.902l0.011-0.011h-0.427c-19.84 19.499-60.16 60.693-60.16 82.027h-170.667c0-21.333-30.72-62.528-50.56-82.027-28.751-28.37-68.268-45.891-111.877-45.891-0.343 0-0.686 0.001-1.029 0.003h0.053c-0.829-0.016-1.807-0.025-2.787-0.025-76.344 0-139.912 54.702-153.646 127.049l-0.154 0.975h-42.667c-45.788 3.191-82.142 39.546-85.317 85.045l-0.016 0.288v575.915c3.191 45.788 39.546 82.142 85.045 85.317l0.288 0.016h490.667c45.788-3.191 82.142-39.546 85.317-85.045l0.016-0.288v-213.333h192c21.333 0 21.333 0 42.667-21.333 0 0 52.267-78.293 85.333-128 8.533-12.8 42.667-64 42.667-64v-192c-1.605-22.89-19.777-41.062-42.522-42.659l-0.145-0.008h-21.333zM554.667 821.333h-448.427c-22.544-1.72-40.427-19.544-42.23-41.907l-0.010-0.162v-533.333c1.327-22.977 19.366-41.348 42.077-43.189l0.163-0.011h64.427c1.245 0.172 2.683 0.269 4.144 0.269 17.673 0 32-14.327 32-32 0-0.846-0.033-1.684-0.097-2.513l0.007 0.11c-0.001-0.108-0.001-0.236-0.001-0.364 0-21.071 8.654-40.121 22.602-53.789l0.013-0.012c14.117-14.018 33.567-22.681 55.040-22.681s40.923 8.663 55.045 22.686l-0.005-0.005c13.797 13.511 22.461 32.216 22.826 52.945l0.001 0.068v1.088c1.884 19.427 18.128 34.491 37.891 34.491 1.835 0 3.639-0.13 5.405-0.381l-0.203 0.024h149.333c23.278 1.759 41.635 20.574 42.663 43.892l0.003 0.097c-0.427 95.317-0.64 312.299-0.64 312.299v1.728s0.213 160 0.427 217.792c-1.347 22.969-19.527 41.289-42.312 42.851l-0.141 0.008zM284.587 209.067v0c22.201-0.241 40.106-18.295 40.106-40.531 0-22.386-18.147-40.533-40.533-40.533-22.318 0-40.423 18.037-40.533 40.329v0.011c0.097 22.513 18.369 40.725 40.896 40.725 0.023 0 0.045 0 0.068 0h-0.003z" />
<glyph unicode="&#xe918;" glyph-name="receipt" d="M96 938.667c-45.788-3.191-82.142-39.546-85.317-85.045l-0.016-0.288v-106.667c2.49-22.491 20.175-40.177 42.45-42.647l0.217-0.020v-661.333c3.191-45.788 39.546-82.142 85.045-85.317l0.288-0.016h746.667c45.788 3.191 82.142 39.546 85.317 85.045l0.016 0.288v661.333c22.292 2.917 39.75 20.375 42.64 42.418l0.027 0.249v106.667c-3.191 45.788-39.546 82.142-85.045 85.317l-0.288 0.016h-832zM861.227 21.333h-700.373c-22.991 1.789-41.27 19.774-43.504 42.471l-0.016 0.195v640h789.333v-639.040c-1.524-24.086-21.179-43.111-45.39-43.626l-0.050-0.001zM949.333 768h-874.667v66.795c2.738 21.561 20.207 38.291 41.879 39.863l0.148 0.009h788.693c22.197-0.707 40.374-17.053 43.91-38.345l0.037-0.268v-68.053zM675.2 501.099v0c6.244 6.939 15.255 11.283 25.28 11.283s19.036-4.344 25.253-11.252l0.027-0.031c6.272-7.518 10.079-17.282 10.079-27.936s-3.807-20.418-10.136-28.006l0.057 0.070-237.867-262.4c-6.072-7.033-14.999-11.457-24.96-11.457s-18.888 4.424-24.924 11.415l-0.036 0.042-0.853 0.555-117.973 130.944c-6.458 7.346-10.398 17.042-10.398 27.659s3.941 20.313 10.439 27.706l-0.040-0.047c6.168 6.927 15.11 11.268 25.067 11.268s18.899-4.342 25.037-11.235l0.029-0.034 93.653-103.424 212.267 234.901z" />
<glyph unicode="&#xe919;" glyph-name="goods-collection" d="M696.107 544.939c11.288-3.746 20.853-10.118 28.321-18.415l0.052-0.059v0.469c12.897-13.771 20.84-32.319 20.907-52.723v-0.013c0-0.038 0-0.083 0-0.128 0-20.217-7.967-38.574-20.932-52.101l0.025 0.027c-12.487-13.552-30.322-22.012-50.133-22.012s-37.647 8.46-50.090 21.965l-0.043 0.047-0.853 1.643c-11.91 13.054-19.206 30.499-19.206 49.646 0 0.321 0.002 0.642 0.006 0.962v-0.049c-0.004 0.279-0.006 0.608-0.006 0.938 0 19.981 7.62 38.183 20.113 51.857l-0.054-0.059 1.707 1.365c7.376 7.282 16.367 12.947 26.387 16.407l0.493 0.148 8.533 73.813h-298.667l8.747-73.728c11.168-3.696 20.607-10.079 27.884-18.401l0.063-0.073v0.469c12.816-13.5 20.698-31.791 20.698-51.923 0-0.286-0.002-0.571-0.005-0.856v0.043c0.006-0.342 0.009-0.745 0.009-1.149 0-19.857-7.896-37.87-20.719-51.071l0.017 0.018c-12.406-13.55-30.174-22.015-49.92-22.015s-37.514 8.465-49.874 21.964l-0.046 0.051-1.28 1.643c-12.047 13.469-19.411 31.349-19.411 50.948 0 20.266 7.874 38.693 20.729 52.389l-0.038-0.041 1.493 1.365c7.334 7.235 16.245 12.89 26.17 16.401l0.497 0.153-7.68 73.813h-107.947c-21.602-1.857-38.787-18.566-41.365-39.781l-0.022-0.219v-514.667c1.211-21.705 17.407-39.289 38.353-42.632l0.26-0.034h600.107c24.183 1.367 43.351 21.018 43.946 45.276l0.001 0.057v509.333c-1.757 23.264-20.55 41.613-43.847 42.663l-0.099 0.004h-105.387l-7.893-73.728zM661.333 682.667c0 64-25.387 133.269-52.053 161.515l-1.067 1.365c-27.733 28.8-54.613 50.453-96.213 50.453s-68.693-21.653-96-50.453h-0.427c-27.093-28.48-52.907-98.88-52.907-162.88h298.667zM320 682.667c0 85.333 29.653 158.549 64.853 195.499 30.199 37.035 75.826 60.497 126.933 60.497s96.734-23.461 126.7-60.201l0.234-0.296 1.707-1.365c34.347-37.227 63.573-108.8 63.573-194.133h128c45.788-3.191 82.142-39.546 85.317-85.045l0.016-0.288v-554.667c-3.191-45.788-39.546-82.142-85.045-85.317l-0.288-0.016h-640c-45.788 3.191-82.142 39.546-85.317 85.045l-0.016 0.288v554.667c3.191 45.788 39.546 82.142 85.045 85.317l0.288 0.016h128zM350.72 502.827h-2.133c-6.591-0.678-12.457-3.34-17.105-7.371l0.038 0.032-0.853-1.088c-4.96-5.242-8.032-12.314-8.107-20.103v-0.015c-0.004-0.175-0.007-0.38-0.007-0.587 0-6.928 2.68-13.23 7.061-17.925l-0.014 0.015 1.067-1.6c4.921-4.768 11.59-7.756 18.956-7.914l0.030-0.001c7.434 0.335 14.122 3.281 19.224 7.936l-0.024-0.022c4.764 5.253 7.68 12.259 7.68 19.945 0 0.053 0 0.106 0 0.159v-0.008c0.001 0.092 0.002 0.201 0.002 0.311 0 7.642-2.918 14.603-7.702 19.829l0.020-0.022v0.533c-4.836 4.376-11.1 7.256-18.016 7.864l-0.117 0.008zM675.2 502.827h-1.493c-6.685-0.541-12.655-3.229-17.31-7.365l0.030 0.026-1.067-1.088c-4.888-5.12-7.896-12.071-7.896-19.725 0-0.138 0.001-0.275 0.003-0.413v0.021c-0.004-0.175-0.007-0.38-0.007-0.587 0-6.928 2.68-13.23 7.061-17.925l-0.014 0.015 0.853-1.6c4.907-4.66 11.468-7.62 18.717-7.913l0.057-0.002c0.027 0 0.058 0 0.089 0 7.463 0 14.22 3.025 19.111 7.915v0c5.006 5.206 8.094 12.289 8.107 20.093v0.003c0 0.033 0 0.073 0 0.112 0 7.78-3.092 14.838-8.114 20.012l0.007-0.007v0.533c-4.73 4.557-11.057 7.486-18.061 7.869l-0.072 0.003zM529.067 444.48v0l35.627-123.157 116.907 0.235c11.319-1.536 19.951-11.139 19.951-22.757 0-7.149-3.268-13.534-8.391-17.744l-0.040-0.032-94.080-75.947 35.84-122.667c0.954-2.285 1.508-4.94 1.508-7.725 0-11.346-9.198-20.544-20.544-20.544-4.741 0-9.107 1.606-12.584 4.304l0.047-0.035-93.44 75.712-93.867-76.501c-3.283-2.259-7.345-3.608-11.721-3.608-11.511 0-20.843 9.332-20.843 20.843 0 2.718 0.52 5.315 1.467 7.696l-0.049-0.141 36.267 122.667-94.507 75.947c-5.059 4.244-8.252 10.568-8.252 17.638 0 12.012 9.218 21.871 20.966 22.889l0.086 0.006 115.413-0.235 36.267 123.157c2.084 8.696 9.792 15.060 18.987 15.060s16.902-6.364 18.96-14.927l0.027-0.133zM530.987 292.288v0l-21.12 73.067-21.12-73.067c-2.302-8.767-10.093-15.154-19.397-15.296h-69.136l55.68-44.331c5.408-4.554 8.821-11.329 8.821-18.901 0-2.385-0.339-4.691-0.97-6.873l0.043 0.174-21.76-73.045 55.68 45.099c3.228 2.649 7.4 4.254 11.947 4.254s8.719-1.606 11.98-4.281l-0.033 0.026 56.107-45.099-21.76 73.045c-0.579 2.004-0.912 4.307-0.912 6.687 0 7.409 3.228 14.064 8.354 18.635l0.025 0.022 55.893 44.565h-67.84c-0.091-0.001-0.199-0.002-0.307-0.002-9.558 0-17.621 6.401-20.136 15.15l-0.036 0.148z" />
<glyph unicode="&#xe91a;" glyph-name="store" d="M800 309.333v-234.667c-1.605-22.89-19.777-41.062-42.522-42.659l-0.145-0.008h-490.667c-22.89 1.605-41.062 19.777-42.659 42.522l-0.008 0.145v234.667c0 17.899-64 17.899-64 0v-256c0-35.797 42.667-85.333 81.707-85.333h536.96c45.788 3.191 82.142 39.546 85.317 85.045l0.016 0.288v256c0 17.899-64 17.899-64 0zM1013.333 586.667c-14.72 46.784-114.133 292.501-114.133 292.501-10.106 28.693-36.98 48.89-68.572 48.89-1.018 0-2.031-0.021-3.039-0.063l0.144 0.005h-625.067c-33.493 0-54.613-34.965-64-64 0 0-113.28-229.717-128-277.333v-64c0-118.955 140.373-149.333 192-149.333 39.893 0.128 128 50.112 153.173 80.939 24.96-30.571 102.827-80.939 166.827-80.939 39.467 0.576 120.533 50.389 145.493 80.939 25.173-30.827 113.067-80.939 153.173-80.939 51.413-0.363 192 29.867 192 149.333 0.213 36.267-7.68 85.547 0 64zM821.333 437.333c-29.653 0-113.28 31.061-128.853 57.28-2.557 3.040-4.768 6.501-6.495 10.232l-0.118 0.285c-17.707 18.005-34.133 18.005-46.72-0.235-2.312-2.994-4.44-6.371-6.236-9.944l-0.164-0.36c-15.36-25.877-91.52-58.688-120.533-58.923-29.44 0.192-105.387 32.939-121.173 59.008-1.513 3.622-3.45 6.743-5.801 9.5l0.041-0.050c-6.022 6.391-14.542 10.37-23.992 10.37-8.923 0-17.018-3.548-22.95-9.311l0.008 0.008c-2.73-3.179-5.023-6.842-6.722-10.819l-0.104-0.275c-15.573-25.877-98.133-55.104-128.853-56.768-51.413 1.664-127.36 35.285-128 85.333-0.213 9.579 0 21.333 0 42.667 21.333 42.667 106.667 256 106.667 256s21.333 42.667 42.667 42.667h576c1.965 0.335 4.228 0.527 6.535 0.527 15.606 0 29.166-8.765 36.024-21.64l0.107-0.22s96-237.056 106.667-277.333c10.667-23.723 0.213-54.507 0-64-0.853-50.539-76.587-62.699-128-64zM272.853 714.667h499.627c0 0 0 0 0 0 15.169 0 27.471-12.273 27.52-27.43v-9.136c-0.049-15.162-12.351-27.435-27.52-27.435 0 0 0 0 0 0h-499.627c0 0 0 0 0 0-15.169 0-27.471 12.273-27.52 27.43v9.136c0.049 15.162 12.351 27.435 27.52 27.435 0 0 0 0 0 0v0z" />
<glyph unicode="&#xe91b;" glyph-name="order" horiz-adv-x="945" d="M827.077-64h-708.923q-49.231 0-83.692 34.462t-34.462 83.692v787.692q0 49.231 34.462 83.692t83.692 34.462h708.923q49.231 0 83.692-34.462t34.462-83.692v-787.692q0-49.231-34.462-83.692t-83.692-34.462zM118.154 881.231c-0.1 0.001-0.218 0.001-0.336 0.001-10.75 0-20.454-4.482-27.343-11.68l-0.013-0.014c-7.212-6.903-11.694-16.606-11.694-27.357 0-0.118 0.001-0.236 0.002-0.354v0.018-787.692c-0.001-0.1-0.001-0.218-0.001-0.336 0-10.75 4.482-20.454 11.68-27.343l0.014-0.013c6.903-7.212 16.606-11.694 27.357-11.694 0.118 0 0.236 0.001 0.354 0.002h708.905c21.627 0.307 39.077 17.758 39.384 39.355v787.721c0.001 0.1 0.001 0.218 0.001 0.336 0 10.75-4.482 20.454-11.68 27.343l-0.014 0.013c-6.903 7.212-16.606 11.694-27.357 11.694-0.118 0-0.236-0.001-0.354-0.002h-708.905zM631.385 407.385h-434.462q-17.231 0-28.308 11.692c-6.86 7.12-11.085 16.819-11.085 27.506 0 0.282 0.003 0.563 0.009 0.844l-0.001-0.042q0 16.615 11.077 27.692t28.308 11.077h434.462c0.149 0.002 0.325 0.003 0.501 0.003 10.586 0 20.184-4.228 27.199-11.087l-0.007 0.007c7.208-6.698 11.703-16.23 11.703-26.812 0-0.309-0.004-0.618-0.011-0.926l0.001 0.046c0.003-0.192 0.005-0.417 0.005-0.644 0-10.847-4.479-20.649-11.689-27.655l-0.009-0.009c-6.903-7.212-16.606-11.694-27.357-11.694-0.118 0-0.236 0.001-0.354 0.002h0.018zM747.077 172.308h-550.154q-17.231 0-28.308 11.692c-6.86 7.12-11.085 16.819-11.085 27.506 0 0.282 0.003 0.563 0.009 0.844l-0.001-0.042q0 16.615 11.077 27.692t28.308 11.077h550.154c0.149 0.002 0.325 0.003 0.501 0.003 10.586 0 20.184-4.228 27.199-11.087l-0.007 0.007c7.208-6.698 11.703-16.23 11.703-26.812 0-0.309-0.004-0.618-0.011-0.926l0.001 0.046c0.003-0.192 0.005-0.417 0.005-0.644 0-10.847-4.479-20.649-11.689-27.655l-0.009-0.009c-6.903-7.212-16.606-11.694-27.357-11.694-0.118 0-0.236 0.001-0.354 0.002h0.018zM157.538 702.769c0-0.073-0.001-0.16-0.001-0.247 0-32.491 26.339-58.831 58.831-58.831 0.087 0 0.173 0 0.26 0.001h-0.013c0.073 0 0.16-0.001 0.247-0.001 32.491 0 58.831 26.339 58.831 58.831 0 0.087 0 0.173-0.001 0.26v-0.013c0 0.073 0.001 0.16 0.001 0.247 0 32.491-26.339 58.831-58.831 58.831-0.087 0-0.173 0-0.26-0.001h0.013c-0.073 0-0.16 0.001-0.247 0.001-32.491 0-58.831-26.339-58.831-58.831 0-0.087 0-0.173 0.001-0.26v0.013zM412.308 702.769c0.083-32.565 26.501-58.932 59.077-58.932 32.627 0 59.077 26.45 59.077 59.077 0 16.277-6.583 31.017-17.232 41.703l0.002-0.002c-10.698 10.734-25.497 17.376-41.846 17.376-32.627 0-59.077-26.45-59.077-59.077 0-0.051 0-0.102 0-0.153v0.008zM668.308 702.769c0.083-32.565 26.501-58.932 59.077-58.932 32.627 0 59.077 26.45 59.077 59.077 0 16.277-6.583 31.017-17.232 41.703l0.002-0.002c-10.698 10.734-25.497 17.376-41.846 17.376-32.627 0-59.077-26.45-59.077-59.077 0-0.051 0-0.102 0-0.153v0.008z" />
<glyph unicode="&#xe91c;" glyph-name="account-info" d="M800 938.667h-661.333c-45.788-3.191-82.142-39.546-85.317-85.045l-0.016-0.288v-810.667c3.191-45.788 39.546-82.142 85.045-85.317l0.288-0.016h704c-1.537 3.118-2.435 6.787-2.435 10.667s0.899 7.549 2.5 10.811l-0.064-0.145h42.667c2.833-0.486 6.097-0.765 9.425-0.765 15.214 0 29.071 5.81 39.472 15.332l-0.044-0.040v0.235c9.841 10.397 15.892 24.47 15.892 39.956 0 3.277-0.271 6.491-0.792 9.621l0.047-0.339v469.333c10.006 3.584 17.749 11.327 21.257 21.090l0.076 0.243v320c-3.191 45.788-39.546 82.142-85.045 85.317l-0.288 0.016h-85.333zM804.267 531.712v0c-15.861-13.768-25.833-33.961-25.833-56.484 0-2.075 0.085-4.13 0.251-6.162l-0.018 0.267v-406.656c-2.333-22.72-20.941-40.414-43.861-41.299l-0.086-0.003c-105.173 0.128-476.587 2.283-577.493 0.32-21.751 2.464-38.642 20.259-39.676 42.204l-0.004 0.1c0.853 123.051-0.213 650.539-0.213 770.667 2.768 21.796 20.557 38.669 42.54 39.994l0.127 0.006h705.28c22.374-2.156 39.926-20.149 41.38-42.531l0.007-0.135v-277.333h-42.667c-2.556 0.343-5.512 0.538-8.513 0.538-20.437 0-38.755-9.071-51.148-23.407l-0.073-0.086zM906.667 42.667v21.333c0-10.944 7.68-36.096 0.213-43.179v-0.235c-7.040-7.531-10.667 0.747-21.547 0.747h-42.667v128h64v-106.667zM906.667 213.333v21.333c0-10.667 7.68-31.381 0.213-38.229-3.837-3.469-8.948-5.592-14.555-5.592-2.503 0-4.906 0.423-7.144 1.201l0.153-0.046h-42.667v106.667l36.267 1.621c14.507 0 16-8.533 27.733-1.621v-85.333zM906.667 384v-21.333c0-10.965 7.68-4.629 0.213-11.947-7.122-7.249-16.996-11.774-27.926-11.883h-0.020l-36.267 2.496v106.667c-0.319 2.409-0.501 5.194-0.501 8.022 0 11.078 2.791 21.505 7.709 30.614l-0.169-0.342c7.498 7.453 17.818 12.073 29.218 12.117h0.009l27.733-7.744v-106.667zM576 429.525v0c-9.945 10.344-21.853 18.718-35.135 24.535l-0.705 0.275-4.693 1.728 3.413 2.731c23.105 24.122 37.33 56.912 37.33 93.024s-14.224 68.902-37.376 93.073l0.046-0.049c-23.117 23.564-55.293 38.17-90.88 38.17s-67.763-14.606-90.86-38.15l-0.020-0.020c-23.231-24.067-37.544-56.874-37.544-93.024s14.313-68.957 37.582-93.063l-0.038 0.039 3.2-2.731c-15.891-6.258-29.457-15.261-40.748-26.54l0.001 0.001c-9.799-10.161-17.731-22.2-23.193-35.514l-0.273-0.753c-5.266-12.17-8.33-26.342-8.33-41.229 0-0.506 0.004-1.010 0.011-1.514l-0.001 0.076v-30.763c-0.005-0.163-0.007-0.354-0.007-0.546 0-11.227 8.896-20.377 20.023-20.786l0.037-0.001h279.893c11.487 0.274 20.694 9.651 20.694 21.178 0 0.055 0 0.109-0.001 0.163v-0.008 30.763c-0.118 15.409-3.242 30.057-8.815 43.429l0.281-0.762c-5.712 14.135-13.805 26.199-23.892 36.265l-0.002 0.002zM386.347 615.125v0c15.642 16.073 37.483 26.045 61.653 26.045s46.012-9.972 61.634-26.026l0.019-0.019c15.829-16.081 25.603-38.162 25.603-62.527 0-0.255-0.001-0.511-0.003-0.766v0.039c0-0.103 0.001-0.224 0.001-0.346 0-24.484-9.767-46.688-25.618-62.926l0.017 0.018c-15.745-15.851-37.553-25.663-61.653-25.663s-45.908 9.811-61.649 25.658l-0.005 0.005c-15.955 16.316-25.853 38.612-26.026 63.22v0.034c0.064 24.66 9.989 46.989 26.037 63.264l-0.010-0.010zM567.467 340.8h-238.933v9.92c0.025 9.663 1.983 18.861 5.507 27.239l-0.174-0.466c3.548 8.728 8.608 16.164 14.92 22.323l0.013 0.013c12.084 12.983 29.27 21.078 48.346 21.078 0.103 0 0.207 0 0.31-0.001h100.891c0.201 0.002 0.438 0.004 0.675 0.004 9.333 0 18.195-2.012 26.178-5.627l-0.399 0.162c8.691-3.796 16.072-9.071 22.152-15.578l0.035-0.038c6.171-6.304 11.262-13.697 14.953-21.858l0.194-0.478c3.35-7.912 5.308-17.111 5.333-26.764v-9.93z" />
<glyph unicode="&#xe91d;" glyph-name="feedback" d="M902.613 593.429l0.427-0.533c1.263-0.605 2.241-1.638 2.76-2.907l0.013-0.037 0.213-0.533 1.493-1.067v-0.277h0.427l0.213-0.512 0.427-0.555 0.64-0.512 0.427-0.555v-0.555l0.853-0.789h0.427v-1.067l0.64-0.533v-0.597h0.213l0.213-0.811 0.213-0.277 0.213-0.256v-0.533h0.427v-0.555l0.213-0.789 0.213-0.277 0.64-1.856 0.427-0.555v-0.491l0.427-0.555v-0.277l0.427-0.512v-1.067l0.427-0.555v-1.301l0.427-1.067v-1.6l0.64-0.277v-3.456l0.427-1.067v-2.944l0.213-507.989c-3.191-45.788-39.546-82.142-85.045-85.317l-0.288-0.016h-640c-42.667 0-85.333 64.469-85.333 85.333v-42.667l-0.213 551.723c-0.005 0.233-0.008 0.508-0.008 0.783 0 11.952 5.46 22.628 14.022 29.671l0.066 0.053 50.133 57.771c-1.504 3.124-2.383 6.793-2.383 10.667s0.879 7.543 2.448 10.817l-0.065-0.151v128c0.108 11.739 9.595 21.226 21.323 21.333h0.010l174.933 1.664c1.531 2.525 3.451 4.65 5.704 6.359l0.056 0.041 117.973 98.603h42.667l117.76-98.581c2.058-1.9 3.884-3.996 5.465-6.275l0.082-0.125 175.36-1.685c11.782 0 21.333-9.551 21.333-21.333v0-149.333l49.28-57.237zM213.333 586.667v-64l295.253-277.952h5.76l296.32 277.952v256h-597.333v-192zM170.667 458.667v-380.437c0.085-24.275 18.738-44.167 42.493-46.217l0.174-0.012h599.040c22.18 2.288 39.502 20.273 40.741 42.549l0.005 0.118c-1.067 115.84-2.133 427.733-2.133 427.733q-158.4-149.056-317.013-298.112c7.68 7.509-21.973-1.6-45.227 1.067-105.387 98.581-212.693 196.629-318.080 296v-42.667zM469.12 822.997v0l85.547-1.664c-1.66 17.001-9.531 31.901-21.281 42.62l-0.052 0.047h-42.667l-21.547-41.003z" />
<glyph unicode="&#xe91e;" glyph-name="message" d="M330.667 525.397c0.15 0.001 0.328 0.002 0.506 0.002 19.253 0 36.857-7.059 50.366-18.73l-0.098 0.083c12.739-11.125 20.826-27.299 21.119-45.368l0.001-0.051c-0.202-17.988-8.324-34.039-21.036-44.858l-0.084-0.070c-13.488-11.866-31.276-19.131-50.759-19.2h-0.015c-0.016 0-0.034 0-0.053 0-19.422 0-37.144 7.283-50.583 19.266l0.075-0.066c-12.742 10.903-20.798 26.964-20.907 44.909v0.019c0.207 18.095 8.227 34.277 20.838 45.36l0.069 0.059c13.227 11.584 30.665 18.65 49.753 18.65 0.284 0 0.567-0.002 0.85-0.005h-0.043zM512.213 842.837v0c2.575 0.042 5.614 0.066 8.659 0.066 126.33 0 242.995-41.382 337.179-111.33l-1.518 1.077c90.24-69.099 146.133-167.637 146.133-273.984s-55.893-199.552-146.133-268.373c-92.533-68.872-209.072-110.259-335.277-110.259-3.18 0-6.353 0.026-9.521 0.079l0.477-0.006c-41.595 0.031-82.219 4.114-121.52 11.875l3.973-0.654c-35.627 6.449-66.992 15.387-97.019 27.011l3.579-1.219-117.973-56.875c-9.547-4.58-20.754-7.256-32.587-7.256-1.294 0-2.581 0.032-3.86 0.095l0.18-0.007c-13.056 1.104-24.919 5.409-35.051 12.119l0.277-0.173c-9.698 6.694-17.249 15.864-21.822 26.607l-0.152 0.401c-2.636 5.966-4.171 12.924-4.171 20.24 0 4.527 0.588 8.917 1.691 13.098l-0.080-0.357 28.373 111.168c-26.78 27.798-49.043 60.186-65.455 95.824l-0.892 2.16c-17.789 37.268-28.236 80.981-28.373 127.12v0.048c0 106.368 55.68 202.219 146.133 271.317 92.76 68.874 209.516 110.255 335.937 110.255 3.098 0 6.189-0.025 9.275-0.074l-0.466 0.006zM816.427 683.029v0c-84.775 59.888-190.256 95.724-304.107 95.724s-219.332-35.836-305.779-96.843l1.672 1.119c-75.52-57.877-122.88-137.728-122.88-225.152 0.169-37.707 8.725-73.375 23.896-105.289l-0.643 1.503c16.729-35.696 38.808-66.1 65.585-91.618l0.122-0.115c7.496-5.912 12.264-14.994 12.264-25.189 0-2.76-0.349-5.438-1.006-7.992l0.048 0.222-28.587-111.851 118.827 57.152c5.345 2.52 11.61 3.991 18.219 3.991 5.728 0 11.198-1.105 16.208-3.113l-0.294 0.104c29.158-8.9 63.334-15.551 98.528-18.656l1.952-0.139c29.612-9.174 64.344-16.089 100.119-19.408l2.068-0.155c2.477-0.044 5.398-0.069 8.326-0.069 111.019 0 213.644 35.933 296.882 96.804l-1.421-0.991c75.947 57.6 122.453 137.493 122.453 224.896s-46.507 167.275-122.453 225.152v0zM349.44 478.059v0c-4.958 4.448-11.547 7.168-18.77 7.168-0.001 0-0.002 0-0.003 0v0c-0.001 0-0.002 0-0.003 0-7.155 0-13.675-2.722-18.579-7.188l0.022 0.020c-4.681-4.092-7.634-10.059-7.68-16.717v-0.008c0.050-6.514 3.012-12.327 7.647-16.207l0.033-0.027c4.72-4.455 11.103-7.193 18.125-7.193 0.153 0 0.306 0.001 0.458 0.004h-0.023c0.13-0.002 0.284-0.004 0.438-0.004 7.089 0 13.539 2.735 18.352 7.208l-0.017-0.015c4.575 3.67 7.479 9.261 7.479 15.529 0 0.248-0.005 0.495-0.014 0.741l0.001-0.036c0.008 0.221 0.013 0.48 0.013 0.74 0 6.408-2.895 12.14-7.448 15.959l-0.032 0.026zM512.213 525.397v0c0.238 0.003 0.52 0.004 0.802 0.004 19.021 0 36.392-7.068 49.628-18.721l-0.083 0.072c12.755-11.087 20.802-27.303 20.907-45.4v-0.018c-0.004-17.986-8.088-34.082-20.82-44.857l-0.086-0.071c-13.402-11.87-31.135-19.118-50.56-19.118s-37.158 7.248-50.64 19.188l0.080-0.070c-12.796 10.889-20.918 26.94-21.12 44.893v0.035c0.294 18.12 8.381 34.294 21.048 45.357l0.072 0.062c13.248 11.586 30.704 18.651 49.811 18.651 0.338 0 0.676-0.002 1.013-0.007l-0.051 0.001zM530.347 478.059v0c-4.749 4.407-11.12 7.125-18.125 7.168h-0.009c-0.049 0-0.108 0-0.166 0-7.171 0-13.707-2.722-18.63-7.189l0.023 0.021c-4.711-4.001-7.681-9.93-7.681-16.552 0-0.061 0-0.122 0.001-0.183v0.009c0-0.049-0.001-0.107-0.001-0.165 0-6.475 2.98-12.253 7.642-16.039l0.038-0.030c4.742-4.457 11.145-7.196 18.187-7.196 0.206 0 0.412 0.002 0.617 0.007l-0.030-0.001c0.082-0.001 0.178-0.001 0.275-0.001 6.937 0 13.234 2.741 17.866 7.199l-0.008-0.008c4.935 3.753 8.092 9.624 8.107 16.232v0.002c-0.004 6.761-3.153 12.786-8.063 16.692l-0.044 0.033zM693.333 525.397v0c0.057 0 0.125 0 0.192 0 19.354 0 37.060-7.055 50.687-18.734l-0.105 0.088c12.604-11.196 20.597-27.344 20.906-45.364l0.001-0.054c-0.21-17.943-8.239-33.97-20.831-44.864l-0.076-0.064c-13.516-11.872-31.352-19.116-50.88-19.116s-37.364 7.244-50.967 19.191l0.087-0.075c-12.668 10.958-20.696 26.985-20.906 44.892v0.036c0.31 18.075 8.303 34.223 20.843 45.363l0.063 0.055c13.541 11.591 31.265 18.646 50.637 18.646 0.123 0 0.246 0 0.369-0.001h-0.019zM711.893 478.059v0c-4.921 4.448-11.476 7.17-18.667 7.17s-13.746-2.722-18.691-7.192l0.024 0.022c-4.585-3.846-7.48-9.578-7.48-15.985 0-0.26 0.005-0.519 0.014-0.777l-0.001 0.037c-0.008-0.21-0.013-0.457-0.013-0.705 0-6.269 2.904-11.859 7.44-15.499l0.039-0.030c4.908-4.479 11.467-7.223 18.667-7.223s13.759 2.743 18.688 7.242l-0.022-0.020c4.577 3.784 7.471 9.463 7.471 15.818 0 0.147-0.002 0.293-0.005 0.439v-0.022c0.003 0.131 0.005 0.286 0.005 0.441 0 6.498-2.885 12.322-7.444 16.261l-0.027 0.023z" />
<glyph unicode="&#xe91f;" glyph-name="settings" d="M917.333 554.667h-64c-2.347 8.405-7.040 20.181-10.24 28.288l-0.64 1.899c-4.053 8.939-6.187 25.408-10.453 33.813l64 64c6.226 5.471 10.134 13.45 10.134 22.343 0 9.571-4.528 18.085-11.559 23.516l-0.069 0.051-102.187 102.293v-0.277c-5.356 7.187-13.831 11.792-23.381 11.792-8.92 0-16.902-4.017-22.236-10.34l-0.036-0.044-64-64c-8.747 4.608-25.173 7.147-33.707 10.901-9.173 3.243-21.12 7.445-30.293 10.432v85.333c0.087 0.984 0.137 2.129 0.137 3.286 0 20.133-15.042 36.752-34.5 39.232l-0.196 0.020h-144.427c-19.534-2.36-34.524-18.838-34.524-38.816 0-1.311 0.065-2.607 0.191-3.884l-0.013 0.162v-85.333c-9.173-2.987-21.973-7.189-30.507-10.432-8.96-3.755-24.96-6.293-33.493-10.901l-64 64c-5.459 6.433-13.55 10.488-22.588 10.488-9.67 0-18.256-4.642-23.651-11.82l-0.055-0.076-101.333-101.205-0.427-0.811c-7.311-5.308-12.010-13.827-12.010-23.443 0-9.050 4.162-17.128 10.677-22.424l0.053-0.042 64-64c-3.84-7.573-6.4-23.787-9.813-32l-1.067-1.899c-3.627-8.384-7.68-21.333-10.453-30.187h-85.333c-0.987 0.087-2.136 0.137-3.296 0.137-20.222 0-36.909-15.135-39.351-34.695l-0.020-0.194v-144.277c2.286-19.513 18.723-34.511 38.662-34.511 1.41 0 2.803 0.075 4.175 0.221l-0.171-0.015h85.333c2.773-8.128 6.4-20.907 10.027-28.757l0.427-1.877c3.627-9.216 6.613-25.237 10.88-33.365l-64-64c-6.563-5.377-10.718-13.482-10.718-22.558 0-9.644 4.691-18.192 11.916-23.486l0.082-0.057 101.12-101.76 1.067-0.533c5.441-6.966 13.841-11.402 23.277-11.402 9.051 0 17.148 4.081 22.553 10.504l0.037 0.045 64 64c8.107-3.797 23.467-6.763 31.573-10.005l1.92-1.088c8.533-3.797 21.12-7.275 30.507-10.24v-85.333c-0.107-1.092-0.168-2.361-0.168-3.644 0-20.093 14.935-36.698 34.31-39.32l0.205-0.023h144.427c19.701 2.792 34.687 19.543 34.687 39.795 0 1.124-0.046 2.236-0.137 3.336l0.010-0.144v85.333c12.366 3.444 22.438 6.936 32.244 10.946l-1.95-0.706c8.533 3.243 24.96 6.763 33.707 11.093l64-64c5.398-6.445 13.45-10.515 22.452-10.515 9.424 0 17.807 4.461 23.151 11.386l0.050 0.068 101.547 101.227 0.64 1.067c7.372 5.347 12.111 13.932 12.111 23.625 0 9.030-4.113 17.1-10.569 22.437l-0.049 0.039-64 64c4.267 8.405 6.4 24.683 10.453 33.365 3.574 8.081 7.277 18.252 10.381 28.68l0.499 1.955h85.333c22.821 1.761 40.906 19.846 42.657 42.509l0.010 0.158v128c-1.688 22.853-19.814 40.979-42.515 42.658l-0.152 0.009h-21.333zM917.333 405.333v0l-83.627 8.021c-19.595-0.29-35.771-14.566-39.006-33.276l-0.034-0.239c-4.259-16.927-9.078-31.249-14.853-45.072l0.773 2.086c-6.835-16.549-14.127-30.576-22.468-43.877l0.708 1.211c-3.867-5.892-6.168-13.114-6.168-20.873 0-10.73 4.401-20.432 11.496-27.399l0.006-0.006h-0.213l68.053-53.909-64-64-53.76 67.904c-7.227 7.153-17.172 11.572-28.149 11.572-8.637 0-16.635-2.736-23.175-7.388l0.123 0.083c-11.139-6.938-24.237-13.842-37.826-19.837l-2.067-0.814c-12.871-5.631-28.121-10.621-43.913-14.177l-1.74-0.329c-13.616-3.957-23.399-16.32-23.399-30.968 0-2.138 0.208-4.228 0.606-6.249l-0.033 0.204v-85.333h-85.333v85.333c0.334 1.744 0.525 3.75 0.525 5.8 0 15.578-11.028 28.579-25.702 31.625l-0.209 0.036c-16.72 3.758-31.251 8.562-45.125 14.595l1.605-0.622-1.707 0.832c-15.747 6.586-29.14 13.688-41.795 21.837l1.048-0.632c-5.88 3.69-13.028 5.878-20.686 5.878-10.825 0-20.629-4.373-27.742-11.448l0.002 0.002-53.547-67.904-64 64 67.627 53.867c7.019 7.193 11.349 17.039 11.349 27.896 0 7.52-2.077 14.555-5.69 20.562l0.101-0.18c-8.049 12.204-15.553 26.231-21.755 40.942l-0.645 1.725-0.427 1.685c-4.844 11.603-9.73 26.101-13.708 40.97l-0.585 2.572c-3.26 13.808-15.479 23.927-30.061 23.927-2.197 0-4.34-0.23-6.407-0.666l0.201 0.036h-85.333v85.333h85.333c1.684-0.313 3.622-0.492 5.601-0.492 15.54 0 28.503 11.033 31.484 25.694l0.035 0.207c3.788 16.556 8.552 30.904 14.497 44.621l-0.631-1.634 0.64 2.24c7.021 15.976 14.15 29.358 22.137 42.149l-0.804-1.381c3.697 5.835 5.891 12.939 5.891 20.555 0 10.857-4.459 20.673-11.645 27.716l-0.006 0.006 0.427 0.277-67.627 53.376 64 64 53.547-67.691c6.907-7.099 16.553-11.503 27.227-11.503 7.908 0 15.252 2.417 21.332 6.553l-0.132-0.085c11.963 7.502 25.911 14.794 40.429 21.011l2.024 0.771c12.946 5.664 28.269 10.663 44.142 14.205l1.724 0.323c13.69 3.503 23.649 15.729 23.649 30.281 0 2.171-0.222 4.291-0.644 6.337l0.035-0.202v85.333h85.333v-85.333c-0.359-1.786-0.565-3.838-0.565-5.939 0-15.514 11.212-28.409 25.975-31.025l0.19-0.028c16.491-3.996 30.644-8.779 44.226-14.632l-1.773 0.68c17.188-7.256 31.486-14.548 45.206-22.71l-1.686 0.929c5.854-3.885 13.044-6.199 20.774-6.199 11.343 0 21.522 4.982 28.47 12.877l0.036 0.042 52.48 66.005 64-64-67.84-53.077c-7.214-7.173-11.679-17.105-11.679-28.080 0-8.396 2.613-16.182 7.071-22.589l-0.085 0.13c7.847-11.865 14.945-25.475 20.596-39.814l0.524-1.508 0.64-1.685c5.492-12.341 10.266-26.884 13.582-41.973l0.285-1.547c3.766-13.787 16.178-23.754 30.919-23.754 2.118 0 4.187 0.206 6.19 0.598l-0.202-0.033h85.333v-85.333zM511.573 608.939v0c-88.596-0.638-160.22-72.397-160.64-160.984v-0.040c0-0.101 0-0.221 0-0.341 0-88.601 71.825-160.427 160.427-160.427 0.075 0 0.15 0 0.225 0h-0.012c88.86 0 160.896 72.036 160.896 160.896s-72.036 160.896-160.896 160.896v0zM593.067 366.421v0c-20.829-20.741-49.557-33.563-81.28-33.563s-60.451 12.822-81.284 33.567l0.004-0.004c-20.691 20.934-33.477 49.719-33.493 81.49v0.003c0.262 63.189 51.547 114.313 114.772 114.313 63.388 0 114.773-51.386 114.773-114.773 0-31.632-12.797-60.276-33.495-81.036l0.003 0.003z" />
<glyph unicode="&#xe920;" glyph-name="camera2" d="M509.506 210.018c-105.617 0-191.452 85.835-191.452 191.452s85.835 191.452 191.452 191.452 191.452-85.835 191.452-191.452-85.835-191.452-191.452-191.452zM509.506 529.105c-70.354 0-127.634-57.281-127.634-127.634s57.281-127.634 127.634-127.634 127.634 57.281 127.634 127.634-57.281 127.634-127.634 127.634zM860.587 50.389h-702.162c-52.808 0-95.812 43.004-95.812 95.812v510.538c0 52.808 43.004 95.812 95.812 95.812h95.812c17.545 0 31.995-14.277 31.995-31.995s-14.277-31.995-31.995-31.995h-95.812c-17.545 0-31.995-14.277-31.995-31.995v-510.538c0-17.545 14.277-31.995 31.995-31.995h701.99c17.545 0 31.995 14.277 31.995 31.995v510.71c0 17.545-14.277 31.995-31.995 31.995h-350.909c-17.545 0-31.995 14.277-31.995 31.995s14.277 31.995 31.995 31.995h351.081c52.808 0 95.812-43.004 95.812-95.812v-510.538c-0.172-52.98-43.176-95.984-95.812-95.984zM764.775 608.747c0-26.49 21.502-47.82 47.82-47.82 26.49 0 47.82 21.502 47.82 47.82s-21.502 47.82-47.82 47.82c-26.318 0.172-47.82-21.33-47.82-47.82zM477.683 816.196c0-17.545-14.277-31.995-31.995-31.995h-127.634c-17.545 0-31.995 14.277-31.995 31.995v0c0 17.545 14.277 31.995 31.995 31.995h127.634c17.545 0 31.995-14.277 31.995-31.995v0z" />
<glyph unicode="&#xe92b;" glyph-name="top" horiz-adv-x="1060" d="M540.718 949.032c12.763-12.763 12.763-33.455 0-46.218l-484.824-484.824c-12.763-12.763-33.455-12.763-46.218 0s-12.763 33.455 0 46.218l484.824 484.824c12.763 12.763 33.455 12.763 46.218 0zM518.722 949.176c12.763 12.763 33.455 12.763 46.218 0l484.824-484.824c12.763-12.763 12.763-33.455 0-46.218s-33.455-12.763-46.218 0l-484.824 484.824c-12.763 12.763-12.763 33.455 0 46.218zM529.648 960c18.049 0 32.681-14.632 32.681-32.681v-958.638c0-18.049-14.632-32.681-32.681-32.681s-32.681 14.632-32.681 32.681v958.638c0 18.049 14.632 32.681 32.681 32.681z" />
<glyph unicode="&#xe92c;" glyph-name="camera" d="M656.865 514.97c15.053 0.072 27.197 12.308 27.156 27.361 0 0.072 0 0.154 0 0.225-0.113 15.114-12.472 27.279-27.587 27.156s-27.279-12.472-27.156-27.587c0.123-15.114 12.472-27.279 27.587-27.156zM593.49 441.979c0 0.276 0 0.553 0 0.829-0.461 60.467-49.848 109.107-110.316 108.657-60.467-0.461-109.117-49.848-108.657-110.316s49.848-109.107 110.316-108.657c60.211 0.287 108.831 49.275 108.657 109.486zM512 960c-282.767 0-512-229.233-512-512s229.233-512 512-512 512 229.233 512 512-229.233 512-512 512zM540.232 241.254h-236.472c-30.116 0.133-54.426 24.627-54.323 54.743v291.953c-0.102 30.116 24.207 54.61 54.323 54.743h54.323c-0.102 30.116 24.218 54.61 54.323 54.743h36.219c30.116-0.133 54.426-24.627 54.323-54.743h181.033c30.116-0.123 54.436-24.627 54.323-54.743v-170.67c0.020-5.632-2.54-10.957-6.953-14.449-4.413-3.43-10.158-4.618-15.575-3.236-10.772 2.806-21.862 4.178-32.993 4.086-69.868-0.604-126.024-57.733-125.42-127.601 0.051-4.854 0.338-9.697 0.881-14.52 0.082-0.696 0.123-1.403 0.123-2.109 0.020-10.035-8.1-18.186-18.135-18.196zM774.564 275.978c-0.379-50.391-41.544-90.921-91.935-90.542-50.391 0.389-90.921 41.544-90.542 91.935s41.544 90.921 91.935 90.542c0.031 0 0.051 0 0.082 0 50.176-0.215 90.675-41.062 90.46-91.238 0-0.236 0-0.461 0-0.696zM720.241 295.997h-18.104v18.248c0.010 0.287 0.010 0.573 0 0.87-0.236 10.004-8.54 17.92-18.545 17.674-10.004-0.236-17.92-8.54-17.674-18.545v-18.248h-18.104c-10.056-0.020-18.207-8.161-18.217-18.217-0.020-10.076 8.141-18.258 18.217-18.278h18.104v-18.248c-0.010-0.287-0.010-0.573 0-0.87 0.236-10.004 8.54-17.92 18.545-17.674 10.004 0.236 17.92 8.54 17.674 18.545v18.248h18.104c10.056 0.020 18.207 8.161 18.217 18.217 0.020 10.076-8.141 18.258-18.217 18.278z" />
<glyph unicode="&#xe92d;" glyph-name="waiter" d="M512 960c-282.767 0-512-229.233-512-512s229.233-512 512-512 512 229.233 512 512-229.233 512-512 512zM702.515 172.38h-412.14c-11.807 0.492-21.176 10.127-21.33 21.944 0 44.554 64.358 78.295 148.326 91.085v6.144c-62.986 48.077-63.887 136.612-63.887 190.884 0 87.859 52.49 140.575 140.083 142.336h12.8c87.593-1.874 142.234-53.924 142.234-141.701 0-15.002 0.225-34.744-0.686-53.484-20.675-8.489-72.243-13.783-118.979-8.94-22.804 2.693-43.51-13.507-46.387-36.28-2.386-23.204 14.039-44.114 37.14-47.309 10.977-1.208 28.897-0.655 49.889-0.655 19.21-0.829 38.451-0.205 57.569 1.874-9.738-18.842-24.115-34.898-41.769-46.653v-6.113c84.081-12.913 143.432-46.531 143.319-91.187 0-11.356-14.561-21.944-26.184-21.944zM671.191 427.786c5.171 10.281 17.603 14.541 27.996 9.595 10.168-4.577 14.705-16.527 10.127-26.706-0.102-0.215-0.205-0.43-0.307-0.645-22.231-44.882-95.048-52.818-143.923-52.818l-0.031 0.031c-15.002-0.031-29.993 0.707-44.923 2.202-11.254 1.126-19.466 11.162-18.34 22.415s11.162 19.466 22.415 18.34c0.184-0.020 0.369-0.041 0.563-0.061 52.214-5.622 132.393-0.768 146.422 27.648zM774.584 398.080c-0.225-11.459-9.646-20.603-21.105-20.48l-0.010 0.041c-11.448-0.154-20.849 9.001-21.002 20.449 0 0.010 0 0.020 0 0.031v70.656l-28.109 9.81c-8.294 2.806-13.906 10.547-13.998 19.302-2.55 104.366-89.211 186.9-193.577 184.351-100.782-2.458-181.893-83.579-184.351-184.351-0.020-6.666-3.318-12.892-8.806-16.66l-12.186-8.489v-74.547c-0.358-11.592-10.056-20.695-21.647-20.337-11.090 0.348-19.988 9.257-20.337 20.337v85.135c0.031 6.656 3.318 12.882 8.806 16.65l12.411 8.714c9.175 127.478 119.962 223.386 247.439 214.211 113.285-8.151 203.919-97.321 213.914-210.463l28.559-9.923c8.294-2.806 13.906-10.547 13.998-19.302v-85.135z" />
<glyph unicode="&#xe92e;" glyph-name="full-cart" d="M512 960c-282.767 0-512-229.233-512-512s229.233-512 512-512 512 229.233 512 512-229.233 512-512 512zM455.547 222.904c-0.020-20.716-16.835-37.489-37.55-37.468s-37.489 16.835-37.468 37.55 16.835 37.489 37.55 37.468c0.051 0 0.092 0 0.143 0 20.664-0.051 37.376-16.845 37.325-37.509 0-0.010 0-0.031 0-0.041zM717.978 222.904c-0.020-20.716-16.835-37.489-37.55-37.468s-37.489 16.835-37.468 37.55 16.835 37.489 37.55 37.468c0.051 0 0.092 0 0.143 0 20.664-0.051 37.376-16.845 37.325-37.509 0-0.010 0-0.031 0-0.041zM774.124 589.732l-29.696-168.96c-3.748-27.013-26.624-47.258-53.893-47.688l-297.288-18.35 3.072-21.883c1.106-8.714 8.172-15.452 16.927-16.128h304.712c10.025-0.236 18.094-8.305 18.319-18.319 0.236-10.363-7.967-18.944-18.319-19.19h-304.64c-27.638 0.522-50.688 21.268-54.098 48.701l-31.826 223.939-18.135 104.663c-1.147 8.991-8.489 15.923-17.531 16.538h-23.552c-10.025 0.236-18.094 8.305-18.319 18.319-0.236 10.363 7.967 18.944 18.319 19.19h23.675c27.75-0.369 51.016-21.074 54.6-48.599l1.311-7.66h375.46c14.203 0.092 27.75-6.021 37.069-16.742l0.031-0.041c11.213-13.23 16.23-30.618 13.804-47.79z" />
<glyph unicode="&#xe931;" glyph-name="lock" horiz-adv-x="920" d="M125.368 554.348c-0.46 249.15 167.94 380.052 334.73 380.052v0c0.348 0.002 0.76 0.002 1.172 0.002 89.634 0 170.672-36.798 228.832-96.112 67.918-69.068 103.806-166.842 104.036-282.56h-69.018c0 97.312-29.216 178.292-84.2 234.196-45.924 46.594-109.726 75.46-180.27 75.46-0.194 0-0.39 0-0.584 0h0.030c-128.372 0-265.944-97.544-265.714-311.036zM770.674 12.8h-621.15c-57.174 0-103.524 46.35-103.524 103.524v448.608h828.198v-448.608c0-57.174-46.35-103.524-103.524-103.524zM115.016 495.916v-379.59c0-19.058 15.45-34.508 34.508-34.508h621.15c19.058 0 34.508 15.45 34.508 34.508v379.59zM460.098 175.218c-25.412 0-46.012 20.6-46.012 46.010v115.028c0 25.412 20.6 46.010 46.012 46.010s46.012-20.6 46.012-46.010v-115.028c0-25.412-20.6-46.010-46.012-46.010z" />
<glyph unicode="&#xe932;" glyph-name="people" horiz-adv-x="948" d="M474.024 370.534c-153.498 0-277.934 124.436-277.934 277.934s124.436 277.934 277.934 277.934c153.498 0 277.934-124.434 277.934-277.934s-124.434-277.934-277.934-277.934zM474.024 856.918c-115.124 0-208.45-93.326-208.45-208.45s93.326-208.45 208.45-208.45c115.124 0 208.45 93.326 208.45 208.45s-93.326 208.45-208.45 208.45zM54.806 20.8c0 251.068 210.302 382.622 418.986 382.622v0c2.436 0.048 5.304 0.074 8.18 0.074 106.332 0 204.144-36.486 281.6-97.62 78.956-65.006 129.528-163.906 129.528-274.616 0-2.862-0.034-5.718-0.1-8.566l-86.384 0.424c0.11 3.028 0.174 6.582 0.174 10.154 0 90.442-40.85 171.342-105.104 225.256-60.586 47.77-137.438 76.398-220.978 76.398-2.27 0-4.536-0.022-6.796-0.062l0.34 0.004c-160.508 0-332.826-98.202-332.594-313.14z" />
<glyph unicode="&#xe933;" glyph-name="share" d="M768.992 256q-54.016 0-91.008-38.016l-310.016 172q15.008 28 15.008 58.016 0 16-6.016 36l304.992 188.992q36.992-32.992 84.992-32.992 52.992 0 90.496 37.504t37.504 90.496-37.504 90.496-90.496 37.504-90.496-37.504-37.504-90.496q0-20 8-40.992l-302.016-188q-38.016 36.992-90.016 36.992-52.992 0-90.496-37.504t-37.504-90.496 37.504-90.496 90.496-37.504q38.016 0 68.992 20.992l322.016-178.016q-6.016-19.008-6.016-34.016 0-52.992 37.504-90.496t90.496-37.504 90.496 37.504 37.504 90.496-36.992 90.016-90.016 36.992zM767.488 832q26.496 0 44.992-19.008t18.496-44.992-18.496-44.992-44.992-19.008-45.504 19.008-19.008 44.992 19.008 44.992 45.504 19.008zM191.008 448.512q0 26.496 19.008 44.992t45.504 18.496 44.992-18.496 18.496-44.992-18.496-45.504-44.992-19.008-45.504 19.008-19.008 45.504zM768.512 64q-26.496 0-44.992 19.008t-18.496 45.504 18.496 44.992 44.992 18.496 45.504-18.496 19.008-44.992-19.008-45.504-45.504-19.008z" />
<glyph unicode="&#xe934;" glyph-name="delete" d="M608 192q-12.992 0-22.496 9.504t-9.504 22.496v352q0 12.992 9.504 22.496t22.496 9.504 22.496-9.504 9.504-22.496v-352q0-12.992-9.504-22.496t-22.496-9.504zM416 192q-12.992 0-22.496 9.504t-9.504 22.496v352q0 12.992 9.504 22.496t22.496 9.504 22.496-9.504 9.504-22.496v-352q0-12.992-9.504-22.496t-22.496-9.504zM928 736h-160v64q0 40-28 68t-67.008 28h-320.992q-40 0-68-28t-28-68v-64h-160q-12.992 0-22.496-9.504t-9.504-22.496 9.504-22.496 22.496-9.504h832q12.992 0 22.496 9.504t9.504 22.496-9.504 22.496-22.496 9.504zM320 800q0 12.992 9.504 22.496t22.496 9.504h320.992q12.992 0 22.016-9.504t8.992-22.496v-64h-384v64zM736 0h-448q-40 0-68 28t-28 68v480q0 14.016 9.504 23.008t22.496 8.992 22.496-8.992 9.504-23.008v-480q0-12.992 9.504-22.496t22.496-9.504h448q14.016 0 23.008 9.504t8.992 22.496v479.008q0 12.992 9.504 22.496t22.496 9.504 22.496-9.504 9.504-22.496v-479.008q0-40-28-68t-68-28z" />
<glyph unicode="&#xe935;" glyph-name="forward" d="M544 0q-6.016 0-12 2.016-20 8-20 30.016v287.008q-67.008-3.008-132.512-20.512t-108.512-36.512-82.496-43.488-52-34.496-18.496-15.008q-18.016-16-38.016-4.992t-15.008 34.016q2.016 14.016 7.488 36t28 78.496 52.512 104.512q68.992 108.992 168.512 166.016t222.496 56.992q12.992 0 22.496-9.504t9.504-22.496-9.504-22.496-22.496-9.504q-68 0-128-20.992t-100.512-52-74.496-74.496-52.992-80-35.008-75.488q182.016 111.008 391.008 111.008 12.992 0 22.496-9.504t9.504-22.496v-238.016l308 330.016-308 335.008v-43.008q0-12.992-9.504-22.496t-22.496-9.504-22.496 9.504-9.504 22.496v124.992q0 20.992 20.512 28.992t35.488-8l384-416q8-8.992 8-21.504t-8.992-21.504l-384-412.992q-8.992-10.016-23.008-10.016z" />
<glyph unicode="&#xe936;" glyph-name="chat" d="M639.892 544.070h-255.957c-17.717 0-31.995 14.277-31.995 31.995s14.277 31.995 31.995 31.995h255.957c17.717 0 31.995-14.277 31.995-31.995s-14.277-31.995-31.995-31.995zM579.172 416.091h-195.236c-17.717 0-31.995 14.277-31.995 31.995s14.449 31.995 31.995 31.995h195.236c17.717 0 31.995-14.277 31.995-31.995s-14.277-31.995-31.995-31.995zM962.247 512.075c0 211.749-200.912 383.935-447.925 383.935s-448.097-172.186-448.097-383.935c0-116.454 62.957-226.027 172.874-300.681 14.621-9.977 34.575-6.193 44.38 8.429 9.977 14.621 6.193 34.575-8.429 44.38-92.028 62.441-144.836 152.749-144.836 247.7 0 176.486 172.186 319.946 383.935 319.946s383.935-143.632 383.935-319.946-172.186-319.946-383.935-319.946c-2.064 0-3.612-0.688-5.504-1.204-15.137 2.752-30.446-5.16-35.779-20.126-6.193-17.373-46.444-46.616-94.092-73.794 17.373 58.141 9.117 70.698 3.44 78.954-6.709 9.977-17.889 15.997-29.93 15.997-17.717 0-31.995-14.277-31.995-31.995 0-5.848 1.548-11.181 4.3-15.997-3.268-18.233-17.201-60.893-33.027-99.768-4.988-12.041-2.064-25.974 7.397-35.091 6.020-5.848 14.105-8.945 22.19-8.945 4.3 0 8.773 0.86 13.073 2.752 36.467 16.341 147.588 69.15 187.667 125.57 243.4 3.612 440.356 174.078 440.356 383.763z" />
<glyph unicode="&#xe937;" glyph-name="voice" d="M526.432 35.936c-20.96 0-44.16 12.576-68.96 37.344l-182.72 182.72h-82.752c-52.928 0-96 43.072-96 96v192c0 52.928 43.072 96 96 96h82.752l182.624 182.624c24.576 24.576 47.744 37.024 68.864 37.024 22.944 0 49.76-15.648 49.76-59.648v-704c0-44.352-26.72-60.064-49.568-60.064zM687.584 229.632c-6.464 0-12.992 1.952-18.656 6.016-14.336 10.304-17.632 30.304-7.328 44.672l12.672 17.344c33.12 44.896 61.728 83.712 61.728 150.336 0 69.024-25.344 102.528-57.44 144.928-5.664 7.456-11.328 15.008-16.928 22.784-10.304 14.336-7.040 34.336 7.328 44.672 14.368 10.368 34.336 7.040 44.672-7.328 5.248-7.328 10.656-14.464 15.968-21.504 34.624-45.76 70.4-93.056 70.4-183.552 0-87.648-39.392-141.12-74.144-188.32l-12.224-16.736c-6.272-8.704-16.064-13.312-26.048-13.312zM796.448 120.992c-7.488 0-15.040 2.624-21.088 7.936-13.28 11.648-14.624 31.872-2.976 45.152 64.224 73.248 123.616 157.056 123.616 273.92s-59.392 200.704-123.616 273.888c-11.648 13.312-10.304 33.504 2.976 45.184 13.216 11.648 33.44 10.336 45.152-2.944 68.96-78.688 139.488-177.728 139.488-316.128s-70.528-237.472-139.488-316.096c-6.368-7.232-15.2-10.912-24.064-10.912z" />
<glyph unicode="&#xe938;" glyph-name="expression" d="M510.944 0c-247.040 0-448 200.96-448 448s200.992 448 448 448c247.008 0 448-200.96 448-448s-200.96-448-448-448zM510.944 832c-211.744 0-384-172.256-384-384s172.256-384 384-384c211.744 0 384 172.256 384 384s-172.256 384-384 384zM512 186.656c-89.184 0-171.904 40.32-226.912 110.624-10.88 13.92-8.448 34.016 5.472 44.896 13.888 10.912 34.016 8.48 44.928-5.472 42.784-54.688 107.136-86.048 176.512-86.048 70.112 0 134.88 31.904 177.664 87.552 10.784 14.016 30.848 16.672 44.864 5.888s16.672-30.88 5.888-44.864c-55.008-71.552-138.272-112.576-228.416-112.576zM368 444.8c-26.528 0-48 21.472-48 48v64c0 26.528 21.472 48 48 48s48-21.472 48-48v-64c0-26.496-21.504-48-48-48zM656 444.8c-26.496 0-48 21.472-48 48v64c0 26.528 21.504 48 48 48s48-21.472 48-48v-64c0-26.496-21.504-48-48-48z" />
<glyph unicode="&#xe939;" glyph-name="circle-add" d="M512 1.984c-119.648 0-232.128 46.368-316.736 130.56-84.64 84.256-131.264 196.256-131.264 315.456 0 119.168 46.624 231.2 131.232 315.424 84.608 84.192 197.088 130.56 316.736 130.56s232.128-46.368 316.704-130.56c84.672-84.224 131.264-196.256 131.264-315.392 0.032-119.2-46.592-231.232-131.264-315.456-84.544-84.192-197.024-130.592-316.672-130.592zM512 830.016c-102.624 0-199.072-39.744-271.584-111.936-72.48-72.128-112.416-168.064-112.416-270.080s39.904-197.952 112.384-270.048c72.512-72.192 168.96-111.936 271.584-111.936 102.592 0 199.072 39.744 271.584 111.936 72.48 72.16 112.416 168.064 112.384 270.080 0 102.016-39.904 197.92-112.384 270.016-72.48 72.192-168.96 111.968-271.552 111.968zM736 480h-192v192c0 17.664-14.336 32-32 32s-32-14.336-32-32v-192h-192c-17.664 0-32-14.336-32-32s14.336-32 32-32h192v-192c0-17.696 14.336-32 32-32s32 14.304 32 32v192h192c17.696 0 32 14.336 32 32s-14.304 32-32 32z" />
<glyph unicode="&#xe93a;" glyph-name="waiter2" d="M183.747 38.4c-0.123-0.002-0.267-0.003-0.412-0.003-16.823 0-30.488 13.523-30.717 30.292v0.022c0 65.741 79.872 113.459 220.303 132.506v9.216c-95.293 70.861-95.293 202.547-95.293 282.829 0 132.301 79.872 211.149 213.852 211.149h7.127c133.939 0 213.893-78.848 213.893-211.149 0-9.626 0-19.661-0.369-29.696-0.873-16.503-14.467-29.554-31.109-29.554-17.204 0-31.15 13.946-31.15 31.15 0 0.015 0 0.030 0 0.044v-0.002c0.287 9.421 0.369 18.842 0.369 28.058 0 99.942-51.016 150.528-151.552 150.528h-7.168c-100.577 0-151.552-50.586-151.552-150.528 0-96.87 6.267-195.379 80.896-241.664 8.606-5.329 14.269-14.693 14.336-25.385v-51.824c-0.148-15.847-12.271-28.816-27.749-30.301l-0.124-0.010c-124.928-12.698-192.512-48.333-192.512-75.366-0.229-16.79-13.894-30.313-30.717-30.313-0.152 0-0.304 0.001-0.456 0.003h0.023zM809.452 38.4c-0.123-0.002-0.267-0.003-0.412-0.003-16.823 0-30.488 13.523-30.717 30.292v0.022c0 27.034-67.42 62.669-192.512 75.366-15.611 1.484-27.745 14.457-27.894 30.295v51.829c0 17.192 13.937 31.13 31.13 31.13s31.13-13.937 31.13-31.13v0-24.986c140.452-19.046 220.262-66.765 220.262-132.506-0.23-16.79-13.894-30.313-30.717-30.313-0.131 0-0.261 0.001-0.391 0.002h0.020zM593.92 310.17c-0.905-0.005-1.976-0.008-3.048-0.008-25.636 0-50.89 1.64-75.661 4.821l2.933-0.307c-12.769 3.799-21.922 15.433-21.922 29.203 0 2.131 0.219 4.212 0.636 6.219l-0.034-0.197c3.387 13.948 15.768 24.142 30.53 24.142 1.185 0 2.355-0.066 3.506-0.194l-0.142 0.013c77.599-8.397 196.178-1.229 216.945 40.96 5.311 10.279 15.859 17.184 28.020 17.184 4.911 0 9.559-1.126 13.7-3.134l-0.187 0.082c10.477-4.796 17.624-15.189 17.624-27.251 0-4.766-1.116-9.271-3.1-13.269l0.078 0.174c-32.461-65.946-136.847-78.438-209.961-78.438v0zM869.949 341.914c-0.123-0.002-0.267-0.003-0.412-0.003-16.823 0-30.488 13.523-30.717 30.292v105.904l-41.595 14.541c-12.018 4.141-20.525 15.293-20.664 28.451v0.017c-2.694 152.68-127.097 275.416-280.166 275.416s-277.473-122.737-280.163-275.164l-0.004-0.252c-0.095-10.159-5.194-19.108-12.947-24.511l-0.098-0.065-18.084-12.493v-111.821c-0.625-16.711-14.323-30.021-31.13-30.021s-30.504 13.31-31.128 29.964l-0.002 0.057v127.386c0.046 10.171 5.161 19.138 12.946 24.511l0.1 0.065 18.432 12.902c12.091 179.469 160.632 320.467 342.105 320.467 179.451 0 326.7-137.874 341.595-313.47l0.086-1.263 42.271-14.746c12.049-4.12 20.587-15.276 20.746-28.448v-127.405c-0.229-16.79-13.894-30.313-30.717-30.313-0.145 0-0.29 0.001-0.434 0.003h0.022z" />
<glyph unicode="&#xe93c;" glyph-name="car" d="M873.288 163.697c-15.394 0.104-27.834 12.607-27.834 28.016 0 0.101 0.001 0.202 0.002 0.303v-0.015 284.918c0.047 0.897 0.074 1.947 0.074 3.003 0 19.529-9.166 36.917-23.431 48.096l-0.133 0.101-182.702 93.143c-1.174 0.824-2.203 1.671-3.164 2.59l0.010-0.009c-1.73 1.178-3.24 2.382-4.655 3.69l0.026-0.024c-1.069 1.291-2.059 2.731-2.915 4.257l-0.075 0.146c-0.956 1.364-1.808 2.921-2.482 4.571l-0.058 0.16c-0.576 1.722-1.003 3.731-1.2 5.808l-0.008 0.111c-0.275 1.064-0.533 2.412-0.717 3.783l-0.021 0.19v99.389c0 0.013 0 0.027 0 0.042 0 7.638-6.14 13.842-13.753 13.946h-403.876c-15.44-0.321-27.834-12.913-27.834-28.4 0-0.096 0-0.191 0.001-0.287v0.015-537.436c0-15.371-12.461-27.832-27.832-27.832s-27.832 12.461-27.832 27.832v0 537.457c-0.002 0.221-0.003 0.483-0.003 0.745 0 46.345 37.247 83.991 83.44 84.635l0.061 0.001h403.927c38.424-0.37 69.429-31.604 69.429-70.080 0-0.188-0.001-0.376-0.002-0.564v0.029-81.92l169.226-86.446c1.33-0.669 2.456-1.349 3.526-2.105l-0.085 0.057c29.691-21.627 48.769-56.277 48.769-95.381 0-1.165-0.017-2.325-0.051-3.481l0.004 0.17v-284.918c0.001-0.085 0.001-0.186 0.001-0.287 0-15.409-12.439-27.912-27.824-28.016h-0.010zM763.167 391.987h-111.329c-15.394 0.104-27.834 12.607-27.834 28.016 0 0.108 0.001 0.216 0.002 0.324v-0.016 113.234c0 15.371 12.461 27.832 27.832 27.832s27.832-12.461 27.832-27.832v0-84.931h83.497c15.312-0.425 27.562-12.939 27.562-28.314s-12.251-27.889-27.523-28.313l-0.039-0.001zM347.197 311.48c53.967-0.473 98.985-38.222 110.587-88.728l0.149-0.77h107.745c12.27 52.341 58.553 90.719 113.8 90.719 64.472 0 116.736-52.264 116.736-116.736s-52.264-116.736-116.736-116.736c-53.529 0-98.644 36.029-112.415 85.16l-0.197 0.822h-109.978c-14.34-47.806-57.944-82.043-109.546-82.043-63.046 0-114.156 51.109-114.156 114.156 0 62.988 51.015 114.061 113.981 114.155h0.009zM676.393 136.131c0.311-0.006 0.677-0.009 1.044-0.009 32.801 0 59.392 26.591 59.392 59.392s-26.591 59.392-59.392 59.392c-32.755 0-59.317-26.515-59.392-59.253v-0.007c-0.002-0.159-0.002-0.348-0.002-0.536 0-32.345 26.036-58.61 58.295-58.978h0.035zM347.197 136.294c0.305-0.006 0.664-0.009 1.024-0.009 32.801 0 59.392 26.591 59.392 59.392s-26.591 59.392-59.392 59.392c-32.798 0-59.387-26.586-59.392-59.383v0c-0.001-0.141-0.002-0.307-0.002-0.474 0-32.34 26.055-58.595 58.319-58.918h0.031z" />
<glyph unicode="&#xe93d;" glyph-name="vip2" d="M707.813 387.383c-20.933 0-40.98-3.786-59.504-10.696-26.777 23.166-57.632 41.739-91.352 54.487 63.050 36.949 105.397 105.406 105.397 183.763 0 117.556-95.298 212.854-212.854 212.854s-212.854-95.298-212.854-212.854c0-78.347 42.337-146.797 105.374-183.748-108.941-41.182-188.023-143.145-195.914-264.52-0.119-0.979-0.201-1.97-0.201-2.982 0-13.435 10.891-24.326 24.326-24.326s24.326 10.891 24.326 24.326h0.095c8.766 133.125 119.504 238.396 254.846 238.396 57.472 0 110.504-18.985 153.179-51.022-39.669-31.176-65.148-79.593-65.148-133.961 0-94.045 76.238-170.284 170.284-170.284s170.284 76.238 170.284 170.284-76.237 170.284-170.282 170.284zM285.297 614.936c0 90.686 73.515 164.202 164.202 164.202s164.202-73.516 164.202-164.202-73.516-164.202-164.202-164.202c-90.687 0-164.202 73.515-164.202 164.202zM707.813 95.468c-67.176 0-121.631 54.457-121.631 121.631 0 67.176 54.455 121.631 121.631 121.631s121.631-54.455 121.631-121.631c0-67.174-54.455-121.631-121.631-121.631zM762.503 268.42c-8.425-0.001-15.66-5.097-18.79-12.374l-0.051-0.133-32.289-76.643-34.407 77.002c-3.311 7.279-10.52 12.249-18.889 12.249v0c-14.967 0-24.982-15.401-18.911-29.081l39.613-89.275c5.547-12.28 17.686-20.671 31.786-20.671 14.2 0 26.413 8.512 31.814 20.712l0.088 0.222 38.792 89.411c5.859 13.501-4.037 28.581-18.754 28.581z" />
<glyph unicode="&#xe93e;" glyph-name="vip3" horiz-adv-x="1044" d="M247.296 765.44h508.416v-63.488h-508.416v63.488zM245.76 637.44h508.416v-63.488h-508.416v63.488zM120.32 893.44h762.368v-508.416h63.488v508.416c0 35.328-28.672 63.488-63.488 63.488h-762.368c-35.328 0-63.488-28.672-63.488-63.488v-889.344c0-35.328 28.672-63.488 63.488-63.488h444.928v63.488h-444.928v889.344zM246.784 383.488v-63.488h154.624c0 22.016 3.072 43.52 9.216 63.488h-163.84zM506.368 510.464h-260.608v-63.488h193.024c17.92 25.6 40.96 47.104 67.584 63.488zM987.648-1.024l-145.92 143.872c33.28 38.912 53.76 89.6 53.76 144.896 0 122.88-99.328 222.208-222.208 222.208s-222.208-99.328-222.208-222.208 99.328-222.208 222.208-222.208c44.544 0 86.016 13.312 120.832 35.328l148.992-146.944c12.288-12.288 32.768-12.288 45.056 0 11.776 12.8 11.776 32.768-0.512 45.056zM514.56 288.256c0 87.552 71.168 158.72 158.72 158.72s158.72-71.168 158.72-158.72-71.168-158.72-158.72-158.72c-87.552-0.512-158.72 70.656-158.72 158.72z" />
<glyph unicode="&#xe93f;" glyph-name="qq" horiz-adv-x="913" d="M461.437 960c0.061 0 0.132 0 0.204 0 193.405 0 350.347-156.118 351.679-349.209l0.001-0.127c-0.174-32.644-4.598-64.18-12.744-94.184l0.593 2.563c36.158-21.656 72.317-77.118 96.423-146.986 29.397-98.774 16.854-192.747-29.397-207.25-24.106-7.251-53.013 7.251-77.118 36.158-15.929-29.386-32.684-54.616-51.404-78.217l0.841 1.099c55.463-14.503 93.973-48.211 93.973-86.722 0-55.463-77.118-101.224-171.091-101.224-69.867 0-132.483 26.457-156.785 62.616-13.377-2.489-29.135-4.212-45.186-4.785l-0.575-0.016c-16.626 0.59-32.385 2.312-47.771 5.104l2.009-0.302c-24.106-36.158-86.722-62.616-156.785-62.616-93.287 0.098-170.111 45.86-170.111 101.224 0 38.51 38.51 72.317 93.973 86.722-19.683 24.534-37.339 52.221-51.843 81.735l-1.17 2.634c-26.457-33.709-57.814-50.563-84.37-43.41-46.056 14.503-58.010 108.475-29.103 207.25 24.106 74.669 67.515 132.483 106.026 151.787-7.526 25.963-11.918 55.802-12.053 86.646v0.075c1.278 193.26 158.241 349.434 351.68 349.434 0.037 0 0.074 0 0.111 0h-0.006z" />
<glyph unicode="&#xe940;" glyph-name="qzone" horiz-adv-x="1077" d="M314.195 269.006c24.689 29.392 342.705 207.504 342.705 207.504l-415.008 56.138 555.206 6.466c5.504-4.871 8.956-11.952 8.956-19.839s-3.452-14.969-8.928-19.815l-0.028-0.024c-19.692-23.219-314.489-225.727-314.489-225.727l335.357-26.746-10.287 58.783 269.226 262.466-371.509 54.668-167.238 337.121-166.356-337.121-371.803-54.080 269.226-262.466-63.486-370.333 332.712 176.349 332.712-176.349-52.317 304.202-504.358-22.338c-6.78 6.487-10.995 15.608-10.995 25.713 0 9.961 4.095 18.966 10.694 25.422l0.006 0.006zM817.672 247.256l1.176-7.054 53.786 2.351-54.962 4.703z" />
<glyph unicode="&#xe941;" glyph-name="moments" d="M369.91 939.829l336.983-413.812 8.899 391.564c-60.029 26.801-130.084 42.41-203.785 42.41-50.628 0-99.536-7.365-145.711-21.083l3.614 0.921zM63.778 695.101l529.502-54.285-269.349 283.291c-112.080-45.014-202.211-125.079-258.825-226.417l-1.328-2.589zM20.171 305.91l413.812 336.686-391.564 8.899c-26.769-59.996-42.358-130.011-42.358-203.667 0-50.563 7.346-99.41 21.030-145.532l-0.92 3.614zM264.899-0.519l54.285 530.688-283.291-270.535c44.941-112.040 124.901-202.163 226.127-258.825l2.582-1.328zM654.090-43.829l-336.686 413.516-8.899-391.564c59.877-26.669 129.743-42.198 203.237-42.198 50.721 0 99.715 7.397 145.961 21.171l-3.613-0.924zM960.222 200.603l-530.688 54.285 270.535-282.994c112.066 44.897 202.202 124.87 258.827 226.127l1.326 2.582zM1003.829 590.090l-413.516-336.983 391.564-8.899c26.669 59.877 42.198 129.743 42.198 203.237 0 50.721-7.397 99.715-21.171 145.961l0.924-3.613zM759.397 896.222l-54.285-529.502 282.994 270.535c-45.142 111.578-125.063 201.276-226.115 257.638l-2.594 1.328z" />
<glyph unicode="&#xe942;" glyph-name="weibo" horiz-adv-x="1192" d="M897.564 433.183c-47.084 9.219-24.365 32.926-24.365 32.926s46.096 76.059-9.219 131.704c-68.486 68.486-234.763-8.561-234.763-8.561-63.547-19.756-46.755 8.89-37.536 57.95 0 57.621-19.756 155.082-188.995 98.778s-314.444-260.774-314.444-260.774c-101.083-134.997-88.242-239.372-88.242-239.372 25.353-230.482 269.664-293.042 460.965-307.859 199.861-15.475 469.855 68.815 551.511 242.665s-67.828 242.994-114.912 252.543zM474.794 2.84c-197.556-9.219-358.894 90.217-358.894 222.58s160.35 239.043 358.894 247.933 359.552-73.096 359.552-204.8-160.679-256.823-359.552-265.713zM435.282 386.099c-99.339-5.152-177.936-86.953-177.936-187.113 0-8.208 0.528-16.293 1.551-24.222l-0.099 0.937c0.545-38.313 21.846-71.529 53.143-88.961l0.526-0.269c33.535-20.14 74.002-32.052 117.25-32.052 72.113 0 136.491 33.118 178.753 84.974l0.331 0.419c62.23 78.693 26.341 269.664-173.52 246.287zM384.905 122.691c-3.523-0.814-7.569-1.28-11.723-1.28-28.369 0-51.659 21.744-54.114 49.474l-0.015 0.207c2.608 34.601 29.506 62.177 63.562 65.825l0.314 0.027c42.804 3.951 70.791-20.743 70.791-51.694-5.171-34.203-33.762-60.305-68.688-61.568l-0.127-0.004zM502.451 221.469c-4.144-4.022-9.805-6.502-16.045-6.502-7.765 0-14.632 3.839-18.808 9.723l-0.048 0.071c-2.353 4.125-3.741 9.064-3.741 14.327 0 9.807 4.817 18.488 12.215 23.808l0.087 0.060c4.357 4.397 10.398 7.12 17.075 7.12 8.182 0 15.409-4.088 19.75-10.333l0.052-0.079c1.263-3.247 1.996-7.005 1.996-10.934 0-10.013-4.755-18.915-12.129-24.572l-0.074-0.054zM1185.338 537.888c0.221 1.73 0.347 3.731 0.347 5.762s-0.126 4.032-0.37 5.997l0.024-0.235c2.757 16.627 4.333 35.788 4.333 55.316 0 195.998-158.715 354.926-354.633 355.271h-0.033c-27.277 0-49.389-22.112-49.389-49.389s22.112-49.389 49.389-49.389v0c142.806-0.165 258.508-115.97 258.508-258.799 0-16.647-1.572-32.928-4.575-48.701l0.256 1.616c-0.047-0.836-0.073-1.814-0.073-2.799s0.027-1.963 0.079-2.934l-0.006 0.135c0.257-27.080 22.27-48.934 49.387-48.934 22.784 0 41.964 15.427 47.665 36.405l0.080 0.346zM1031.573 584.314c0 6.256 0 12.183 0 18.439 0 109.107-88.449 197.556-197.556 197.556v0c-22.731 0-41.158-18.427-41.158-41.158s18.427-41.158 41.158-41.158v0c63.828 0 115.57-51.743 115.57-115.57v0c0.148-2.215 0.232-4.802 0.232-7.408s-0.084-5.193-0.25-7.758l0.018 0.349c-0.050-0.738-0.078-1.601-0.078-2.469s0.028-1.731 0.084-2.586l-0.006 0.116c0-22.731 18.427-41.158 41.158-41.158v0c20.558 0.165 37.486 15.499 40.147 35.351l0.023 0.209s0 1.976 0 3.293 0 0 0 2.305 0.659 0.988 0.659 1.646z" />
</font>
</defs>
</svg>
